{"glyphs":{"0":{"ha":910,"x_min":79,"x_max":829,"o":"m 454 -6 q 259 55 344 -6 q 126 226 174 115 q 79 486 79 336 q 126 747 79 636 q 259 917 174 857 q 454 978 344 978 q 651 917 567 978 q 782 747 735 857 q 829 486 829 636 q 782 226 829 336 q 651 55 735 115 q 454 -6 567 -6 m 454 38 q 626 92 553 38 q 742 247 700 146 q 783 486 783 347 q 742 726 783 626 q 626 881 700 826 q 454 935 553 935 q 283 881 357 935 q 167 726 208 826 q 126 486 126 626 q 167 247 126 347 q 283 92 208 146 q 454 38 357 38 z "},"1":{"ha":482,"x_min":14,"x_max":304,"o":"m 258 0 l 258 950 l 279 929 l 14 929 l 14 972 l 304 972 l 304 0 l 258 0 z "},"2":{"ha":775,"x_min":36,"x_max":717,"o":"m 58 0 l 58 33 l 475 453 q 567 558 536 513 q 608 644 597 604 q 619 722 619 683 q 553 877 619 819 q 360 935 486 935 q 191 906 263 935 q 68 818 119 878 l 36 849 q 172 944 90 911 q 361 978 254 978 q 523 947 454 978 q 628 860 592 917 q 665 725 665 804 q 653 635 665 679 q 606 540 640 590 q 508 425 572 489 l 110 24 l 90 43 l 717 43 l 717 0 l 58 0 z "},"3":{"ha":767,"x_min":24,"x_max":689,"o":"m 361 -6 q 161 32 251 -6 q 24 129 71 69 l 49 163 q 174 74 90 110 q 360 38 257 38 q 571 101 499 38 q 643 269 643 164 q 570 438 643 375 q 343 501 497 501 l 289 501 l 289 535 l 606 947 l 611 929 l 56 929 l 56 972 l 653 972 l 653 939 l 336 526 l 322 543 l 347 543 q 604 467 519 543 q 689 269 689 392 q 651 127 689 189 q 541 30 614 65 q 361 -6 468 -6 z "},"4":{"ha":900,"x_min":63,"x_max":878,"o":"m 63 281 l 63 314 l 600 972 l 654 972 l 117 314 l 89 322 l 878 322 l 878 281 l 63 281 m 621 0 l 621 281 l 621 322 l 621 569 l 667 569 l 667 0 l 621 0 z "},"5":{"ha":767,"x_min":40,"x_max":707,"o":"m 376 -6 q 179 32 269 -6 q 40 129 89 69 l 67 163 q 191 74 108 110 q 376 38 274 38 q 590 104 519 38 q 660 275 660 171 q 626 404 660 350 q 513 486 593 458 q 293 514 432 514 l 104 514 l 156 972 l 657 972 l 657 929 l 176 929 l 197 950 l 150 535 l 131 557 l 303 557 q 541 522 453 557 q 668 424 629 488 q 707 275 707 361 q 670 133 707 197 q 560 31 633 68 q 376 -6 488 -6 z "},"6":{"ha":828,"x_min":79,"x_max":779,"o":"m 464 -6 q 251 53 336 -6 q 122 223 165 113 q 79 483 79 333 q 133 758 79 649 q 281 922 186 867 q 501 978 375 978 q 616 967 561 978 q 714 929 671 957 l 693 892 q 608 925 657 915 q 501 935 558 935 q 228 824 331 935 q 126 490 126 713 q 131 404 126 457 q 151 301 135 351 l 133 292 q 183 442 139 379 q 299 536 228 504 q 457 568 371 568 q 626 533 554 568 q 739 434 699 499 q 779 283 779 369 q 738 131 779 196 q 626 31 697 67 q 464 -6 556 -6 m 463 36 q 603 67 543 36 q 699 153 664 97 q 733 282 733 208 q 658 460 733 393 q 453 528 583 528 q 303 494 368 528 q 203 405 239 461 q 168 279 168 349 q 201 165 168 221 q 300 72 235 108 q 463 36 365 36 z "},"7":{"ha":799,"x_min":49,"x_max":733,"o":"m 254 0 l 688 949 l 707 929 l 72 929 l 94 950 l 94 738 l 49 738 l 49 972 l 733 972 l 733 939 l 306 0 l 254 0 z "},"8":{"ha":871,"x_min":74,"x_max":797,"o":"m 435 -6 q 240 27 321 -6 q 117 120 160 60 q 74 264 74 181 q 117 402 74 344 q 240 490 160 460 q 435 521 321 521 q 630 490 549 521 q 754 401 711 460 q 797 264 797 343 q 754 120 797 181 q 629 27 711 60 q 435 -6 547 -6 m 435 36 q 668 97 585 36 q 751 263 751 158 q 668 426 751 365 q 435 488 585 488 q 203 426 286 488 q 121 263 121 365 q 203 97 121 158 q 435 36 286 36 m 435 493 q 258 522 331 493 q 147 605 185 551 q 108 731 108 658 q 149 863 108 807 q 263 948 189 918 q 435 978 336 978 q 608 948 535 978 q 722 863 681 918 q 763 731 763 807 q 724 605 763 658 q 612 522 685 551 q 435 493 539 493 m 435 528 q 642 583 568 528 q 717 731 717 638 q 640 881 717 825 q 435 936 564 936 q 231 881 306 936 q 156 731 156 825 q 229 583 156 639 q 435 528 303 528 z "},"9":{"ha":828,"x_min":49,"x_max":749,"o":"m 365 978 q 577 919 492 978 q 706 750 663 860 q 749 489 749 640 q 696 215 749 325 q 548 50 643 106 q 328 -6 453 -6 q 213 5 267 -6 q 114 43 158 15 l 135 81 q 222 48 171 58 q 326 38 272 38 q 599 149 497 38 q 701 482 701 260 q 697 569 701 517 q 678 671 693 621 l 694 681 q 645 531 689 593 q 530 437 601 469 q 371 404 458 404 q 201 439 274 404 q 89 538 129 474 q 49 689 49 603 q 90 841 49 776 q 202 942 131 906 q 365 978 274 978 m 365 936 q 225 906 286 936 q 130 819 164 875 q 96 690 96 764 q 171 512 96 579 q 375 444 246 444 q 524 478 460 444 q 625 567 589 511 q 661 693 661 624 q 628 808 661 751 q 529 900 594 864 q 365 936 464 936 z "},"\u0000":{"ha":0,"x_min":0,"x_max":0,"o":""},"\r":{"ha":351,"x_min":0,"x_max":0,"o":""}," ":{"ha":351,"x_min":0,"x_max":0,"o":""},"!":{"ha":342,"x_min":126,"x_max":217,"o":"m 154 269 l 146 972 l 197 972 l 189 269 l 154 269 m 171 -4 q 140 9 153 -4 q 126 40 126 22 q 140 73 126 60 q 171 86 153 86 q 203 73 190 86 q 217 40 217 60 q 203 9 217 22 q 171 -4 190 -4 z "},"\"":{"ha":478,"x_min":108,"x_max":369,"o":"m 113 621 l 108 972 l 154 972 l 150 621 l 113 621 m 328 621 l 324 972 l 369 972 l 365 621 l 328 621 z "},"#":{"ha":953,"x_min":47,"x_max":904,"o":"m 576 0 l 696 972 l 736 972 l 617 0 l 576 0 m 47 285 l 47 324 l 861 324 l 861 285 l 47 285 m 215 0 l 336 972 l 375 972 l 256 0 l 215 0 m 90 649 l 90 688 l 904 688 l 904 649 l 90 649 z "},"$":{"ha":839,"x_min":76,"x_max":763,"o":"m 404 -167 l 404 1139 l 440 1139 l 440 -167 l 404 -167 m 424 -6 q 222 33 317 -6 q 76 129 126 71 l 101 163 q 235 73 149 110 q 422 36 322 36 q 589 64 524 36 q 685 138 654 92 q 717 242 717 185 q 683 349 717 308 q 595 413 650 389 q 476 451 540 436 q 345 484 411 467 q 224 528 279 501 q 137 603 169 556 q 104 728 104 651 q 139 850 104 793 q 247 942 174 907 q 436 978 321 978 q 592 953 515 978 q 724 889 669 929 l 703 851 q 574 915 644 894 q 438 936 503 936 q 276 908 340 936 q 181 832 211 879 q 150 728 150 785 q 183 619 150 660 q 272 556 217 579 q 392 517 326 532 q 522 484 457 501 q 642 439 588 467 q 730 365 697 411 q 763 243 763 318 q 727 121 763 178 q 616 29 692 64 q 424 -6 540 -6 z "},"%":{"ha":1121,"x_min":67,"x_max":1056,"o":"m 207 0 l 871 972 l 914 972 l 250 0 l 207 0 m 276 454 q 167 486 215 454 q 93 577 119 518 q 67 715 67 636 q 93 853 67 794 q 167 944 119 913 q 276 976 215 976 q 386 944 339 976 q 460 853 433 913 q 486 715 486 794 q 460 577 486 636 q 386 486 433 518 q 276 454 339 454 m 276 489 q 401 549 353 489 q 449 715 449 610 q 401 881 449 821 q 276 942 353 942 q 152 881 200 942 q 104 715 104 821 q 152 549 104 610 q 276 489 200 489 m 844 -4 q 735 28 783 -4 q 661 119 688 60 q 635 257 635 178 q 661 395 635 336 q 735 486 688 454 q 844 518 783 518 q 954 486 907 518 q 1028 395 1001 454 q 1056 257 1056 336 q 1028 119 1056 178 q 954 28 1001 60 q 844 -4 907 -4 m 844 31 q 969 91 921 31 q 1017 257 1017 151 q 969 423 1017 363 q 844 483 921 483 q 721 423 768 483 q 674 257 674 363 q 721 91 674 151 q 844 31 768 31 z "},"&":{"ha":893,"x_min":75,"x_max":882,"o":"m 383 -6 q 224 25 294 -6 q 115 109 154 56 q 75 235 75 163 q 101 340 75 290 q 185 441 126 390 q 344 550 244 492 q 488 643 436 604 q 562 718 540 682 q 583 799 583 754 q 542 900 583 861 q 421 939 500 939 q 293 897 339 939 q 247 785 247 854 q 257 724 247 753 q 292 658 267 694 q 365 571 318 622 l 882 17 l 851 -14 l 326 551 q 251 642 278 604 q 213 715 224 681 q 203 785 203 749 q 230 886 203 843 q 306 953 257 929 q 421 978 356 978 q 529 956 483 978 q 600 894 575 935 q 625 799 625 854 q 601 707 625 749 q 522 621 578 665 q 369 519 467 576 q 219 417 274 463 q 142 330 164 372 q 121 238 121 288 q 154 130 121 176 q 247 58 188 83 q 385 33 307 33 q 566 75 488 33 q 698 201 644 117 q 775 413 751 285 l 814 403 q 728 174 788 264 q 583 39 669 83 q 383 -6 496 -6 z "},"'":{"ha":261,"x_min":108,"x_max":154,"o":"m 113 621 l 108 972 l 154 972 l 150 621 l 113 621 z "},"(":{"ha":438,"x_min":164,"x_max":364,"o":"m 321 -269 q 205 22 246 -143 q 164 381 164 188 q 205 741 164 574 q 321 1031 246 908 l 364 1031 q 247 733 283 894 q 210 381 210 572 q 247 28 210 189 q 364 -269 283 -133 l 321 -269 z "},")":{"ha":439,"x_min":75,"x_max":274,"o":"m 118 -269 l 75 -269 q 192 28 154 -133 q 229 381 229 189 q 192 733 229 572 q 75 1031 154 894 l 118 1031 q 233 741 193 908 q 274 381 274 574 q 233 22 274 188 q 118 -269 193 -143 z "},"*":{"ha":507,"x_min":36,"x_max":472,"o":"m 472 894 l 276 782 l 276 799 l 472 686 l 454 654 l 260 767 l 271 774 l 271 550 l 236 550 l 236 774 l 250 767 l 53 654 l 36 686 l 233 799 l 233 782 l 36 894 l 53 926 l 249 814 l 236 807 l 236 1031 l 271 1031 l 271 807 l 260 814 l 454 926 l 472 894 z "},"+":{"ha":783,"x_min":103,"x_max":681,"o":"m 369 204 l 369 768 l 413 768 l 413 204 l 369 204 m 103 465 l 103 506 l 681 506 l 681 465 l 103 465 z "},",":{"ha":264,"x_min":83,"x_max":178,"o":"m 83 -196 l 132 22 l 135 -4 q 100 9 114 -4 q 86 42 86 22 q 99 74 86 61 q 132 88 113 88 q 165 73 153 88 q 178 42 178 58 q 176 25 178 33 q 174 10 175 17 q 169 -10 172 3 l 119 -196 l 83 -196 z "},"-":{"ha":529,"x_min":89,"x_max":440,"o":"m 89 349 l 89 390 l 440 390 l 440 349 l 89 349 z "},".":{"ha":264,"x_min":86,"x_max":178,"o":"m 132 -4 q 100 9 114 -4 q 86 42 86 22 q 100 74 86 61 q 132 88 114 88 q 165 74 151 88 q 178 42 178 61 q 165 9 178 22 q 132 -4 151 -4 z "},"/":{"ha":429,"x_min":-29,"x_max":472,"o":"m -29 -139 l 429 1169 l 472 1169 l 14 -139 l -29 -139 z "},":":{"ha":264,"x_min":86,"x_max":178,"o":"m 132 635 q 100 648 114 635 q 86 681 86 661 q 100 713 86 700 q 132 726 114 726 q 165 713 151 726 q 178 681 178 700 q 165 648 178 661 q 132 635 151 635 m 132 -4 q 100 9 114 -4 q 86 42 86 22 q 100 74 86 61 q 132 88 114 88 q 165 74 151 88 q 178 42 178 61 q 165 9 178 22 q 132 -4 151 -4 z "},";":{"ha":264,"x_min":83,"x_max":178,"o":"m 132 635 q 100 648 114 635 q 86 681 86 661 q 100 713 86 700 q 132 726 114 726 q 165 713 151 726 q 178 681 178 700 q 165 648 178 661 q 132 635 151 635 m 83 -196 l 132 22 l 135 -4 q 100 9 114 -4 q 86 42 86 22 q 99 74 86 61 q 132 88 113 88 q 165 73 153 88 q 178 42 178 58 q 176 25 178 33 q 174 10 175 17 q 169 -10 172 3 l 119 -196 l 83 -196 z "},"<":{"ha":783,"x_min":103,"x_max":681,"o":"m 681 224 l 103 464 l 103 508 l 681 749 l 681 703 l 125 476 l 125 496 l 681 269 l 681 224 z "},"=":{"ha":783,"x_min":103,"x_max":681,"o":"m 103 619 l 103 661 l 681 661 l 681 619 l 103 619 m 103 311 l 103 353 l 681 353 l 681 311 l 103 311 z "},">":{"ha":783,"x_min":103,"x_max":681,"o":"m 103 224 l 103 269 l 658 496 l 658 476 l 103 703 l 103 749 l 681 508 l 681 464 l 103 224 z "},"?":{"ha":774,"x_min":25,"x_max":656,"o":"m 342 269 q 361 374 342 331 q 411 451 381 418 q 475 514 442 485 q 539 574 508 543 q 589 644 569 604 q 608 739 608 683 q 542 881 608 825 q 350 936 475 936 q 181 907 253 936 q 58 819 110 878 l 25 847 q 162 944 81 911 q 351 978 243 978 q 513 949 444 978 q 619 867 582 919 q 656 743 656 814 q 636 638 656 682 q 586 560 617 594 q 522 498 556 526 q 458 438 489 469 q 408 365 428 406 q 389 269 389 325 l 342 269 m 365 -4 q 334 9 347 -4 q 321 40 321 22 q 334 73 321 60 q 365 86 347 86 q 398 73 385 86 q 411 40 411 60 q 398 9 411 22 q 365 -4 385 -4 z "},"@":{"ha":1433,"x_min":79,"x_max":1354,"o":"m 714 -275 q 458 -229 574 -275 q 256 -99 342 -183 q 125 99 171 -15 q 79 353 79 214 q 126 608 79 493 q 258 805 172 722 q 462 933 344 888 q 719 978 579 978 q 974 934 857 978 q 1176 808 1090 890 q 1308 613 1261 726 q 1354 363 1354 500 q 1328 163 1354 244 q 1257 38 1303 81 q 1153 -4 1211 -4 q 1054 32 1092 -4 q 1017 132 1017 68 l 1017 265 l 1029 360 l 1017 468 l 1017 714 l 1060 714 l 1060 147 q 1088 60 1060 86 q 1156 35 1115 35 q 1239 73 1203 35 q 1295 184 1275 111 q 1315 361 1315 257 q 1272 598 1315 492 q 1148 781 1228 704 q 959 899 1068 858 q 719 940 850 940 q 477 897 588 940 q 287 776 367 854 q 163 591 207 699 q 119 353 119 483 q 163 115 119 224 q 285 -72 206 7 q 473 -193 364 -150 q 714 -236 582 -236 q 847 -221 775 -236 q 976 -175 919 -206 l 992 -211 q 853 -260 929 -244 q 714 -275 778 -275 m 707 -4 q 529 42 608 -4 q 405 170 450 88 q 360 358 360 253 q 405 545 360 464 q 529 673 450 626 q 707 719 608 719 q 881 674 804 719 q 1003 547 958 628 q 1047 358 1047 467 q 1003 169 1047 251 q 882 41 958 86 q 707 -4 806 -4 m 710 36 q 867 76 797 36 q 976 190 936 117 q 1017 358 1017 263 q 976 526 1017 454 q 867 639 936 599 q 710 679 797 679 q 553 639 622 679 q 444 526 485 599 q 404 358 404 454 q 444 191 404 264 q 553 77 485 118 q 710 36 622 36 z "},"A":{"ha":967,"x_min":10,"x_max":956,"o":"m 10 0 l 460 972 l 506 972 l 956 0 l 904 0 l 472 940 l 493 940 l 61 0 l 10 0 m 165 285 l 183 325 l 778 325 l 796 285 l 165 285 z "},"B":{"ha":1042,"x_min":178,"x_max":954,"o":"m 178 0 l 178 972 l 572 972 q 813 910 725 972 q 901 725 901 847 q 863 592 901 646 q 758 511 825 538 q 603 485 690 485 l 626 507 q 807 478 735 507 q 917 393 879 449 q 954 256 954 338 q 866 67 954 133 q 600 0 778 0 l 178 0 m 225 42 l 603 42 q 829 94 751 42 q 907 257 907 146 q 829 422 907 369 q 603 474 751 474 l 217 474 l 217 514 l 574 514 q 781 567 707 514 q 856 722 856 619 q 781 878 856 825 q 574 931 707 931 l 225 931 l 225 42 z "},"C":{"ha":990,"x_min":79,"x_max":918,"o":"m 581 -6 q 382 31 474 -6 q 222 135 290 68 q 117 291 154 201 q 79 486 79 381 q 117 681 79 592 q 222 838 154 771 q 382 941 290 904 q 581 978 474 978 q 767 946 679 978 q 918 849 854 914 l 889 818 q 747 908 824 881 q 582 935 669 935 q 401 901 485 935 q 256 806 318 867 q 160 663 194 744 q 126 486 126 582 q 160 309 126 390 q 256 167 194 228 q 401 72 318 106 q 582 38 485 38 q 747 65 669 38 q 889 156 824 92 l 918 125 q 767 27 854 60 q 581 -6 679 -6 z "},"D":{"ha":1147,"x_min":178,"x_max":1068,"o":"m 178 0 l 178 972 l 553 972 q 824 909 708 972 q 1003 737 939 846 q 1068 486 1068 628 q 1003 235 1068 344 q 824 63 939 126 q 553 0 708 0 l 178 0 m 225 43 l 550 43 q 799 100 693 43 q 963 257 906 157 q 1021 486 1021 357 q 963 715 1021 615 q 799 872 906 815 q 550 929 693 929 l 225 929 l 225 43 z "},"E":{"ha":928,"x_min":178,"x_max":835,"o":"m 217 515 l 753 515 l 753 472 l 217 472 l 217 515 m 225 43 l 835 43 l 835 0 l 178 0 l 178 972 l 815 972 l 815 929 l 225 929 l 225 43 z "},"F":{"ha":875,"x_min":178,"x_max":815,"o":"m 217 485 l 753 485 l 753 443 l 217 443 l 217 485 m 225 0 l 178 0 l 178 972 l 815 972 l 815 929 l 225 929 l 225 0 z "},"G":{"ha":1075,"x_min":79,"x_max":926,"o":"m 585 -6 q 384 31 476 -6 q 223 135 292 68 q 117 291 154 201 q 79 486 79 381 q 117 681 79 592 q 223 838 154 771 q 384 941 292 904 q 585 978 476 978 q 775 946 686 978 q 926 850 864 914 l 899 818 q 754 908 832 882 q 586 935 676 935 q 403 901 488 935 q 257 806 319 867 q 160 663 194 744 q 126 486 126 582 q 160 309 126 390 q 257 167 194 228 q 403 72 319 106 q 586 38 488 38 q 755 65 675 38 q 897 154 835 92 l 925 119 q 772 26 861 57 q 585 -6 683 -6 m 881 122 l 881 479 l 925 479 l 925 119 l 881 122 z "},"H":{"ha":1132,"x_min":178,"x_max":954,"o":"m 907 972 l 954 972 l 954 0 l 907 0 l 907 972 m 225 0 l 178 0 l 178 972 l 225 972 l 225 0 m 915 472 l 217 472 l 217 515 l 915 515 l 915 472 z "},"I":{"ha":403,"x_min":178,"x_max":225,"o":"m 178 0 l 178 972 l 225 972 l 225 0 l 178 0 z "},"J":{"ha":671,"x_min":3,"x_max":501,"o":"m 251 -6 q 109 31 175 -6 q 3 132 43 68 l 32 163 q 129 70 72 103 q 253 38 186 38 q 454 278 454 38 l 454 929 l 93 929 l 93 972 l 501 972 l 501 276 q 439 65 501 136 q 251 -6 376 -6 z "},"K":{"ha":968,"x_min":178,"x_max":950,"o":"m 218 250 l 217 310 l 861 972 l 919 972 l 485 524 l 457 496 l 218 250 m 178 0 l 178 972 l 225 972 l 225 0 l 178 0 m 892 0 l 440 514 l 472 546 l 950 0 l 892 0 z "},"L":{"ha":808,"x_min":178,"x_max":794,"o":"m 178 0 l 178 972 l 225 972 l 225 43 l 794 43 l 794 0 l 178 0 z "},"M":{"ha":1328,"x_min":178,"x_max":1150,"o":"m 178 0 l 178 972 l 217 972 l 675 176 l 654 176 l 1110 972 l 1149 972 l 1150 0 l 1104 0 l 1103 903 l 1118 903 l 676 135 l 651 135 l 207 903 l 224 903 l 224 0 l 178 0 z "},"N":{"ha":1132,"x_min":178,"x_max":954,"o":"m 178 0 l 178 972 l 217 972 l 931 56 l 907 56 l 907 972 l 954 972 l 954 0 l 915 0 l 201 917 l 225 917 l 225 0 l 178 0 z "},"O":{"ha":1163,"x_min":79,"x_max":1083,"o":"m 581 -6 q 382 31 474 -6 q 222 135 290 68 q 117 291 154 201 q 79 486 79 381 q 117 681 79 592 q 222 838 154 771 q 382 941 290 904 q 581 978 474 978 q 781 941 689 978 q 940 838 872 904 q 1045 681 1007 771 q 1083 486 1083 592 q 1045 291 1083 381 q 940 135 1007 201 q 781 31 872 68 q 581 -6 689 -6 m 581 38 q 761 71 678 38 q 906 165 844 104 q 1002 308 968 226 q 1036 486 1036 389 q 1002 665 1036 583 q 906 807 968 746 q 761 901 844 868 q 581 935 678 935 q 401 901 485 935 q 256 807 318 868 q 160 665 194 746 q 126 486 126 583 q 160 308 126 389 q 256 165 194 226 q 401 71 318 104 q 581 38 485 38 z "},"P":{"ha":989,"x_min":178,"x_max":901,"o":"m 178 0 l 178 972 l 515 972 q 723 933 636 972 q 856 823 810 894 q 901 650 901 751 q 856 476 901 549 q 723 365 810 404 q 515 326 636 326 l 204 326 l 225 349 l 225 0 l 178 0 m 225 349 l 204 369 l 518 369 q 769 443 682 369 q 856 650 856 517 q 769 856 856 783 q 518 929 682 929 l 204 929 l 225 951 l 225 349 z "},"Q":{"ha":1163,"x_min":79,"x_max":1125,"o":"m 581 -6 q 382 31 474 -6 q 222 135 290 68 q 117 291 154 201 q 79 486 79 381 q 117 681 79 592 q 222 838 154 771 q 382 941 290 904 q 581 978 474 978 q 781 941 689 978 q 940 838 872 904 q 1045 681 1007 771 q 1083 486 1083 592 q 1045 291 1083 381 q 940 135 1007 201 q 781 31 872 68 q 581 -6 689 -6 m 900 -178 q 824 -167 861 -178 q 747 -133 786 -156 q 666 -77 707 -111 q 579 6 625 -43 l 635 18 q 726 -68 681 -33 q 815 -119 771 -103 q 901 -136 858 -136 q 1099 -40 1018 -136 l 1125 -71 q 900 -178 1038 -178 m 581 38 q 761 72 678 38 q 906 167 844 106 q 1002 309 968 228 q 1036 486 1036 390 q 1002 663 1036 582 q 906 806 968 744 q 761 901 844 867 q 581 935 678 935 q 401 901 485 935 q 256 806 318 867 q 160 663 194 744 q 126 486 126 582 q 160 309 126 390 q 256 167 194 228 q 401 72 318 106 q 581 38 485 38 z "},"R":{"ha":997,"x_min":178,"x_max":917,"o":"m 178 0 l 178 972 l 515 972 q 723 933 636 972 q 856 823 810 894 q 901 650 901 751 q 856 476 901 549 q 723 365 810 404 q 515 326 636 326 l 204 326 l 225 349 l 225 0 l 178 0 m 861 0 l 608 353 l 663 353 l 917 0 l 861 0 m 225 349 l 204 369 l 518 369 q 769 443 682 369 q 856 650 856 517 q 769 856 856 783 q 518 929 682 929 l 204 929 l 225 951 l 225 349 z "},"S":{"ha":839,"x_min":76,"x_max":763,"o":"m 424 -6 q 222 33 317 -6 q 76 129 126 71 l 101 163 q 235 73 149 110 q 422 36 322 36 q 589 64 524 36 q 685 138 654 92 q 717 242 717 185 q 683 349 717 308 q 595 413 650 389 q 476 451 540 436 q 345 484 411 467 q 224 528 279 501 q 137 603 169 556 q 104 728 104 651 q 139 850 104 793 q 247 942 174 907 q 436 978 321 978 q 592 953 515 978 q 724 889 669 929 l 703 851 q 574 915 644 894 q 438 936 503 936 q 276 908 340 936 q 181 832 211 879 q 150 728 150 785 q 183 619 150 660 q 272 556 217 579 q 392 517 326 532 q 522 484 457 501 q 642 439 588 467 q 730 365 697 411 q 763 243 763 318 q 727 121 763 178 q 616 29 692 64 q 424 -6 540 -6 z "},"T":{"ha":771,"x_min":6,"x_max":765,"o":"m 363 0 l 363 929 l 6 929 l 6 972 l 765 972 l 765 929 l 408 929 l 408 0 l 363 0 z "},"U":{"ha":1101,"x_min":169,"x_max":932,"o":"m 551 -6 q 272 99 374 -6 q 169 410 169 203 l 169 972 l 217 972 l 217 411 q 304 130 217 222 q 551 38 392 38 q 799 130 711 38 q 886 411 886 222 l 886 972 l 932 972 l 932 410 q 830 99 932 203 q 551 -6 728 -6 z "},"V":{"ha":940,"x_min":11,"x_max":929,"o":"m 447 0 l 11 972 l 64 972 l 485 32 l 458 32 l 879 972 l 929 972 l 493 0 l 447 0 z "},"W":{"ha":1511,"x_min":60,"x_max":1451,"o":"m 392 0 l 60 972 l 110 972 l 429 32 l 404 32 l 733 972 l 779 972 l 1107 32 l 1083 32 l 1404 972 l 1451 972 l 1119 0 l 1072 0 l 750 922 l 761 922 l 440 0 l 392 0 z "},"X":{"ha":875,"x_min":32,"x_max":843,"o":"m 32 0 l 422 521 l 422 483 l 58 972 l 114 972 l 447 525 l 429 525 l 763 972 l 815 972 l 456 490 l 456 515 l 843 0 l 788 0 l 428 481 l 446 481 l 86 0 l 32 0 z "},"Y":{"ha":856,"x_min":11,"x_max":846,"o":"m 404 0 l 404 346 l 415 314 l 11 972 l 63 972 l 440 358 l 417 358 l 796 972 l 846 972 l 440 314 l 451 346 l 451 0 l 404 0 z "},"Z":{"ha":892,"x_min":68,"x_max":840,"o":"m 68 0 l 68 33 l 775 947 l 779 929 l 75 929 l 75 972 l 825 972 l 825 939 l 118 25 l 115 43 l 840 43 l 840 0 l 68 0 z "},"[":{"ha":411,"x_min":178,"x_max":378,"o":"m 178 -269 l 178 1031 l 378 1031 l 378 990 l 224 990 l 224 -229 l 378 -229 l 378 -269 l 178 -269 z "},"\\":{"ha":429,"x_min":-43,"x_max":458,"o":"m 458 -139 l 415 -139 l -43 1169 l 0 1169 l 458 -139 z "},"]":{"ha":411,"x_min":33,"x_max":232,"o":"m 232 -269 l 33 -269 l 33 -229 l 186 -229 l 186 990 l 33 990 l 33 1031 l 232 1031 l 232 -269 z "},"^":{"ha":786,"x_min":132,"x_max":654,"o":"m 132 201 l 371 771 l 415 771 l 654 201 l 610 201 l 383 750 l 403 750 l 175 201 l 132 201 z "},"_":{"ha":694,"x_min":0,"x_max":694,"o":"m 0 -36 l 0 0 l 694 0 l 694 -36 l 0 -36 z "},"`":{"ha":833,"x_min":218,"x_max":486,"o":"m 431 843 l 218 1000 l 293 1000 l 486 843 l 431 843 z "},"a":{"ha":803,"x_min":86,"x_max":657,"o":"m 613 0 l 613 168 l 611 193 l 611 467 q 554 629 611 574 q 389 685 497 685 q 244 658 310 685 q 132 588 179 631 l 107 621 q 233 698 158 669 q 390 726 308 726 q 588 660 519 726 q 657 467 657 594 l 657 0 l 613 0 m 344 -4 q 205 21 263 -4 q 117 92 147 46 q 86 199 86 139 q 111 297 86 251 q 194 369 136 342 q 349 396 251 396 l 628 396 l 628 358 l 349 358 q 181 314 231 358 q 132 201 132 269 q 189 80 132 125 q 347 35 246 35 q 513 80 447 35 q 611 208 578 125 l 626 178 q 526 46 599 96 q 344 -4 454 -4 z "},"b":{"ha":935,"x_min":154,"x_max":863,"o":"m 510 -4 q 335 41 413 -4 q 212 169 257 86 q 167 361 167 253 q 212 553 167 471 q 335 681 257 635 q 510 726 413 726 q 690 679 610 726 q 816 551 769 632 q 863 361 863 469 q 816 172 863 254 q 690 42 769 89 q 510 -4 610 -4 m 154 0 l 154 1031 l 200 1031 l 200 472 l 186 363 l 199 253 l 199 0 l 154 0 m 508 38 q 666 78 596 38 q 776 193 736 119 q 817 361 817 267 q 776 530 817 457 q 666 643 736 603 q 508 683 596 683 q 350 643 419 683 q 240 530 281 603 q 200 361 200 457 q 240 193 200 267 q 350 78 281 119 q 508 38 419 38 z "},"c":{"ha":763,"x_min":72,"x_max":697,"o":"m 431 -4 q 247 42 328 -4 q 119 172 165 89 q 72 361 72 254 q 119 551 72 468 q 247 680 165 633 q 431 726 328 726 q 582 695 513 726 q 697 603 651 664 l 663 574 q 562 657 622 631 q 431 683 501 683 q 271 643 342 683 q 159 530 200 603 q 118 361 118 457 q 159 192 118 265 q 271 78 200 119 q 431 38 342 38 q 562 65 501 38 q 663 147 622 92 l 697 119 q 582 26 651 57 q 431 -4 513 -4 z "},"d":{"ha":935,"x_min":72,"x_max":781,"o":"m 425 -4 q 245 42 325 -4 q 119 172 165 89 q 72 361 72 254 q 119 551 72 469 q 245 679 165 632 q 425 726 325 726 q 600 681 522 726 q 723 553 678 635 q 768 361 768 471 q 723 169 768 253 q 600 41 678 86 q 425 -4 522 -4 m 426 38 q 585 78 515 38 q 694 193 654 119 q 735 361 735 267 q 694 530 735 457 q 585 643 654 603 q 426 683 515 683 q 269 643 339 683 q 159 530 200 603 q 118 361 118 457 q 159 193 118 267 q 269 78 200 119 q 426 38 339 38 m 736 0 l 736 253 l 749 363 l 735 472 l 735 1031 l 781 1031 l 781 0 l 736 0 z "},"e":{"ha":821,"x_min":72,"x_max":749,"o":"m 438 -4 q 249 42 331 -4 q 119 172 167 89 q 72 361 72 256 q 116 550 72 468 q 237 679 160 632 q 411 726 314 726 q 584 681 507 726 q 705 553 661 635 q 749 367 749 472 q 749 360 749 364 q 749 354 749 357 l 103 354 l 103 392 l 724 392 l 706 369 q 667 531 706 460 q 563 644 629 603 q 411 685 496 685 q 260 644 326 685 q 155 531 193 603 q 117 368 117 460 l 117 360 q 158 192 117 265 q 272 78 200 119 q 438 38 344 38 q 572 64 508 38 q 676 144 635 90 l 706 114 q 587 26 657 56 q 438 -4 517 -4 z "},"f":{"ha":442,"x_min":31,"x_max":494,"o":"m 167 0 l 167 849 q 215 984 167 933 q 351 1035 263 1035 q 430 1023 392 1035 q 494 986 468 1011 l 471 951 q 418 984 449 974 q 354 994 388 994 q 249 956 285 994 q 213 843 213 917 l 213 711 l 213 689 l 213 0 l 167 0 m 31 681 l 31 721 l 450 721 l 450 681 l 31 681 z "},"g":{"ha":943,"x_min":72,"x_max":789,"o":"m 449 -274 q 265 -242 351 -274 q 125 -157 178 -211 l 151 -122 q 283 -203 207 -175 q 447 -232 360 -232 q 671 -160 599 -232 q 743 64 743 -89 l 743 282 l 757 376 l 744 471 l 744 721 l 789 721 l 789 69 q 704 -190 789 -107 q 449 -274 619 -274 m 429 25 q 247 70 328 25 q 119 194 167 115 q 72 376 72 274 q 119 558 72 479 q 247 682 167 638 q 429 726 328 726 q 607 683 529 726 q 731 560 685 639 q 776 376 776 482 q 731 192 776 271 q 607 69 685 113 q 429 25 529 25 m 431 67 q 592 106 522 67 q 703 215 663 144 q 743 376 743 286 q 703 537 743 468 q 592 644 663 606 q 431 683 522 683 q 271 644 342 683 q 159 537 200 606 q 118 376 118 468 q 159 215 118 286 q 271 106 200 144 q 431 67 342 67 z "},"h":{"ha":931,"x_min":154,"x_max":785,"o":"m 494 726 q 648 692 583 726 q 749 590 713 657 q 785 424 785 522 l 785 0 l 739 0 l 739 421 q 674 617 739 550 q 490 683 608 683 q 335 647 400 683 q 235 544 269 611 q 200 389 200 478 l 200 0 l 154 0 l 154 1031 l 200 1031 l 200 518 l 193 531 q 303 674 226 621 q 494 726 381 726 z "},"i":{"ha":354,"x_min":131,"x_max":222,"o":"m 154 0 l 154 721 l 200 721 l 200 0 l 154 0 m 176 910 q 144 924 158 910 q 131 954 131 938 q 144 987 131 974 q 176 1000 158 1000 q 209 987 196 1000 q 222 956 222 974 q 209 924 222 938 q 176 910 196 910 z "},"j":{"ha":361,"x_min":-121,"x_max":229,"o":"m 26 -274 q -56 -262 -17 -274 q -121 -224 -96 -250 l -97 -190 q 24 -233 -51 -233 q 126 -194 90 -233 q 161 -81 161 -156 l 161 721 l 207 721 l 207 -86 q 160 -222 207 -171 q 26 -274 114 -274 m 183 910 q 151 924 165 910 q 138 954 138 938 q 151 987 138 974 q 183 1000 165 1000 q 216 987 203 1000 q 229 956 229 974 q 216 924 229 938 q 183 910 203 910 z "},"k":{"ha":803,"x_min":154,"x_max":782,"o":"m 188 208 l 188 264 l 689 721 l 750 721 l 435 429 l 404 406 l 188 208 m 154 0 l 154 1031 l 200 1031 l 200 0 l 154 0 m 724 0 l 396 411 l 429 443 l 782 0 l 724 0 z "},"l":{"ha":354,"x_min":154,"x_max":200,"o":"m 154 0 l 154 1031 l 200 1031 l 200 0 l 154 0 z "},"m":{"ha":1481,"x_min":154,"x_max":1335,"o":"m 1051 726 q 1202 692 1139 726 q 1300 590 1265 657 q 1335 424 1335 522 l 1335 0 l 1289 0 l 1289 421 q 1226 617 1289 550 q 1049 683 1163 683 q 899 647 963 683 q 801 544 835 611 q 767 389 767 478 l 767 0 l 721 0 l 721 421 q 658 617 721 550 q 482 683 596 683 q 331 647 394 683 q 234 544 268 611 q 200 389 200 478 l 200 0 l 154 0 l 154 721 l 199 721 l 199 519 l 193 532 q 300 674 225 621 q 485 726 375 726 q 669 671 596 726 q 760 504 742 615 l 747 510 q 854 666 775 606 q 1051 726 933 726 z "},"n":{"ha":931,"x_min":154,"x_max":785,"o":"m 494 726 q 648 692 583 726 q 749 590 713 657 q 785 424 785 522 l 785 0 l 739 0 l 739 421 q 674 617 739 550 q 490 683 608 683 q 335 647 400 683 q 235 544 269 611 q 200 389 200 478 l 200 0 l 154 0 l 154 721 l 199 721 l 199 518 l 193 531 q 303 674 226 621 q 494 726 381 726 z "},"o":{"ha":853,"x_min":72,"x_max":781,"o":"m 426 -4 q 245 42 325 -4 q 119 172 165 89 q 72 361 72 256 q 119 550 72 468 q 245 679 165 632 q 426 726 325 726 q 608 679 528 726 q 735 550 689 632 q 781 361 781 468 q 735 172 781 256 q 608 42 689 89 q 426 -4 528 -4 m 426 38 q 585 78 515 38 q 695 193 656 119 q 735 361 735 267 q 695 530 735 457 q 585 643 656 603 q 426 683 515 683 q 269 643 339 683 q 159 530 200 603 q 118 361 118 457 q 159 193 118 267 q 269 78 200 119 q 426 38 339 38 z "},"p":{"ha":935,"x_min":154,"x_max":863,"o":"m 510 -4 q 335 41 413 -4 q 212 169 257 86 q 167 360 167 251 q 212 552 167 469 q 335 681 257 635 q 510 726 413 726 q 690 679 610 726 q 816 550 769 632 q 863 360 863 468 q 816 171 863 253 q 690 42 769 89 q 510 -4 610 -4 m 154 -269 l 154 721 l 199 721 l 199 468 l 186 358 l 200 249 l 200 -269 l 154 -269 m 508 38 q 666 78 596 38 q 776 192 736 118 q 817 360 817 265 q 776 529 817 457 q 666 642 736 601 q 508 683 596 683 q 350 642 419 683 q 240 529 281 601 q 200 360 200 457 q 240 192 200 265 q 350 78 281 118 q 508 38 419 38 z "},"q":{"ha":935,"x_min":72,"x_max":781,"o":"m 425 -4 q 245 42 325 -4 q 119 171 165 89 q 72 360 72 253 q 119 550 72 468 q 245 679 165 632 q 425 726 325 726 q 600 681 522 726 q 723 552 678 635 q 768 360 768 469 q 723 169 768 251 q 600 41 678 86 q 425 -4 522 -4 m 426 38 q 585 78 515 38 q 694 192 654 118 q 735 360 735 265 q 694 529 735 457 q 585 642 654 601 q 426 683 515 683 q 269 642 339 683 q 159 529 200 601 q 118 360 118 457 q 159 192 118 265 q 269 78 200 118 q 426 38 339 38 m 735 -269 l 735 249 l 749 358 l 736 468 l 736 721 l 781 721 l 781 -269 l 735 -269 z "},"r":{"ha":539,"x_min":154,"x_max":479,"o":"m 154 0 l 154 721 l 199 721 l 199 522 l 194 535 q 297 676 224 625 q 479 726 369 726 l 479 681 q 473 681 476 681 q 467 681 469 681 q 271 601 342 681 q 200 383 200 522 l 200 0 l 154 0 z "},"s":{"ha":653,"x_min":43,"x_max":603,"o":"m 328 -4 q 161 23 239 -4 q 43 92 83 50 l 65 128 q 175 64 106 92 q 329 36 244 36 q 503 78 450 36 q 557 186 557 119 q 531 263 557 235 q 461 306 504 290 q 366 330 418 321 q 261 351 314 339 q 165 383 208 363 q 96 439 122 403 q 69 535 69 475 q 98 629 69 586 q 185 699 126 672 q 333 726 243 726 q 467 706 400 726 q 575 653 535 686 l 551 617 q 451 668 508 651 q 332 685 393 685 q 168 642 219 685 q 117 536 117 599 q 143 456 117 486 q 213 411 169 426 q 308 386 256 396 q 412 365 360 376 q 507 335 464 354 q 576 281 550 315 q 603 186 603 246 q 572 87 603 131 q 480 19 540 43 q 328 -4 419 -4 z "},"t":{"ha":544,"x_min":31,"x_max":494,"o":"m 350 -4 q 214 46 261 -4 q 167 181 167 96 l 167 879 l 213 879 l 213 188 q 249 75 213 114 q 354 36 285 36 q 471 79 425 36 l 494 46 q 429 8 468 21 q 350 -4 390 -4 m 31 681 l 31 721 l 450 721 l 450 681 l 31 681 z "},"u":{"ha":925,"x_min":146,"x_max":771,"o":"m 444 -4 q 285 30 351 -4 q 182 131 218 64 q 146 297 146 199 l 146 721 l 192 721 l 192 300 q 258 104 192 171 q 446 38 325 38 q 595 74 532 38 q 692 178 658 111 q 725 332 725 244 l 725 721 l 771 721 l 771 0 l 726 0 l 726 201 l 732 189 q 626 48 701 100 q 444 -4 551 -4 z "},"v":{"ha":718,"x_min":7,"x_max":711,"o":"m 336 0 l 7 721 l 57 721 l 369 28 l 349 28 l 663 721 l 711 721 l 382 0 l 336 0 z "},"w":{"ha":1178,"x_min":15,"x_max":1163,"o":"m 292 0 l 15 721 l 60 721 l 321 28 l 301 28 l 568 721 l 610 721 l 875 28 l 856 28 l 1118 721 l 1163 721 l 888 0 l 844 0 l 582 678 l 596 678 l 332 0 l 292 0 z "},"x":{"ha":704,"x_min":36,"x_max":669,"o":"m 36 0 l 333 383 l 332 364 l 51 721 l 106 721 l 361 393 l 342 393 l 596 721 l 649 721 l 367 358 l 368 385 l 669 0 l 613 0 l 343 350 l 358 349 l 90 0 l 36 0 z "},"y":{"ha":718,"x_min":-40,"x_max":711,"o":"m 121 -274 q 31 -258 72 -274 q -40 -210 -11 -242 l -14 -174 q 47 -219 15 -204 q 121 -233 79 -233 q 214 -204 174 -233 q 289 -97 254 -175 l 342 17 l 349 28 l 663 721 l 711 721 l 333 -108 q 273 -206 306 -169 q 203 -258 240 -243 q 121 -274 165 -274 m 343 -17 l 7 721 l 57 721 l 369 31 l 343 -17 z "},"z":{"ha":689,"x_min":63,"x_max":625,"o":"m 63 0 l 63 32 l 568 696 l 582 681 l 69 681 l 69 721 l 618 721 l 618 689 l 111 26 l 93 40 l 625 40 l 625 0 l 63 0 z "},"{":{"ha":429,"x_min":89,"x_max":396,"o":"m 357 -269 q 240 -232 279 -269 q 200 -117 200 -194 l 200 288 q 183 344 200 326 q 138 361 167 361 l 89 361 l 89 401 l 138 401 q 183 418 167 401 q 200 474 200 435 l 200 878 q 240 994 200 957 q 357 1031 279 1031 l 396 1031 l 396 990 l 353 990 q 272 960 297 990 q 246 876 246 931 l 246 474 q 239 424 246 443 q 219 394 232 404 q 183 376 206 383 l 183 385 q 219 368 206 379 q 239 338 232 357 q 246 288 246 318 l 246 -115 q 272 -199 246 -169 q 353 -229 297 -229 l 396 -229 l 396 -269 l 357 -269 z "},"|":{"ha":400,"x_min":178,"x_max":222,"o":"m 178 -269 l 178 1031 l 222 1031 l 222 -269 l 178 -269 z "},"}":{"ha":429,"x_min":33,"x_max":340,"o":"m 72 -269 l 33 -269 l 33 -229 l 76 -229 q 158 -199 132 -229 q 183 -115 183 -169 l 183 288 q 190 338 183 318 q 211 368 197 357 q 246 385 225 379 l 246 376 q 211 394 225 383 q 190 424 197 404 q 183 474 183 443 l 183 876 q 158 960 183 931 q 76 990 132 990 l 33 990 l 33 1031 l 72 1031 q 190 994 150 1031 q 229 878 229 957 l 229 474 q 245 418 229 435 q 292 401 261 401 l 340 401 l 340 361 l 292 361 q 245 344 261 361 q 229 288 229 326 l 229 -117 q 190 -232 229 -194 q 72 -269 150 -269 z "},"~":{"ha":783,"x_min":93,"x_max":690,"o":"m 533 392 q 448 415 483 392 q 383 467 413 438 q 323 519 354 497 q 251 542 292 542 q 164 503 196 542 q 129 397 132 464 l 93 397 q 140 533 97 485 q 250 581 183 581 q 335 558 300 581 q 400 505 371 535 q 460 453 429 475 q 532 431 490 431 q 619 469 588 431 q 654 575 651 508 l 690 575 q 643 440 686 489 q 533 392 600 392 z "}," ":{"ha":351,"x_min":0,"x_max":0,"o":""},"¡":{"ha":342,"x_min":126,"x_max":217,"o":"m 189 453 l 197 -214 l 146 -214 l 154 453 l 189 453 m 171 726 q 203 713 190 726 q 217 681 217 700 q 203 649 217 663 q 171 636 190 636 q 140 649 153 636 q 126 681 126 663 q 140 713 126 700 q 171 726 153 726 z "},"¢":{"ha":763,"x_min":72,"x_max":697,"o":"m 404 -167 l 404 888 l 442 888 l 442 -167 l 404 -167 m 431 -4 q 247 42 328 -4 q 119 172 165 89 q 72 361 72 254 q 119 551 72 468 q 247 680 165 633 q 431 726 328 726 q 582 695 513 726 q 697 603 651 664 l 663 574 q 562 657 622 631 q 431 683 501 683 q 271 643 342 683 q 159 530 200 603 q 118 361 118 457 q 159 192 118 265 q 271 78 200 119 q 431 38 342 38 q 562 65 501 38 q 663 147 622 92 l 697 119 q 582 26 651 57 q 431 -4 513 -4 z "},"£":{"ha":865,"x_min":42,"x_max":840,"o":"m 206 15 l 206 661 q 244 826 206 756 q 362 938 283 897 q 558 978 440 978 q 713 958 642 978 q 840 896 785 939 l 818 857 q 699 917 765 899 q 556 935 632 935 q 326 861 400 935 q 253 658 253 788 l 253 15 l 206 15 m 42 0 l 42 43 l 825 43 l 825 0 l 42 0 m 42 468 l 42 504 l 660 504 l 660 468 l 42 468 z "},"¤":{"ha":972,"x_min":53,"x_max":919,"o":"m 218 679 l 53 846 l 82 875 l 249 708 l 218 679 m 82 7 l 53 36 l 218 203 l 249 174 l 82 7 m 890 7 l 724 174 l 754 203 l 919 36 l 890 7 m 754 679 l 724 708 l 890 875 l 919 846 l 754 679 m 486 67 q 336 95 406 67 q 213 176 267 124 q 130 296 160 228 q 100 439 100 364 q 130 585 100 517 q 213 706 160 654 q 336 787 267 757 q 486 817 406 817 q 638 787 568 817 q 762 706 708 757 q 846 585 815 654 q 876 439 876 517 q 846 296 876 364 q 762 176 815 228 q 638 95 708 124 q 486 67 568 67 m 486 108 q 662 153 583 108 q 788 274 740 199 q 835 439 835 349 q 788 608 835 532 q 662 729 740 683 q 486 775 583 775 q 313 729 392 775 q 188 608 235 683 q 142 439 142 532 q 188 274 142 349 q 313 153 235 199 q 486 108 392 108 z "},"¥":{"ha":939,"x_min":11,"x_max":929,"o":"m 446 0 l 446 421 l 457 388 l 11 972 l 63 972 l 482 428 l 458 428 l 878 972 l 929 972 l 482 388 l 493 421 l 493 0 l 446 0 m 119 208 l 119 243 l 819 243 l 819 208 l 119 208 m 119 400 l 119 435 l 819 435 l 819 400 l 119 400 z "},"¦":{"ha":400,"x_min":178,"x_max":222,"o":"m 178 544 l 178 1031 l 222 1031 l 222 544 l 178 544 m 178 -269 l 178 217 l 222 217 l 222 -269 l 178 -269 z "},"§":{"ha":661,"x_min":43,"x_max":613,"o":"m 447 206 l 401 232 q 516 283 468 242 q 564 394 564 324 q 538 478 564 447 q 471 528 513 510 q 379 560 429 547 q 279 588 329 574 q 188 622 229 601 q 120 680 146 643 q 94 776 94 717 q 127 885 94 840 q 222 953 160 929 q 371 976 283 976 q 460 968 415 976 q 544 943 506 960 q 613 904 583 926 l 590 868 q 489 920 547 903 q 369 938 431 938 q 198 897 258 938 q 138 776 138 857 q 163 694 138 725 q 230 647 189 664 q 322 616 271 629 q 422 590 372 603 q 514 553 472 576 q 581 493 556 531 q 606 394 606 456 q 560 273 606 322 q 447 206 515 224 m 313 -143 q 209 -131 261 -143 q 114 -97 157 -119 q 43 -47 71 -74 l 64 -11 q 172 -76 104 -49 q 314 -104 239 -104 q 473 -64 417 -104 q 529 57 529 -24 q 504 139 529 108 q 438 188 479 169 q 346 218 396 206 q 245 244 296 231 q 153 280 194 257 q 87 340 113 303 q 61 438 61 378 q 107 561 61 513 q 219 626 153 610 l 263 600 q 149 549 196 590 q 103 439 103 508 q 128 356 103 388 q 197 304 154 324 q 289 272 239 285 q 388 246 339 260 q 480 210 438 232 q 548 152 522 189 q 574 54 574 115 q 541 -52 574 -7 q 451 -120 508 -97 q 313 -143 393 -143 z "},"¨":{"ha":833,"x_min":258,"x_max":575,"o":"m 533 886 q 504 899 517 886 q 492 928 492 911 q 504 958 492 946 q 533 971 517 971 q 563 958 551 971 q 575 928 575 946 q 563 899 575 911 q 533 886 551 886 m 300 886 q 271 899 283 886 q 258 928 258 911 q 271 958 258 946 q 300 971 283 971 q 330 958 318 971 q 342 928 342 946 q 330 899 342 911 q 300 886 318 886 z "},"©":{"ha":1139,"x_min":79,"x_max":1060,"o":"m 568 -4 q 375 33 464 -4 q 219 138 286 71 q 116 294 153 206 q 79 486 79 383 q 117 678 79 589 q 221 834 154 767 q 377 939 288 901 q 571 976 467 976 q 765 940 675 976 q 920 836 854 903 q 1023 681 986 769 q 1060 489 1060 593 q 1022 295 1060 385 q 917 138 985 206 q 761 33 850 71 q 568 -4 672 -4 m 568 28 q 749 64 665 28 q 894 163 832 100 q 992 309 957 225 q 1026 489 1026 393 q 992 669 1026 586 q 897 813 958 751 q 751 910 835 875 q 571 944 668 944 q 390 909 474 944 q 244 810 307 874 q 147 665 182 747 q 113 486 113 582 q 147 307 113 390 q 244 161 182 224 q 389 63 306 99 q 568 28 472 28 m 581 194 q 433 232 497 194 q 331 335 368 269 q 294 486 294 400 q 331 638 294 572 q 433 740 368 703 q 581 778 497 778 q 700 753 644 778 q 792 681 756 729 l 761 653 q 681 719 729 697 q 579 740 633 740 q 453 708 508 740 q 367 619 399 676 q 335 486 335 561 q 367 353 335 411 q 453 264 399 296 q 579 232 508 232 q 681 253 633 232 q 761 319 729 275 l 792 292 q 700 219 756 244 q 581 194 644 194 z "},"ª":{"ha":550,"x_min":65,"x_max":440,"o":"m 403 601 l 403 700 l 400 714 l 400 876 q 365 970 400 939 q 261 1001 331 1001 q 169 986 211 1001 q 97 946 126 971 l 79 972 q 162 1017 113 1000 q 263 1035 211 1035 q 394 994 347 1035 q 440 875 440 954 l 440 601 l 403 601 m 231 599 q 108 633 151 599 q 65 721 65 667 q 104 803 65 769 q 236 838 143 838 l 413 838 l 413 811 l 239 811 q 134 786 165 811 q 103 722 103 761 q 138 653 103 679 q 238 628 174 628 q 340 653 300 628 q 400 726 379 679 l 411 704 q 347 628 393 657 q 231 599 301 599 z "},"«":{"ha":607,"x_min":78,"x_max":547,"o":"m 281 103 l 78 361 l 281 619 l 329 619 l 126 361 l 329 103 l 281 103 m 499 103 l 296 361 l 499 619 l 547 619 l 344 361 l 547 103 l 499 103 z "},"¬":{"ha":783,"x_min":103,"x_max":681,"o":"m 681 506 l 681 215 l 638 215 l 638 465 l 103 465 l 103 506 l 681 506 z "},"­":{"ha":529,"x_min":89,"x_max":440,"o":"m 89 349 l 89 390 l 440 390 l 440 349 l 89 349 z "},"®":{"ha":1139,"x_min":79,"x_max":1060,"o":"m 568 -4 q 375 33 464 -4 q 219 138 286 71 q 116 294 153 206 q 79 486 79 383 q 117 678 79 589 q 221 834 154 767 q 377 939 288 901 q 571 976 467 976 q 765 940 675 976 q 920 836 854 903 q 1023 681 986 769 q 1060 489 1060 593 q 1022 295 1060 385 q 917 138 985 206 q 761 33 850 71 q 568 -4 672 -4 m 771 199 l 625 422 l 669 422 l 814 199 l 771 199 m 568 28 q 749 64 665 28 q 894 163 832 100 q 992 309 957 225 q 1026 489 1026 393 q 992 669 1026 586 q 897 813 958 751 q 751 910 835 875 q 571 944 668 944 q 390 909 474 944 q 244 810 307 874 q 147 665 182 747 q 113 486 113 582 q 147 307 113 390 q 244 161 182 224 q 389 63 306 99 q 568 28 472 28 m 388 199 l 388 774 l 599 774 q 755 723 697 774 q 813 588 813 672 q 755 453 813 503 q 599 403 697 403 l 426 403 l 426 199 l 388 199 m 425 438 l 594 438 q 726 477 679 438 q 774 588 774 517 q 726 698 774 658 q 594 738 679 738 l 425 738 l 425 438 z "},"¯":{"ha":833,"x_min":221,"x_max":613,"o":"m 221 903 l 221 940 l 613 940 l 613 903 l 221 903 z "},"°":{"ha":583,"x_min":79,"x_max":503,"o":"m 292 554 q 185 583 233 554 q 108 659 136 611 q 79 765 79 707 q 108 873 79 825 q 185 949 136 921 q 292 978 233 978 q 399 949 351 978 q 475 873 447 921 q 503 765 503 825 q 475 659 503 707 q 399 583 447 611 q 292 554 351 554 m 292 588 q 381 612 342 588 q 444 676 421 636 q 468 765 468 717 q 444 856 468 815 q 381 920 421 896 q 292 944 342 944 q 202 920 242 944 q 139 856 163 896 q 115 765 115 817 q 139 676 115 717 q 202 612 163 636 q 292 588 242 588 z "},"±":{"ha":783,"x_min":103,"x_max":681,"o":"m 103 0 l 103 40 l 681 40 l 681 0 l 103 0 m 369 217 l 369 779 l 413 779 l 413 217 l 369 217 m 103 476 l 103 517 l 681 517 l 681 476 l 103 476 z "},"²":{"ha":597,"x_min":53,"x_max":514,"o":"m 71 454 l 71 481 l 344 725 q 424 813 404 779 q 444 882 444 847 q 402 965 444 931 q 265 999 360 999 q 159 983 207 999 q 79 933 111 967 l 53 956 q 142 1015 89 994 q 267 1035 196 1035 q 431 991 378 1035 q 483 883 483 947 q 461 803 483 842 q 374 706 439 764 l 115 475 l 99 489 l 514 489 l 514 454 l 71 454 z "},"³":{"ha":597,"x_min":54,"x_max":506,"o":"m 282 450 q 144 472 206 450 q 54 528 82 494 l 72 558 q 155 506 100 526 q 282 486 210 486 q 422 522 376 486 q 468 615 468 557 q 422 710 468 675 q 281 746 376 746 l 233 746 l 233 774 l 443 1011 l 449 996 l 61 996 l 61 1031 l 482 1031 l 482 1004 l 272 768 l 260 778 l 285 778 q 450 733 394 778 q 506 615 506 689 q 481 531 506 568 q 406 472 456 493 q 282 450 356 450 z "},"´":{"ha":833,"x_min":347,"x_max":615,"o":"m 347 843 l 540 1000 l 615 1000 l 403 843 l 347 843 z "},"µ":{"ha":933,"x_min":154,"x_max":779,"o":"m 154 -269 l 154 721 l 200 721 l 200 300 q 267 104 200 171 q 454 38 333 38 q 603 74 540 38 q 700 178 667 111 q 733 332 733 244 l 733 721 l 779 721 l 779 0 l 735 0 l 735 210 l 744 203 q 683 90 724 136 q 584 19 642 43 q 456 -4 526 -4 q 292 35 360 -4 q 193 151 225 74 l 200 185 l 200 -269 l 154 -269 z "},"¶":{"ha":844,"x_min":33,"x_max":667,"o":"m 313 -139 l 313 574 q 167 602 229 574 q 69 682 104 631 q 33 803 33 733 q 69 924 33 874 q 168 1003 104 975 q 317 1031 232 1031 l 667 1031 l 667 -139 l 625 -139 l 625 990 l 356 990 l 356 -139 l 313 -139 z "},"·":{"ha":319,"x_min":114,"x_max":206,"o":"m 160 324 q 128 337 142 324 q 114 369 114 350 q 128 402 114 389 q 160 415 142 415 q 192 402 179 415 q 206 369 206 389 q 192 337 206 350 q 160 324 179 324 z "},"¸":{"ha":833,"x_min":286,"x_max":526,"o":"m 392 -299 q 336 -290 363 -299 q 286 -262 310 -281 l 304 -233 q 344 -256 321 -249 q 392 -264 367 -264 q 460 -244 433 -264 q 488 -185 488 -224 q 463 -129 488 -151 q 392 -107 439 -107 l 367 -107 l 399 7 l 433 7 l 410 -76 q 495 -109 464 -79 q 526 -186 526 -139 q 488 -268 526 -237 q 392 -299 450 -299 z "},"¹":{"ha":597,"x_min":122,"x_max":504,"o":"m 342 467 l 321 489 l 504 489 l 504 454 l 122 454 l 122 489 l 325 489 l 304 467 l 304 1014 l 321 996 l 133 996 l 133 1031 l 342 1031 l 342 467 z "},"º":{"ha":568,"x_min":54,"x_max":513,"o":"m 283 599 q 165 626 217 599 q 83 703 113 654 q 54 817 54 753 q 83 929 54 881 q 165 1006 113 978 q 283 1035 217 1035 q 402 1006 350 1035 q 483 929 454 978 q 513 817 513 881 q 483 703 513 753 q 402 626 454 654 q 283 599 350 599 m 283 632 q 421 683 367 632 q 475 817 475 735 q 421 949 475 899 q 283 1000 367 1000 q 147 949 201 1000 q 92 817 92 899 q 147 683 92 735 q 283 632 201 632 z "},"»":{"ha":607,"x_min":60,"x_max":529,"o":"m 107 103 l 60 103 l 261 361 l 60 619 l 107 619 l 311 361 l 107 103 m 325 103 l 278 103 l 479 361 l 278 619 l 325 619 l 529 361 l 325 103 z "},"¼":{"ha":1419,"x_min":122,"x_max":1372,"o":"m 357 0 l 1021 972 l 1064 972 l 400 0 l 357 0 m 869 161 l 869 189 l 1165 576 l 1210 576 l 913 189 l 892 196 l 1372 196 l 1372 161 l 869 161 m 1197 0 l 1197 161 l 1199 196 l 1199 338 l 1236 338 l 1236 0 l 1197 0 z "},"½":{"ha":1419,"x_min":122,"x_max":1336,"o":"m 357 0 l 1021 972 l 1064 972 l 400 0 l 357 0 m 893 0 l 893 26 l 1167 271 q 1247 359 1226 325 q 1267 428 1267 393 q 1224 510 1267 476 q 1088 544 1182 544 q 981 528 1029 544 q 901 479 933 513 l 875 501 q 965 560 911 540 q 1089 581 1018 581 q 1253 537 1200 581 q 1306 429 1306 493 q 1283 349 1306 388 q 1196 251 1261 310 l 938 21 l 921 35 l 1336 35 l 1336 0 l 893 0 z "},"¾":{"ha":1419,"x_min":54,"x_max":1372,"o":"m 357 0 l 1021 972 l 1064 972 l 400 0 l 357 0 m 869 161 l 869 189 l 1165 576 l 1210 576 l 913 189 l 892 196 l 1372 196 l 1372 161 l 869 161 m 1197 0 l 1197 161 l 1199 196 l 1199 338 l 1236 338 l 1236 0 l 1197 0 z "},"¿":{"ha":774,"x_min":119,"x_max":749,"o":"m 422 -219 q 261 -190 329 -219 q 156 -111 193 -161 q 119 4 119 -61 q 138 103 119 61 q 188 176 157 144 q 252 236 218 208 q 317 294 286 264 q 366 361 347 324 q 385 453 385 399 l 432 453 q 413 352 432 393 q 363 279 394 311 q 299 220 332 247 q 235 164 265 193 q 185 97 204 135 q 165 7 165 60 q 232 -124 165 -69 q 424 -178 299 -178 q 594 -149 522 -178 q 715 -61 665 -119 l 749 -89 q 613 -185 694 -151 q 422 -219 532 -219 m 408 636 q 376 649 390 636 q 363 681 363 663 q 376 713 363 700 q 408 726 390 726 q 441 713 428 726 q 454 681 454 700 q 441 649 454 663 q 408 636 428 636 z "},"À":{"ha":967,"x_min":10,"x_max":956,"o":"m 10 0 l 460 972 l 506 972 l 956 0 l 904 0 l 472 940 l 493 940 l 61 0 l 10 0 m 165 285 l 183 325 l 778 325 l 796 285 l 165 285 z "},"Á":{"ha":967,"x_min":10,"x_max":956,"o":"m 10 0 l 460 972 l 506 972 l 956 0 l 904 0 l 472 940 l 493 940 l 61 0 l 10 0 m 165 285 l 183 325 l 778 325 l 796 285 l 165 285 z "},"Â":{"ha":967,"x_min":10,"x_max":956,"o":"m 10 0 l 460 972 l 506 972 l 956 0 l 904 0 l 472 940 l 493 940 l 61 0 l 10 0 m 165 285 l 183 325 l 778 325 l 796 285 l 165 285 z "},"Ã":{"ha":967,"x_min":10,"x_max":956,"o":"m 10 0 l 460 972 l 506 972 l 956 0 l 904 0 l 472 940 l 493 940 l 61 0 l 10 0 m 165 285 l 183 325 l 778 325 l 796 285 l 165 285 z "},"Ä":{"ha":967,"x_min":10,"x_max":956,"o":"m 10 0 l 460 972 l 506 972 l 956 0 l 904 0 l 472 940 l 493 940 l 61 0 l 10 0 m 165 285 l 183 325 l 778 325 l 796 285 l 165 285 z "},"Å":{"ha":967,"x_min":10,"x_max":956,"o":"m 10 0 l 460 972 l 506 972 l 956 0 l 904 0 l 472 940 l 493 940 l 61 0 l 10 0 m 165 285 l 183 325 l 778 325 l 796 285 l 165 285 m 482 1081 q 414 1098 443 1081 q 367 1145 385 1115 q 350 1210 350 1175 q 367 1275 350 1244 q 415 1324 385 1306 q 482 1342 444 1342 q 551 1324 521 1342 q 598 1275 581 1306 q 615 1210 615 1244 q 598 1145 615 1175 q 551 1098 581 1115 q 482 1081 521 1081 m 482 1111 q 554 1140 526 1111 q 582 1210 582 1169 q 553 1280 582 1250 q 482 1310 525 1310 q 412 1281 440 1310 q 383 1210 383 1251 q 411 1140 383 1168 q 482 1111 439 1111 z "},"Æ":{"ha":1406,"x_min":10,"x_max":1313,"o":"m 10 0 l 621 972 l 669 972 l 669 929 l 624 929 l 654 944 l 61 0 l 10 0 m 218 285 l 231 325 l 669 325 l 669 285 l 218 285 m 694 515 l 1231 515 l 1231 472 l 694 472 l 694 515 m 703 43 l 1313 43 l 1313 0 l 656 0 l 656 972 l 1293 972 l 1293 929 l 703 929 l 703 43 z "},"Ç":{"ha":990,"x_min":79,"x_max":918,"o":"m 581 -6 q 382 31 474 -6 q 222 135 290 68 q 117 291 154 201 q 79 486 79 381 q 117 681 79 592 q 222 838 154 771 q 382 941 290 904 q 581 978 474 978 q 767 946 679 978 q 918 849 854 914 l 889 818 q 747 908 824 881 q 582 935 669 935 q 401 901 485 935 q 256 806 318 867 q 160 663 194 744 q 126 486 126 582 q 160 309 126 390 q 256 167 194 228 q 401 72 318 106 q 582 38 485 38 q 747 65 669 38 q 889 156 824 92 l 918 125 q 767 27 854 60 q 581 -6 679 -6 m 540 -299 q 485 -290 511 -299 q 435 -262 458 -281 l 453 -233 q 492 -256 469 -249 q 540 -264 515 -264 q 609 -244 582 -264 q 636 -185 636 -224 q 612 -129 636 -151 q 540 -107 588 -107 l 515 -107 l 547 7 l 582 7 l 558 -76 q 644 -109 613 -79 q 675 -186 675 -139 q 637 -268 675 -237 q 540 -299 599 -299 z "},"È":{"ha":928,"x_min":178,"x_max":835,"o":"m 217 515 l 753 515 l 753 472 l 217 472 l 217 515 m 225 43 l 835 43 l 835 0 l 178 0 l 178 972 l 815 972 l 815 929 l 225 929 l 225 43 z "},"É":{"ha":928,"x_min":178,"x_max":835,"o":"m 217 515 l 753 515 l 753 472 l 217 472 l 217 515 m 225 43 l 835 43 l 835 0 l 178 0 l 178 972 l 815 972 l 815 929 l 225 929 l 225 43 z "},"Ê":{"ha":928,"x_min":178,"x_max":835,"o":"m 217 515 l 753 515 l 753 472 l 217 472 l 217 515 m 225 43 l 835 43 l 835 0 l 178 0 l 178 972 l 815 972 l 815 929 l 225 929 l 225 43 z "},"Ë":{"ha":928,"x_min":178,"x_max":835,"o":"m 217 515 l 753 515 l 753 472 l 217 472 l 217 515 m 225 43 l 835 43 l 835 0 l 178 0 l 178 972 l 815 972 l 815 929 l 225 929 l 225 43 z "},"Ì":{"ha":403,"x_min":3,"x_max":271,"o":"m 178 0 l 178 972 l 225 972 l 225 0 l 178 0 z "},"Í":{"ha":403,"x_min":132,"x_max":400,"o":"m 178 0 l 178 972 l 225 972 l 225 0 l 178 0 z "},"Î":{"ha":403,"x_min":0,"x_max":403,"o":"m 178 0 l 178 972 l 225 972 l 225 0 l 178 0 z "},"Ï":{"ha":403,"x_min":43,"x_max":360,"o":"m 178 0 l 178 972 l 225 972 l 225 0 l 178 0 z "},"Ð":{"ha":1149,"x_min":26,"x_max":1069,"o":"m 179 0 l 179 972 l 554 972 q 825 909 710 972 q 1005 737 940 846 q 1069 486 1069 628 q 1005 235 1069 344 q 825 63 940 126 q 554 0 710 0 l 179 0 m 226 43 l 551 43 q 801 100 694 43 q 965 257 907 157 q 1022 486 1022 357 q 965 715 1022 615 q 801 872 907 815 q 551 929 694 929 l 226 929 l 226 43 m 26 474 l 26 514 l 535 514 l 535 474 l 26 474 z "},"Ñ":{"ha":1132,"x_min":178,"x_max":954,"o":"m 178 0 l 178 972 l 217 972 l 931 56 l 907 56 l 907 972 l 954 972 l 954 0 l 915 0 l 201 917 l 225 917 l 225 0 l 178 0 z "},"Ò":{"ha":1163,"x_min":79,"x_max":1083,"o":"m 581 -6 q 382 31 474 -6 q 222 135 290 68 q 117 291 154 201 q 79 486 79 381 q 117 681 79 592 q 222 838 154 771 q 382 941 290 904 q 581 978 474 978 q 781 941 689 978 q 940 838 872 904 q 1045 681 1007 771 q 1083 486 1083 592 q 1045 291 1083 381 q 940 135 1007 201 q 781 31 872 68 q 581 -6 689 -6 m 581 38 q 761 71 678 38 q 906 165 844 104 q 1002 308 968 226 q 1036 486 1036 389 q 1002 665 1036 583 q 906 807 968 746 q 761 901 844 868 q 581 935 678 935 q 401 901 485 935 q 256 807 318 868 q 160 665 194 746 q 126 486 126 583 q 160 308 126 389 q 256 165 194 226 q 401 71 318 104 q 581 38 485 38 z "},"Ó":{"ha":1163,"x_min":79,"x_max":1083,"o":"m 581 -6 q 382 31 474 -6 q 222 135 290 68 q 117 291 154 201 q 79 486 79 381 q 117 681 79 592 q 222 838 154 771 q 382 941 290 904 q 581 978 474 978 q 781 941 689 978 q 940 838 872 904 q 1045 681 1007 771 q 1083 486 1083 592 q 1045 291 1083 381 q 940 135 1007 201 q 781 31 872 68 q 581 -6 689 -6 m 581 38 q 761 71 678 38 q 906 165 844 104 q 1002 308 968 226 q 1036 486 1036 389 q 1002 665 1036 583 q 906 807 968 746 q 761 901 844 868 q 581 935 678 935 q 401 901 485 935 q 256 807 318 868 q 160 665 194 746 q 126 486 126 583 q 160 308 126 389 q 256 165 194 226 q 401 71 318 104 q 581 38 485 38 z "},"Ô":{"ha":1163,"x_min":79,"x_max":1083,"o":"m 581 -6 q 382 31 474 -6 q 222 135 290 68 q 117 291 154 201 q 79 486 79 381 q 117 681 79 592 q 222 838 154 771 q 382 941 290 904 q 581 978 474 978 q 781 941 689 978 q 940 838 872 904 q 1045 681 1007 771 q 1083 486 1083 592 q 1045 291 1083 381 q 940 135 1007 201 q 781 31 872 68 q 581 -6 689 -6 m 581 38 q 761 71 678 38 q 906 165 844 104 q 1002 308 968 226 q 1036 486 1036 389 q 1002 665 1036 583 q 906 807 968 746 q 761 901 844 868 q 581 935 678 935 q 401 901 485 935 q 256 807 318 868 q 160 665 194 746 q 126 486 126 583 q 160 308 126 389 q 256 165 194 226 q 401 71 318 104 q 581 38 485 38 z "},"Õ":{"ha":1163,"x_min":79,"x_max":1083,"o":"m 581 -6 q 382 31 474 -6 q 222 135 290 68 q 117 291 154 201 q 79 486 79 381 q 117 681 79 592 q 222 838 154 771 q 382 941 290 904 q 581 978 474 978 q 781 941 689 978 q 940 838 872 904 q 1045 681 1007 771 q 1083 486 1083 592 q 1045 291 1083 381 q 940 135 1007 201 q 781 31 872 68 q 581 -6 689 -6 m 581 38 q 761 71 678 38 q 906 165 844 104 q 1002 308 968 226 q 1036 486 1036 389 q 1002 665 1036 583 q 906 807 968 746 q 761 901 844 868 q 581 935 678 935 q 401 901 485 935 q 256 807 318 868 q 160 665 194 746 q 126 486 126 583 q 160 308 126 389 q 256 165 194 226 q 401 71 318 104 q 581 38 485 38 z "},"Ö":{"ha":1163,"x_min":79,"x_max":1083,"o":"m 581 -6 q 382 31 474 -6 q 222 135 290 68 q 117 291 154 201 q 79 486 79 381 q 117 681 79 592 q 222 838 154 771 q 382 941 290 904 q 581 978 474 978 q 781 941 689 978 q 940 838 872 904 q 1045 681 1007 771 q 1083 486 1083 592 q 1045 291 1083 381 q 940 135 1007 201 q 781 31 872 68 q 581 -6 689 -6 m 581 38 q 761 71 678 38 q 906 165 844 104 q 1002 308 968 226 q 1036 486 1036 389 q 1002 665 1036 583 q 906 807 968 746 q 761 901 844 868 q 581 935 678 935 q 401 901 485 935 q 256 807 318 868 q 160 665 194 746 q 126 486 126 583 q 160 308 126 389 q 256 165 194 226 q 401 71 318 104 q 581 38 485 38 z "},"×":{"ha":783,"x_min":172,"x_max":611,"o":"m 172 296 l 582 706 l 611 676 l 201 267 l 172 296 m 172 676 l 201 706 l 611 296 l 582 267 l 172 676 z "},"Ø":{"ha":1163,"x_min":79,"x_max":1083,"o":"m 581 -6 q 382 31 474 -6 q 222 135 290 68 q 117 291 154 201 q 79 486 79 381 q 117 681 79 592 q 222 838 154 771 q 382 941 290 904 q 581 978 474 978 q 781 941 689 978 q 940 838 872 904 q 1045 681 1007 771 q 1083 486 1083 592 q 1045 291 1083 381 q 940 135 1007 201 q 781 31 872 68 q 581 -6 689 -6 m 581 38 q 761 71 678 38 q 906 165 844 104 q 1002 308 968 226 q 1036 486 1036 389 q 1002 665 1036 583 q 906 807 968 746 q 761 901 844 868 q 581 935 678 935 q 401 901 485 935 q 256 807 318 868 q 160 665 194 746 q 126 486 126 583 q 160 308 126 389 q 256 165 194 226 q 401 71 318 104 q 581 38 485 38 m 133 -97 l 983 1069 l 1029 1069 l 178 -97 l 133 -97 z "},"Ù":{"ha":1101,"x_min":169,"x_max":932,"o":"m 551 -6 q 272 99 374 -6 q 169 410 169 203 l 169 972 l 217 972 l 217 411 q 304 130 217 222 q 551 38 392 38 q 799 130 711 38 q 886 411 886 222 l 886 972 l 932 972 l 932 410 q 830 99 932 203 q 551 -6 728 -6 z "},"Ú":{"ha":1101,"x_min":169,"x_max":932,"o":"m 551 -6 q 272 99 374 -6 q 169 410 169 203 l 169 972 l 217 972 l 217 411 q 304 130 217 222 q 551 38 392 38 q 799 130 711 38 q 886 411 886 222 l 886 972 l 932 972 l 932 410 q 830 99 932 203 q 551 -6 728 -6 z "},"Û":{"ha":1101,"x_min":169,"x_max":932,"o":"m 551 -6 q 272 99 374 -6 q 169 410 169 203 l 169 972 l 217 972 l 217 411 q 304 130 217 222 q 551 38 392 38 q 799 130 711 38 q 886 411 886 222 l 886 972 l 932 972 l 932 410 q 830 99 932 203 q 551 -6 728 -6 z "},"Ü":{"ha":1101,"x_min":169,"x_max":932,"o":"m 551 -6 q 272 99 374 -6 q 169 410 169 203 l 169 972 l 217 972 l 217 411 q 304 130 217 222 q 551 38 392 38 q 799 130 711 38 q 886 411 886 222 l 886 972 l 932 972 l 932 410 q 830 99 932 203 q 551 -6 728 -6 z "},"Ý":{"ha":856,"x_min":11,"x_max":846,"o":"m 404 0 l 404 346 l 415 314 l 11 972 l 63 972 l 440 358 l 417 358 l 796 972 l 846 972 l 440 314 l 451 346 l 451 0 l 404 0 z "},"Þ":{"ha":989,"x_min":178,"x_max":901,"o":"m 208 190 l 208 232 l 518 232 q 769 306 682 232 q 856 514 856 379 q 769 722 856 649 q 518 794 682 794 l 208 794 l 208 836 l 515 836 q 723 798 636 836 q 856 688 810 760 q 901 514 901 615 q 856 339 901 411 q 723 228 810 267 q 515 190 636 190 l 208 190 m 178 0 l 178 972 l 225 972 l 225 0 l 178 0 z "},"ß":{"ha":911,"x_min":154,"x_max":839,"o":"m 519 -4 q 440 1 479 -4 q 369 17 401 7 l 381 57 q 445 42 411 47 q 518 38 479 38 q 659 65 597 38 q 757 144 721 92 q 793 272 793 197 q 716 445 793 385 q 517 506 639 506 l 435 506 l 435 547 q 640 611 567 547 q 714 783 714 675 q 649 934 714 875 q 468 993 585 993 q 274 921 347 993 q 200 703 200 849 l 200 0 l 154 0 l 154 703 q 194 886 154 813 q 305 997 235 960 q 467 1035 375 1035 q 624 1002 558 1035 q 724 913 689 969 q 760 785 760 857 q 736 674 760 722 q 673 591 713 625 q 585 539 633 557 q 485 521 536 521 l 521 542 q 687 510 615 542 q 799 417 758 478 q 839 271 839 357 q 797 124 839 186 q 682 29 754 63 q 519 -4 610 -4 z "},"à":{"ha":803,"x_min":86,"x_max":657,"o":"m 613 0 l 613 168 l 611 193 l 611 467 q 554 629 611 574 q 389 685 497 685 q 244 658 310 685 q 132 588 179 631 l 107 621 q 233 698 158 669 q 390 726 308 726 q 588 660 519 726 q 657 467 657 594 l 657 0 l 613 0 m 344 -4 q 205 21 263 -4 q 117 92 147 46 q 86 199 86 139 q 111 297 86 251 q 194 369 136 342 q 349 396 251 396 l 628 396 l 628 358 l 349 358 q 181 314 231 358 q 132 201 132 269 q 189 80 132 125 q 347 35 246 35 q 513 80 447 35 q 611 208 578 125 l 626 178 q 526 46 599 96 q 344 -4 454 -4 m 397 843 l 185 1000 l 260 1000 l 453 843 l 397 843 z "},"á":{"ha":803,"x_min":86,"x_max":657,"o":"m 613 0 l 613 168 l 611 193 l 611 467 q 554 629 611 574 q 389 685 497 685 q 244 658 310 685 q 132 588 179 631 l 107 621 q 233 698 158 669 q 390 726 308 726 q 588 660 519 726 q 657 467 657 594 l 657 0 l 613 0 m 344 -4 q 205 21 263 -4 q 117 92 147 46 q 86 199 86 139 q 111 297 86 251 q 194 369 136 342 q 349 396 251 396 l 628 396 l 628 358 l 349 358 q 181 314 231 358 q 132 201 132 269 q 189 80 132 125 q 347 35 246 35 q 513 80 447 35 q 611 208 578 125 l 626 178 q 526 46 599 96 q 344 -4 454 -4 m 314 843 l 507 1000 l 582 1000 l 369 843 l 314 843 z "},"â":{"ha":803,"x_min":86,"x_max":657,"o":"m 613 0 l 613 168 l 611 193 l 611 467 q 554 629 611 574 q 389 685 497 685 q 244 658 310 685 q 132 588 179 631 l 107 621 q 233 698 158 669 q 390 726 308 726 q 588 660 519 726 q 657 467 657 594 l 657 0 l 613 0 m 344 -4 q 205 21 263 -4 q 117 92 147 46 q 86 199 86 139 q 111 297 86 251 q 194 369 136 342 q 349 396 251 396 l 628 396 l 628 358 l 349 358 q 181 314 231 358 q 132 201 132 269 q 189 80 132 125 q 347 35 246 35 q 513 80 447 35 q 611 208 578 125 l 626 178 q 526 46 599 96 q 344 -4 454 -4 m 182 843 l 354 1000 l 413 1000 l 585 843 l 533 843 l 371 979 l 396 979 l 233 843 l 182 843 z "},"ã":{"ha":803,"x_min":86,"x_max":657,"o":"m 613 0 l 613 168 l 611 193 l 611 467 q 554 629 611 574 q 389 685 497 685 q 244 658 310 685 q 132 588 179 631 l 107 621 q 233 698 158 669 q 390 726 308 726 q 588 660 519 726 q 657 467 657 594 l 657 0 l 613 0 m 344 -4 q 205 21 263 -4 q 117 92 147 46 q 86 199 86 139 q 111 297 86 251 q 194 369 136 342 q 349 396 251 396 l 628 396 l 628 358 l 349 358 q 181 314 231 358 q 132 201 132 269 q 189 80 132 125 q 347 35 246 35 q 513 80 447 35 q 611 208 578 125 l 626 178 q 526 46 599 96 q 344 -4 454 -4 m 472 857 q 419 872 443 857 q 376 905 396 886 q 338 938 357 924 q 296 953 319 953 q 244 928 263 953 q 222 861 225 904 l 188 861 q 219 954 190 919 q 294 989 247 989 q 347 974 324 989 q 390 941 371 960 q 429 908 410 922 q 471 893 449 893 q 524 918 504 893 q 544 982 543 943 l 579 982 q 549 892 578 928 q 472 857 519 857 z "},"ä":{"ha":803,"x_min":86,"x_max":657,"o":"m 613 0 l 613 168 l 611 193 l 611 467 q 554 629 611 574 q 389 685 497 685 q 244 658 310 685 q 132 588 179 631 l 107 621 q 233 698 158 669 q 390 726 308 726 q 588 660 519 726 q 657 467 657 594 l 657 0 l 613 0 m 344 -4 q 205 21 263 -4 q 117 92 147 46 q 86 199 86 139 q 111 297 86 251 q 194 369 136 342 q 349 396 251 396 l 628 396 l 628 358 l 349 358 q 181 314 231 358 q 132 201 132 269 q 189 80 132 125 q 347 35 246 35 q 513 80 447 35 q 611 208 578 125 l 626 178 q 526 46 599 96 q 344 -4 454 -4 m 500 886 q 471 899 483 886 q 458 928 458 911 q 471 958 458 946 q 500 971 483 971 q 530 958 518 971 q 542 928 542 946 q 530 899 542 911 q 500 886 518 886 m 267 886 q 238 899 250 886 q 225 928 225 911 q 238 958 225 946 q 267 971 250 971 q 297 958 285 971 q 308 928 308 946 q 297 899 308 911 q 267 886 285 886 z "},"å":{"ha":803,"x_min":86,"x_max":657,"o":"m 613 0 l 613 168 l 611 193 l 611 467 q 554 629 611 574 q 389 685 497 685 q 244 658 310 685 q 132 588 179 631 l 107 621 q 233 698 158 669 q 390 726 308 726 q 588 660 519 726 q 657 467 657 594 l 657 0 l 613 0 m 344 -4 q 205 21 263 -4 q 117 92 147 46 q 86 199 86 139 q 111 297 86 251 q 194 369 136 342 q 349 396 251 396 l 628 396 l 628 358 l 349 358 q 181 314 231 358 q 132 201 132 269 q 189 80 132 125 q 347 35 246 35 q 513 80 447 35 q 611 208 578 125 l 626 178 q 526 46 599 96 q 344 -4 454 -4 m 382 829 q 314 847 343 829 q 267 894 285 864 q 250 958 250 924 q 267 1024 250 993 q 315 1072 285 1054 q 382 1090 344 1090 q 451 1072 421 1090 q 498 1024 481 1054 q 515 958 515 993 q 498 894 515 924 q 451 847 481 864 q 382 829 421 829 m 382 860 q 454 889 426 860 q 482 958 482 918 q 453 1028 482 999 q 382 1058 425 1058 q 312 1029 340 1058 q 283 958 283 1000 q 311 888 283 917 q 382 860 339 860 z "},"æ":{"ha":1363,"x_min":86,"x_max":1290,"o":"m 346 -4 q 155 52 224 -4 q 86 200 86 108 q 111 297 86 253 q 194 367 136 340 q 349 394 251 394 l 621 394 l 621 357 l 349 357 q 181 313 231 357 q 132 201 132 268 q 189 80 132 125 q 349 35 246 35 q 538 99 465 35 q 611 281 611 163 l 611 467 q 554 629 611 574 q 389 685 497 685 q 245 658 311 685 q 132 588 179 631 l 107 621 q 233 698 158 669 q 390 726 308 726 q 578 669 511 726 q 654 496 644 611 l 639 508 q 759 667 676 607 q 951 726 842 726 q 1085 700 1024 726 q 1192 626 1146 674 q 1265 513 1239 578 q 1290 369 1290 449 q 1290 363 1290 367 q 1289 357 1290 360 l 647 357 l 647 394 l 1265 394 l 1246 369 q 1207 533 1246 461 q 1101 644 1168 604 q 951 685 1035 685 q 801 644 867 685 q 696 532 735 604 q 657 368 657 460 l 657 360 q 698 192 657 265 q 812 78 739 119 q 978 38 885 38 q 1111 64 1049 38 q 1217 144 1174 90 l 1246 114 q 1127 26 1197 56 q 976 -4 1057 -4 q 827 25 899 -4 q 703 113 756 54 q 624 260 650 171 l 653 257 q 600 106 644 164 q 490 22 556 49 q 346 -4 424 -4 z "},"ç":{"ha":763,"x_min":72,"x_max":697,"o":"m 431 -4 q 247 42 328 -4 q 119 172 165 89 q 72 361 72 254 q 119 551 72 468 q 247 680 165 633 q 431 726 328 726 q 582 695 513 726 q 697 603 651 664 l 663 574 q 562 657 622 631 q 431 683 501 683 q 271 643 342 683 q 159 530 200 603 q 118 361 118 457 q 159 192 118 265 q 271 78 200 119 q 431 38 342 38 q 562 65 501 38 q 663 147 622 92 l 697 119 q 582 26 651 57 q 431 -4 513 -4 m 382 -299 q 326 -290 353 -299 q 276 -262 300 -281 l 294 -233 q 334 -256 311 -249 q 382 -264 357 -264 q 451 -244 424 -264 q 478 -185 478 -224 q 453 -129 478 -151 q 382 -107 429 -107 l 357 -107 l 389 7 l 424 7 l 400 -76 q 485 -109 454 -79 q 517 -186 517 -139 q 478 -268 517 -237 q 382 -299 440 -299 z "},"è":{"ha":821,"x_min":72,"x_max":749,"o":"m 438 -4 q 249 42 331 -4 q 119 172 167 89 q 72 361 72 256 q 116 550 72 468 q 237 679 160 632 q 411 726 314 726 q 584 681 507 726 q 705 553 661 635 q 749 367 749 472 q 749 360 749 364 q 749 354 749 357 l 103 354 l 103 392 l 724 392 l 706 369 q 667 531 706 460 q 563 644 629 603 q 411 685 496 685 q 260 644 326 685 q 155 531 193 603 q 117 368 117 460 l 117 360 q 158 192 117 265 q 272 78 200 119 q 438 38 344 38 q 572 64 508 38 q 676 144 635 90 l 706 114 q 587 26 657 56 q 438 -4 517 -4 m 425 843 l 213 1000 l 288 1000 l 481 843 l 425 843 z "},"é":{"ha":821,"x_min":72,"x_max":749,"o":"m 438 -4 q 249 42 331 -4 q 119 172 167 89 q 72 361 72 256 q 116 550 72 468 q 237 679 160 632 q 411 726 314 726 q 584 681 507 726 q 705 553 661 635 q 749 367 749 472 q 749 360 749 364 q 749 354 749 357 l 103 354 l 103 392 l 724 392 l 706 369 q 667 531 706 460 q 563 644 629 603 q 411 685 496 685 q 260 644 326 685 q 155 531 193 603 q 117 368 117 460 l 117 360 q 158 192 117 265 q 272 78 200 119 q 438 38 344 38 q 572 64 508 38 q 676 144 635 90 l 706 114 q 587 26 657 56 q 438 -4 517 -4 m 342 843 l 535 1000 l 610 1000 l 397 843 l 342 843 z "},"ê":{"ha":821,"x_min":72,"x_max":749,"o":"m 438 -4 q 249 42 331 -4 q 119 172 167 89 q 72 361 72 256 q 116 550 72 468 q 237 679 160 632 q 411 726 314 726 q 584 681 507 726 q 705 553 661 635 q 749 367 749 472 q 749 360 749 364 q 749 354 749 357 l 103 354 l 103 392 l 724 392 l 706 369 q 667 531 706 460 q 563 644 629 603 q 411 685 496 685 q 260 644 326 685 q 155 531 193 603 q 117 368 117 460 l 117 360 q 158 192 117 265 q 272 78 200 119 q 438 38 344 38 q 572 64 508 38 q 676 144 635 90 l 706 114 q 587 26 657 56 q 438 -4 517 -4 m 210 843 l 382 1000 l 440 1000 l 613 843 l 561 843 l 399 979 l 424 979 l 261 843 l 210 843 z "},"ë":{"ha":821,"x_min":72,"x_max":749,"o":"m 438 -4 q 249 42 331 -4 q 119 172 167 89 q 72 361 72 256 q 116 550 72 468 q 237 679 160 632 q 411 726 314 726 q 584 681 507 726 q 705 553 661 635 q 749 367 749 472 q 749 360 749 364 q 749 354 749 357 l 103 354 l 103 392 l 724 392 l 706 369 q 667 531 706 460 q 563 644 629 603 q 411 685 496 685 q 260 644 326 685 q 155 531 193 603 q 117 368 117 460 l 117 360 q 158 192 117 265 q 272 78 200 119 q 438 38 344 38 q 572 64 508 38 q 676 144 635 90 l 706 114 q 587 26 657 56 q 438 -4 517 -4 m 528 886 q 499 899 511 886 q 486 928 486 911 q 499 958 486 946 q 528 971 511 971 q 558 958 546 971 q 569 928 569 946 q 558 899 569 911 q 528 886 546 886 m 294 886 q 265 899 278 886 q 253 928 253 911 q 265 958 253 946 q 294 971 278 971 q 324 958 313 971 q 336 928 336 946 q 324 899 336 911 q 294 886 313 886 z "},"ì":{"ha":354,"x_min":-22,"x_max":246,"o":"m 154 0 l 154 721 l 200 721 l 200 0 l 154 0 m 190 843 l -22 1000 l 53 1000 l 246 843 l 190 843 z "},"í":{"ha":354,"x_min":107,"x_max":375,"o":"m 154 0 l 154 721 l 200 721 l 200 0 l 154 0 m 107 843 l 300 1000 l 375 1000 l 163 843 l 107 843 z "},"î":{"ha":354,"x_min":10,"x_max":343,"o":"m 154 0 l 154 721 l 200 721 l 200 0 l 154 0 m 10 843 l 149 1000 l 204 1000 l 343 843 l 293 843 l 165 979 l 188 979 l 60 843 l 10 843 z "},"ï":{"ha":354,"x_min":54,"x_max":299,"o":"m 154 0 l 154 721 l 200 721 l 200 0 l 154 0 m 258 886 q 229 899 242 886 q 217 928 217 913 q 229 958 217 946 q 258 971 242 971 q 287 958 275 971 q 299 928 299 946 q 287 899 299 911 q 258 886 275 886 m 94 886 q 67 899 79 886 q 54 928 54 913 q 67 958 54 946 q 94 971 79 971 q 124 958 113 971 q 136 928 136 946 q 124 899 136 911 q 94 886 113 886 z "},"ð":{"ha":864,"x_min":72,"x_max":792,"o":"m 399 -6 q 230 32 304 -6 q 114 138 156 69 q 72 297 72 207 q 114 456 72 389 q 232 562 156 524 q 408 600 308 600 q 570 565 497 600 q 688 464 643 529 q 739 304 733 399 l 721 301 q 741 404 736 351 q 746 492 746 457 q 697 739 746 639 q 561 890 649 839 q 356 940 474 940 q 244 932 297 940 q 149 911 190 924 l 139 953 q 236 973 179 964 q 356 982 293 982 q 584 926 486 982 q 737 759 682 869 q 792 485 792 649 q 747 227 792 338 q 615 56 703 117 q 399 -6 528 -6 m 401 36 q 566 75 499 36 q 668 174 633 114 q 703 297 703 233 q 665 430 703 371 q 563 524 628 489 q 411 558 497 558 q 197 486 275 558 q 118 297 118 414 q 153 161 118 221 q 253 69 189 101 q 401 36 317 36 m 207 714 l 192 750 l 710 978 l 725 940 l 207 714 z "},"ñ":{"ha":931,"x_min":154,"x_max":785,"o":"m 494 726 q 648 692 583 726 q 749 590 713 657 q 785 424 785 522 l 785 0 l 739 0 l 739 421 q 674 617 739 550 q 490 683 608 683 q 335 647 400 683 q 235 544 269 611 q 200 389 200 478 l 200 0 l 154 0 l 154 721 l 199 721 l 199 518 l 193 531 q 303 674 226 621 q 494 726 381 726 m 556 857 q 503 872 526 857 q 460 905 479 886 q 422 938 440 924 q 379 953 403 953 q 327 928 346 953 q 306 861 308 904 l 271 861 q 302 954 274 919 q 378 989 331 989 q 431 974 407 989 q 474 941 454 960 q 513 908 493 922 q 554 893 532 893 q 607 918 588 893 q 628 982 626 943 l 663 982 q 632 892 661 928 q 556 857 603 857 z "},"ò":{"ha":853,"x_min":72,"x_max":781,"o":"m 426 -4 q 245 42 325 -4 q 119 172 165 89 q 72 361 72 256 q 119 550 72 468 q 245 679 165 632 q 426 726 325 726 q 608 679 528 726 q 735 550 689 632 q 781 361 781 468 q 735 172 781 256 q 608 42 689 89 q 426 -4 528 -4 m 426 38 q 585 78 515 38 q 695 193 656 119 q 735 361 735 267 q 695 530 735 457 q 585 643 656 603 q 426 683 515 683 q 269 643 339 683 q 159 530 200 603 q 118 361 118 457 q 159 193 118 267 q 269 78 200 119 q 426 38 339 38 m 440 843 l 228 1000 l 303 1000 l 496 843 l 440 843 z "},"ó":{"ha":853,"x_min":72,"x_max":781,"o":"m 426 -4 q 245 42 325 -4 q 119 172 165 89 q 72 361 72 256 q 119 550 72 468 q 245 679 165 632 q 426 726 325 726 q 608 679 528 726 q 735 550 689 632 q 781 361 781 468 q 735 172 781 256 q 608 42 689 89 q 426 -4 528 -4 m 426 38 q 585 78 515 38 q 695 193 656 119 q 735 361 735 267 q 695 530 735 457 q 585 643 656 603 q 426 683 515 683 q 269 643 339 683 q 159 530 200 603 q 118 361 118 457 q 159 193 118 267 q 269 78 200 119 q 426 38 339 38 m 357 843 l 550 1000 l 625 1000 l 413 843 l 357 843 z "},"ô":{"ha":853,"x_min":72,"x_max":781,"o":"m 426 -4 q 245 42 325 -4 q 119 172 165 89 q 72 361 72 256 q 119 550 72 468 q 245 679 165 632 q 426 726 325 726 q 608 679 528 726 q 735 550 689 632 q 781 361 781 468 q 735 172 781 256 q 608 42 689 89 q 426 -4 528 -4 m 426 38 q 585 78 515 38 q 695 193 656 119 q 735 361 735 267 q 695 530 735 457 q 585 643 656 603 q 426 683 515 683 q 269 643 339 683 q 159 530 200 603 q 118 361 118 457 q 159 193 118 267 q 269 78 200 119 q 426 38 339 38 m 225 843 l 397 1000 l 456 1000 l 628 843 l 576 843 l 414 979 l 439 979 l 276 843 l 225 843 z "},"õ":{"ha":853,"x_min":72,"x_max":781,"o":"m 426 -4 q 245 42 325 -4 q 119 172 165 89 q 72 361 72 256 q 119 550 72 468 q 245 679 165 632 q 426 726 325 726 q 608 679 528 726 q 735 550 689 632 q 781 361 781 468 q 735 172 781 256 q 608 42 689 89 q 426 -4 528 -4 m 426 38 q 585 78 515 38 q 695 193 656 119 q 735 361 735 267 q 695 530 735 457 q 585 643 656 603 q 426 683 515 683 q 269 643 339 683 q 159 530 200 603 q 118 361 118 457 q 159 193 118 267 q 269 78 200 119 q 426 38 339 38 m 515 857 q 463 872 486 857 q 419 905 439 886 q 381 938 400 924 q 339 953 363 953 q 287 928 306 953 q 265 861 268 904 l 231 861 q 262 954 233 919 q 338 989 290 989 q 390 974 367 989 q 433 941 414 960 q 472 908 453 922 q 514 893 492 893 q 567 918 547 893 q 588 982 586 943 l 622 982 q 592 892 621 928 q 515 857 563 857 z "},"ö":{"ha":853,"x_min":72,"x_max":781,"o":"m 426 -4 q 245 42 325 -4 q 119 172 165 89 q 72 361 72 256 q 119 550 72 468 q 245 679 165 632 q 426 726 325 726 q 608 679 528 726 q 735 550 689 632 q 781 361 781 468 q 735 172 781 256 q 608 42 689 89 q 426 -4 528 -4 m 426 38 q 585 78 515 38 q 695 193 656 119 q 735 361 735 267 q 695 530 735 457 q 585 643 656 603 q 426 683 515 683 q 269 643 339 683 q 159 530 200 603 q 118 361 118 457 q 159 193 118 267 q 269 78 200 119 q 426 38 339 38 m 543 886 q 514 899 526 886 q 501 928 501 911 q 514 958 501 946 q 543 971 526 971 q 573 958 561 971 q 585 928 585 946 q 573 899 585 911 q 543 886 561 886 m 310 886 q 281 899 293 886 q 268 928 268 911 q 281 958 268 946 q 310 971 293 971 q 340 958 328 971 q 351 928 351 946 q 340 899 351 911 q 310 886 328 886 z "},"÷":{"ha":783,"x_min":103,"x_max":681,"o":"m 103 465 l 103 506 l 681 506 l 681 465 l 103 465 m 392 188 q 362 201 375 188 q 349 232 349 215 q 362 264 349 251 q 392 276 375 276 q 422 264 410 276 q 435 232 435 251 q 422 201 435 215 q 392 188 410 188 m 392 696 q 362 709 375 696 q 349 740 349 722 q 362 772 349 758 q 392 785 375 785 q 422 772 410 785 q 435 740 435 758 q 422 709 435 722 q 392 696 410 696 z "},"ø":{"ha":853,"x_min":72,"x_max":781,"o":"m 426 -4 q 245 42 325 -4 q 119 172 165 89 q 72 361 72 256 q 119 550 72 468 q 245 679 165 632 q 426 726 325 726 q 608 679 528 726 q 735 550 689 632 q 781 361 781 468 q 735 172 781 256 q 608 42 689 89 q 426 -4 528 -4 m 426 38 q 585 78 515 38 q 695 193 656 119 q 735 361 735 267 q 695 530 735 457 q 585 643 656 603 q 426 683 515 683 q 269 643 339 683 q 159 530 200 603 q 118 361 118 457 q 159 193 118 267 q 269 78 200 119 q 426 38 339 38 m 97 -97 l 715 818 l 756 818 l 138 -97 l 97 -97 z "},"ù":{"ha":925,"x_min":146,"x_max":771,"o":"m 444 -4 q 285 30 351 -4 q 182 131 218 64 q 146 297 146 199 l 146 721 l 192 721 l 192 300 q 258 104 192 171 q 446 38 325 38 q 595 74 532 38 q 692 178 658 111 q 725 332 725 244 l 725 721 l 771 721 l 771 0 l 726 0 l 726 201 l 732 189 q 626 48 701 100 q 444 -4 551 -4 m 472 843 l 260 1000 l 335 1000 l 528 843 l 472 843 z "},"ú":{"ha":925,"x_min":146,"x_max":771,"o":"m 444 -4 q 285 30 351 -4 q 182 131 218 64 q 146 297 146 199 l 146 721 l 192 721 l 192 300 q 258 104 192 171 q 446 38 325 38 q 595 74 532 38 q 692 178 658 111 q 725 332 725 244 l 725 721 l 771 721 l 771 0 l 726 0 l 726 201 l 732 189 q 626 48 701 100 q 444 -4 551 -4 m 389 843 l 582 1000 l 657 1000 l 444 843 l 389 843 z "},"û":{"ha":925,"x_min":146,"x_max":771,"o":"m 444 -4 q 285 30 351 -4 q 182 131 218 64 q 146 297 146 199 l 146 721 l 192 721 l 192 300 q 258 104 192 171 q 446 38 325 38 q 595 74 532 38 q 692 178 658 111 q 725 332 725 244 l 725 721 l 771 721 l 771 0 l 726 0 l 726 201 l 732 189 q 626 48 701 100 q 444 -4 551 -4 m 257 843 l 429 1000 l 488 1000 l 660 843 l 608 843 l 446 979 l 471 979 l 308 843 l 257 843 z "},"ü":{"ha":925,"x_min":146,"x_max":771,"o":"m 444 -4 q 285 30 351 -4 q 182 131 218 64 q 146 297 146 199 l 146 721 l 192 721 l 192 300 q 258 104 192 171 q 446 38 325 38 q 595 74 532 38 q 692 178 658 111 q 725 332 725 244 l 725 721 l 771 721 l 771 0 l 726 0 l 726 201 l 732 189 q 626 48 701 100 q 444 -4 551 -4 m 575 886 q 546 899 558 886 q 533 928 533 911 q 546 958 533 946 q 575 971 558 971 q 605 958 593 971 q 617 928 617 946 q 605 899 617 911 q 575 886 593 886 m 342 886 q 313 899 325 886 q 300 928 300 911 q 313 958 300 946 q 342 971 325 971 q 372 958 360 971 q 383 928 383 946 q 372 899 383 911 q 342 886 360 886 z "},"ý":{"ha":718,"x_min":-40,"x_max":711,"o":"m 121 -274 q 31 -258 72 -274 q -40 -210 -11 -242 l -14 -174 q 47 -219 15 -204 q 121 -233 79 -233 q 214 -204 174 -233 q 289 -97 254 -175 l 342 17 l 349 28 l 663 721 l 711 721 l 333 -108 q 273 -206 306 -169 q 203 -258 240 -243 q 121 -274 165 -274 m 343 -17 l 7 721 l 57 721 l 369 31 l 343 -17 m 269 843 l 463 1000 l 538 1000 l 325 843 l 269 843 z "},"þ":{"ha":935,"x_min":154,"x_max":863,"o":"m 510 -4 q 335 41 413 -4 q 212 169 257 86 q 167 360 167 251 q 212 552 167 469 q 335 681 257 635 q 510 726 413 726 q 690 679 610 726 q 816 550 769 632 q 863 360 863 468 q 816 171 863 253 q 690 42 769 89 q 510 -4 610 -4 m 154 -269 l 154 1031 l 200 1031 l 200 468 l 186 358 l 200 249 l 200 -269 l 154 -269 m 508 38 q 666 78 596 38 q 776 192 736 118 q 817 360 817 265 q 776 529 817 457 q 666 642 736 601 q 508 683 596 683 q 350 642 419 683 q 240 529 281 601 q 200 360 200 457 q 240 192 200 265 q 350 78 281 118 q 508 38 419 38 z "},"ÿ":{"ha":718,"x_min":-40,"x_max":711,"o":"m 121 -274 q 31 -258 72 -274 q -40 -210 -11 -242 l -14 -174 q 47 -219 15 -204 q 121 -233 79 -233 q 214 -204 174 -233 q 289 -97 254 -175 l 342 17 l 349 28 l 663 721 l 711 721 l 333 -108 q 273 -206 306 -169 q 203 -258 240 -243 q 121 -274 165 -274 m 343 -17 l 7 721 l 57 721 l 369 31 l 343 -17 m 456 886 q 426 899 439 886 q 414 928 414 911 q 426 958 414 946 q 456 971 439 971 q 485 958 474 971 q 497 928 497 946 q 485 899 497 911 q 456 886 474 886 m 222 886 q 193 899 206 886 q 181 928 181 911 q 193 958 181 946 q 222 971 206 971 q 252 958 240 971 q 264 928 264 946 q 252 899 264 911 q 222 886 240 886 z "},"Ā":{"ha":967,"x_min":10,"x_max":956,"o":"m 10 0 l 460 972 l 506 972 l 956 0 l 904 0 l 472 940 l 493 940 l 61 0 l 10 0 m 165 285 l 183 325 l 778 325 l 796 285 l 165 285 z "},"ā":{"ha":803,"x_min":86,"x_max":657,"o":"m 613 0 l 613 168 l 611 193 l 611 467 q 554 629 611 574 q 389 685 497 685 q 244 658 310 685 q 132 588 179 631 l 107 621 q 233 698 158 669 q 390 726 308 726 q 588 660 519 726 q 657 467 657 594 l 657 0 l 613 0 m 344 -4 q 205 21 263 -4 q 117 92 147 46 q 86 199 86 139 q 111 297 86 251 q 194 369 136 342 q 349 396 251 396 l 628 396 l 628 358 l 349 358 q 181 314 231 358 q 132 201 132 269 q 189 80 132 125 q 347 35 246 35 q 513 80 447 35 q 611 208 578 125 l 626 178 q 526 46 599 96 q 344 -4 454 -4 m 188 903 l 188 940 l 579 940 l 579 903 l 188 903 z "},"Ă":{"ha":967,"x_min":10,"x_max":956,"o":"m 10 0 l 460 972 l 506 972 l 956 0 l 904 0 l 472 940 l 493 940 l 61 0 l 10 0 m 165 285 l 183 325 l 778 325 l 796 285 l 165 285 z "},"ă":{"ha":803,"x_min":86,"x_max":657,"o":"m 613 0 l 613 168 l 611 193 l 611 467 q 554 629 611 574 q 389 685 497 685 q 244 658 310 685 q 132 588 179 631 l 107 621 q 233 698 158 669 q 390 726 308 726 q 588 660 519 726 q 657 467 657 594 l 657 0 l 613 0 m 344 -4 q 205 21 263 -4 q 117 92 147 46 q 86 199 86 139 q 111 297 86 251 q 194 369 136 342 q 349 396 251 396 l 628 396 l 628 358 l 349 358 q 181 314 231 358 q 132 201 132 269 q 189 80 132 125 q 347 35 246 35 q 513 80 447 35 q 611 208 578 125 l 626 178 q 526 46 599 96 q 344 -4 454 -4 m 383 839 q 251 883 306 839 q 193 1000 196 926 l 231 1000 q 277 908 233 942 q 383 874 321 874 q 491 908 447 874 q 536 1000 535 942 l 574 1000 q 517 883 572 926 q 383 839 461 839 z "},"Ą":{"ha":967,"x_min":10,"x_max":982,"o":"m 10 0 l 460 972 l 506 972 l 956 0 l 904 0 l 472 940 l 493 940 l 61 0 l 10 0 m 165 285 l 183 325 l 778 325 l 796 285 l 165 285 m 875 -299 q 779 -267 817 -299 q 742 -179 742 -235 q 757 -115 742 -149 q 814 -44 772 -81 q 933 26 856 -8 l 956 0 q 844 -62 882 -31 q 794 -123 807 -94 q 781 -178 781 -151 q 808 -242 781 -219 q 879 -264 836 -264 q 924 -256 901 -264 q 964 -233 947 -247 l 982 -261 q 932 -290 958 -281 q 875 -299 906 -299 z "},"ą":{"ha":803,"x_min":86,"x_max":683,"o":"m 613 0 l 613 168 l 611 193 l 611 467 q 554 629 611 574 q 389 685 497 685 q 244 658 310 685 q 132 588 179 631 l 107 621 q 233 698 158 669 q 390 726 308 726 q 588 660 519 726 q 657 467 657 594 l 657 0 l 613 0 m 344 -4 q 205 21 263 -4 q 117 92 147 46 q 86 199 86 139 q 111 297 86 251 q 194 369 136 342 q 349 396 251 396 l 628 396 l 628 358 l 349 358 q 181 314 231 358 q 132 201 132 269 q 189 80 132 125 q 347 35 246 35 q 513 80 447 35 q 611 208 578 125 l 626 178 q 526 46 599 96 q 344 -4 454 -4 m 576 -299 q 481 -267 518 -299 q 443 -179 443 -235 q 458 -115 443 -149 q 515 -44 474 -81 q 635 26 557 -8 l 657 0 q 546 -62 583 -31 q 495 -123 508 -94 q 482 -178 482 -151 q 510 -242 482 -219 q 581 -264 538 -264 q 626 -256 603 -264 q 665 -233 649 -247 l 683 -261 q 633 -290 660 -281 q 576 -299 607 -299 z "},"Ć":{"ha":990,"x_min":79,"x_max":918,"o":"m 581 -6 q 382 31 474 -6 q 222 135 290 68 q 117 291 154 201 q 79 486 79 381 q 117 681 79 592 q 222 838 154 771 q 382 941 290 904 q 581 978 474 978 q 767 946 679 978 q 918 849 854 914 l 889 818 q 747 908 824 881 q 582 935 669 935 q 401 901 485 935 q 256 806 318 867 q 160 663 194 744 q 126 486 126 582 q 160 309 126 390 q 256 167 194 228 q 401 72 318 106 q 582 38 485 38 q 747 65 669 38 q 889 156 824 92 l 918 125 q 767 27 854 60 q 581 -6 679 -6 z "},"ć":{"ha":763,"x_min":72,"x_max":697,"o":"m 431 -4 q 247 42 328 -4 q 119 172 165 89 q 72 361 72 254 q 119 551 72 468 q 247 680 165 633 q 431 726 328 726 q 582 695 513 726 q 697 603 651 664 l 663 574 q 562 657 622 631 q 431 683 501 683 q 271 643 342 683 q 159 530 200 603 q 118 361 118 457 q 159 192 118 265 q 271 78 200 119 q 431 38 342 38 q 562 65 501 38 q 663 147 622 92 l 697 119 q 582 26 651 57 q 431 -4 513 -4 m 338 843 l 531 1000 l 606 1000 l 393 843 l 338 843 z "},"Ĉ":{"ha":990,"x_min":79,"x_max":918,"o":"m 581 -6 q 382 31 474 -6 q 222 135 290 68 q 117 291 154 201 q 79 486 79 381 q 117 681 79 592 q 222 838 154 771 q 382 941 290 904 q 581 978 474 978 q 767 946 679 978 q 918 849 854 914 l 889 818 q 747 908 824 881 q 582 935 669 935 q 401 901 485 935 q 256 806 318 867 q 160 663 194 744 q 126 486 126 582 q 160 309 126 390 q 256 167 194 228 q 401 72 318 106 q 582 38 485 38 q 747 65 669 38 q 889 156 824 92 l 918 125 q 767 27 854 60 q 581 -6 679 -6 z "},"ĉ":{"ha":763,"x_min":72,"x_max":697,"o":"m 431 -4 q 247 42 328 -4 q 119 172 165 89 q 72 361 72 254 q 119 551 72 468 q 247 680 165 633 q 431 726 328 726 q 582 695 513 726 q 697 603 651 664 l 663 574 q 562 657 622 631 q 431 683 501 683 q 271 643 342 683 q 159 530 200 603 q 118 361 118 457 q 159 192 118 265 q 271 78 200 119 q 431 38 342 38 q 562 65 501 38 q 663 147 622 92 l 697 119 q 582 26 651 57 q 431 -4 513 -4 m 206 843 l 378 1000 l 436 1000 l 608 843 l 557 843 l 394 979 l 419 979 l 257 843 l 206 843 z "},"Ċ":{"ha":990,"x_min":79,"x_max":918,"o":"m 581 -6 q 382 31 474 -6 q 222 135 290 68 q 117 291 154 201 q 79 486 79 381 q 117 681 79 592 q 222 838 154 771 q 382 941 290 904 q 581 978 474 978 q 767 946 679 978 q 918 849 854 914 l 889 818 q 747 908 824 881 q 582 935 669 935 q 401 901 485 935 q 256 806 318 867 q 160 663 194 744 q 126 486 126 582 q 160 309 126 390 q 256 167 194 228 q 401 72 318 106 q 582 38 485 38 q 747 65 669 38 q 889 156 824 92 l 918 125 q 767 27 854 60 q 581 -6 679 -6 z "},"ċ":{"ha":763,"x_min":72,"x_max":697,"o":"m 431 -4 q 247 42 328 -4 q 119 172 165 89 q 72 361 72 254 q 119 551 72 468 q 247 680 165 633 q 431 726 328 726 q 582 695 513 726 q 697 603 651 664 l 663 574 q 562 657 622 631 q 431 683 501 683 q 271 643 342 683 q 159 530 200 603 q 118 361 118 457 q 159 192 118 265 q 271 78 200 119 q 431 38 342 38 q 562 65 501 38 q 663 147 622 92 l 697 119 q 582 26 651 57 q 431 -4 513 -4 m 407 886 q 376 899 389 886 q 363 931 363 913 q 376 962 363 949 q 407 975 389 975 q 438 962 425 975 q 451 931 451 949 q 438 899 451 913 q 407 886 425 886 z "},"Č":{"ha":990,"x_min":79,"x_max":918,"o":"m 581 -6 q 382 31 474 -6 q 222 135 290 68 q 117 291 154 201 q 79 486 79 381 q 117 681 79 592 q 222 838 154 771 q 382 941 290 904 q 581 978 474 978 q 767 946 679 978 q 918 849 854 914 l 889 818 q 747 908 824 881 q 582 935 669 935 q 401 901 485 935 q 256 806 318 867 q 160 663 194 744 q 126 486 126 582 q 160 309 126 390 q 256 167 194 228 q 401 72 318 106 q 582 38 485 38 q 747 65 669 38 q 889 156 824 92 l 918 125 q 767 27 854 60 q 581 -6 679 -6 z "},"č":{"ha":763,"x_min":72,"x_max":697,"o":"m 431 -4 q 247 42 328 -4 q 119 172 165 89 q 72 361 72 254 q 119 551 72 468 q 247 680 165 633 q 431 726 328 726 q 582 695 513 726 q 697 603 651 664 l 663 574 q 562 657 622 631 q 431 683 501 683 q 271 643 342 683 q 159 530 200 603 q 118 361 118 457 q 159 192 118 265 q 271 78 200 119 q 431 38 342 38 q 562 65 501 38 q 663 147 622 92 l 697 119 q 582 26 651 57 q 431 -4 513 -4 m 378 843 l 206 1000 l 257 1000 l 419 864 l 394 864 l 557 1000 l 608 1000 l 436 843 l 378 843 z "},"Ď":{"ha":1147,"x_min":178,"x_max":1068,"o":"m 178 0 l 178 972 l 553 972 q 824 909 708 972 q 1003 737 939 846 q 1068 486 1068 628 q 1003 235 1068 344 q 824 63 939 126 q 553 0 708 0 l 178 0 m 225 43 l 550 43 q 799 100 693 43 q 963 257 906 157 q 1021 486 1021 357 q 963 715 1021 615 q 799 872 906 815 q 550 929 693 929 l 225 929 l 225 43 z "},"ď":{"ha":935,"x_min":72,"x_max":958,"o":"m 425 -4 q 245 42 325 -4 q 119 172 165 89 q 72 361 72 254 q 119 551 72 469 q 245 679 165 632 q 425 726 325 726 q 600 681 522 726 q 723 553 678 635 q 768 361 768 471 q 723 169 768 253 q 600 41 678 86 q 425 -4 522 -4 m 426 38 q 585 78 515 38 q 694 193 654 119 q 735 361 735 267 q 694 530 735 457 q 585 643 654 603 q 426 683 515 683 q 269 643 339 683 q 159 530 200 603 q 118 361 118 457 q 159 193 118 267 q 269 78 200 119 q 426 38 339 38 m 736 0 l 736 253 l 749 363 l 735 472 l 735 1031 l 781 1031 l 781 0 l 736 0 m 917 808 l 917 1061 l 958 1061 l 953 808 l 917 808 z "},"Đ":{"ha":1149,"x_min":26,"x_max":1069,"o":"m 179 0 l 179 972 l 554 972 q 825 909 710 972 q 1005 737 940 846 q 1069 486 1069 628 q 1005 235 1069 344 q 825 63 940 126 q 554 0 710 0 l 179 0 m 226 43 l 551 43 q 801 100 694 43 q 965 257 907 157 q 1022 486 1022 357 q 965 715 1022 615 q 801 872 907 815 q 551 929 694 929 l 226 929 l 226 43 m 26 474 l 26 514 l 535 514 l 535 474 l 26 474 z "},"đ":{"ha":935,"x_min":72,"x_max":935,"o":"m 425 -4 q 245 42 325 -4 q 119 172 165 89 q 72 361 72 254 q 119 551 72 469 q 245 679 165 632 q 425 726 325 726 q 600 681 522 726 q 723 553 678 635 q 768 361 768 471 q 723 169 768 253 q 600 41 678 86 q 425 -4 522 -4 m 426 38 q 585 78 515 38 q 694 193 654 119 q 735 361 735 267 q 694 530 735 457 q 585 643 654 603 q 426 683 515 683 q 269 643 339 683 q 159 530 200 603 q 118 361 118 457 q 159 193 118 267 q 269 78 200 119 q 426 38 339 38 m 736 0 l 736 253 l 749 363 l 735 472 l 735 1031 l 781 1031 l 781 0 l 736 0 m 404 857 l 404 896 l 935 896 l 935 857 l 404 857 z "},"Ē":{"ha":928,"x_min":178,"x_max":835,"o":"m 217 515 l 753 515 l 753 472 l 217 472 l 217 515 m 225 43 l 835 43 l 835 0 l 178 0 l 178 972 l 815 972 l 815 929 l 225 929 l 225 43 z "},"ē":{"ha":821,"x_min":72,"x_max":749,"o":"m 438 -4 q 249 42 331 -4 q 119 172 167 89 q 72 361 72 256 q 116 550 72 468 q 237 679 160 632 q 411 726 314 726 q 584 681 507 726 q 705 553 661 635 q 749 367 749 472 q 749 360 749 364 q 749 354 749 357 l 103 354 l 103 392 l 724 392 l 706 369 q 667 531 706 460 q 563 644 629 603 q 411 685 496 685 q 260 644 326 685 q 155 531 193 603 q 117 368 117 460 l 117 360 q 158 192 117 265 q 272 78 200 119 q 438 38 344 38 q 572 64 508 38 q 676 144 635 90 l 706 114 q 587 26 657 56 q 438 -4 517 -4 m 215 903 l 215 940 l 607 940 l 607 903 l 215 903 z "},"Ĕ":{"ha":928,"x_min":178,"x_max":835,"o":"m 217 515 l 753 515 l 753 472 l 217 472 l 217 515 m 225 43 l 835 43 l 835 0 l 178 0 l 178 972 l 815 972 l 815 929 l 225 929 l 225 43 z "},"ĕ":{"ha":821,"x_min":72,"x_max":749,"o":"m 438 -4 q 249 42 331 -4 q 119 172 167 89 q 72 361 72 256 q 116 550 72 468 q 237 679 160 632 q 411 726 314 726 q 584 681 507 726 q 705 553 661 635 q 749 367 749 472 q 749 360 749 364 q 749 354 749 357 l 103 354 l 103 392 l 724 392 l 706 369 q 667 531 706 460 q 563 644 629 603 q 411 685 496 685 q 260 644 326 685 q 155 531 193 603 q 117 368 117 460 l 117 360 q 158 192 117 265 q 272 78 200 119 q 438 38 344 38 q 572 64 508 38 q 676 144 635 90 l 706 114 q 587 26 657 56 q 438 -4 517 -4 m 411 839 q 278 883 333 839 q 221 1000 224 926 l 258 1000 q 305 908 261 942 q 411 874 349 874 q 519 908 475 874 q 564 1000 563 942 l 601 1000 q 544 883 600 926 q 411 839 489 839 z "},"Ė":{"ha":928,"x_min":178,"x_max":835,"o":"m 217 515 l 753 515 l 753 472 l 217 472 l 217 515 m 225 43 l 835 43 l 835 0 l 178 0 l 178 972 l 815 972 l 815 929 l 225 929 l 225 43 z "},"ė":{"ha":821,"x_min":72,"x_max":749,"o":"m 438 -4 q 249 42 331 -4 q 119 172 167 89 q 72 361 72 256 q 116 550 72 468 q 237 679 160 632 q 411 726 314 726 q 584 681 507 726 q 705 553 661 635 q 749 367 749 472 q 749 360 749 364 q 749 354 749 357 l 103 354 l 103 392 l 724 392 l 706 369 q 667 531 706 460 q 563 644 629 603 q 411 685 496 685 q 260 644 326 685 q 155 531 193 603 q 117 368 117 460 l 117 360 q 158 192 117 265 q 272 78 200 119 q 438 38 344 38 q 572 64 508 38 q 676 144 635 90 l 706 114 q 587 26 657 56 q 438 -4 517 -4 m 411 886 q 380 899 393 886 q 367 931 367 913 q 380 962 367 949 q 411 975 393 975 q 442 962 429 975 q 456 931 456 949 q 442 899 456 913 q 411 886 429 886 z "},"Ę":{"ha":928,"x_min":178,"x_max":861,"o":"m 217 515 l 753 515 l 753 472 l 217 472 l 217 515 m 225 43 l 835 43 l 835 0 l 178 0 l 178 972 l 815 972 l 815 929 l 225 929 l 225 43 m 754 -299 q 658 -267 696 -299 q 621 -179 621 -235 q 636 -115 621 -149 q 693 -44 651 -81 q 813 26 735 -8 l 835 0 q 724 -62 761 -31 q 673 -123 686 -94 q 660 -178 660 -151 q 688 -242 660 -219 q 758 -264 715 -264 q 803 -256 781 -264 q 843 -233 826 -247 l 861 -261 q 811 -290 838 -281 q 754 -299 785 -299 z "},"ę":{"ha":821,"x_min":72,"x_max":749,"o":"m 586 -299 q 490 -267 528 -299 q 453 -176 453 -235 q 477 -82 453 -135 q 579 35 501 -29 l 588 25 q 515 3 553 11 q 438 -4 476 -4 q 249 42 331 -4 q 119 172 167 89 q 72 361 72 256 q 116 550 72 468 q 237 679 160 632 q 411 726 314 726 q 584 681 507 726 q 705 553 661 635 q 749 367 749 472 q 749 360 749 364 q 749 354 749 357 l 103 354 l 103 392 l 724 392 l 706 369 q 667 531 706 460 q 563 644 629 603 q 411 685 496 685 q 260 644 326 685 q 155 531 193 603 q 117 368 117 460 l 117 360 q 158 192 117 265 q 272 78 200 119 q 438 38 344 38 q 572 64 508 38 q 676 144 635 90 l 706 114 q 683 90 696 101 q 654 65 669 78 q 550 -42 585 0 q 503 -115 515 -85 q 492 -175 492 -146 q 519 -242 492 -219 q 589 -264 547 -264 q 635 -256 613 -264 q 675 -233 658 -247 l 693 -261 q 643 -290 669 -281 q 586 -299 617 -299 z "},"Ě":{"ha":928,"x_min":178,"x_max":835,"o":"m 217 515 l 753 515 l 753 472 l 217 472 l 217 515 m 225 43 l 835 43 l 835 0 l 178 0 l 178 972 l 815 972 l 815 929 l 225 929 l 225 43 z "},"ě":{"ha":821,"x_min":72,"x_max":749,"o":"m 438 -4 q 249 42 331 -4 q 119 172 167 89 q 72 361 72 256 q 116 550 72 468 q 237 679 160 632 q 411 726 314 726 q 584 681 507 726 q 705 553 661 635 q 749 367 749 472 q 749 360 749 364 q 749 354 749 357 l 103 354 l 103 392 l 724 392 l 706 369 q 667 531 706 460 q 563 644 629 603 q 411 685 496 685 q 260 644 326 685 q 155 531 193 603 q 117 368 117 460 l 117 360 q 158 192 117 265 q 272 78 200 119 q 438 38 344 38 q 572 64 508 38 q 676 144 635 90 l 706 114 q 587 26 657 56 q 438 -4 517 -4 m 382 843 l 210 1000 l 261 1000 l 424 864 l 399 864 l 561 1000 l 613 1000 l 440 843 l 382 843 z "},"Ĝ":{"ha":1075,"x_min":79,"x_max":926,"o":"m 585 -6 q 384 31 476 -6 q 223 135 292 68 q 117 291 154 201 q 79 486 79 381 q 117 681 79 592 q 223 838 154 771 q 384 941 292 904 q 585 978 476 978 q 775 946 686 978 q 926 850 864 914 l 899 818 q 754 908 832 882 q 586 935 676 935 q 403 901 488 935 q 257 806 319 867 q 160 663 194 744 q 126 486 126 582 q 160 309 126 390 q 257 167 194 228 q 403 72 319 106 q 586 38 488 38 q 755 65 675 38 q 897 154 835 92 l 925 119 q 772 26 861 57 q 585 -6 683 -6 m 881 122 l 881 479 l 925 479 l 925 119 l 881 122 z "},"ĝ":{"ha":943,"x_min":72,"x_max":789,"o":"m 449 -274 q 265 -242 351 -274 q 125 -157 178 -211 l 151 -122 q 283 -203 207 -175 q 447 -232 360 -232 q 671 -160 599 -232 q 743 64 743 -89 l 743 282 l 757 376 l 744 471 l 744 721 l 789 721 l 789 69 q 704 -190 789 -107 q 449 -274 619 -274 m 429 25 q 247 70 328 25 q 119 194 167 115 q 72 376 72 274 q 119 558 72 479 q 247 682 167 638 q 429 726 328 726 q 607 683 529 726 q 731 560 685 639 q 776 376 776 482 q 731 192 776 271 q 607 69 685 113 q 429 25 529 25 m 431 67 q 592 106 522 67 q 703 215 663 144 q 743 376 743 286 q 703 537 743 468 q 592 644 663 606 q 431 683 522 683 q 271 644 342 683 q 159 537 200 606 q 118 376 118 468 q 159 215 118 286 q 271 106 200 144 q 431 67 342 67 m 239 843 l 411 1000 l 469 1000 l 642 843 l 590 843 l 428 979 l 453 979 l 290 843 l 239 843 z "},"Ğ":{"ha":1075,"x_min":79,"x_max":926,"o":"m 585 -6 q 384 31 476 -6 q 223 135 292 68 q 117 291 154 201 q 79 486 79 381 q 117 681 79 592 q 223 838 154 771 q 384 941 292 904 q 585 978 476 978 q 775 946 686 978 q 926 850 864 914 l 899 818 q 754 908 832 882 q 586 935 676 935 q 403 901 488 935 q 257 806 319 867 q 160 663 194 744 q 126 486 126 582 q 160 309 126 390 q 257 167 194 228 q 403 72 319 106 q 586 38 488 38 q 755 65 675 38 q 897 154 835 92 l 925 119 q 772 26 861 57 q 585 -6 683 -6 m 881 122 l 881 479 l 925 479 l 925 119 l 881 122 z "},"ğ":{"ha":943,"x_min":72,"x_max":789,"o":"m 449 -274 q 265 -242 351 -274 q 125 -157 178 -211 l 151 -122 q 283 -203 207 -175 q 447 -232 360 -232 q 671 -160 599 -232 q 743 64 743 -89 l 743 282 l 757 376 l 744 471 l 744 721 l 789 721 l 789 69 q 704 -190 789 -107 q 449 -274 619 -274 m 429 25 q 247 70 328 25 q 119 194 167 115 q 72 376 72 274 q 119 558 72 479 q 247 682 167 638 q 429 726 328 726 q 607 683 529 726 q 731 560 685 639 q 776 376 776 482 q 731 192 776 271 q 607 69 685 113 q 429 25 529 25 m 431 67 q 592 106 522 67 q 703 215 663 144 q 743 376 743 286 q 703 537 743 468 q 592 644 663 606 q 431 683 522 683 q 271 644 342 683 q 159 537 200 606 q 118 376 118 468 q 159 215 118 286 q 271 106 200 144 q 431 67 342 67 m 440 839 q 308 883 363 839 q 250 1000 253 926 l 288 1000 q 334 908 290 942 q 440 874 378 874 q 548 908 504 874 q 593 1000 592 942 l 631 1000 q 574 883 629 926 q 440 839 518 839 z "},"Ġ":{"ha":1075,"x_min":79,"x_max":926,"o":"m 585 -6 q 384 31 476 -6 q 223 135 292 68 q 117 291 154 201 q 79 486 79 381 q 117 681 79 592 q 223 838 154 771 q 384 941 292 904 q 585 978 476 978 q 775 946 686 978 q 926 850 864 914 l 899 818 q 754 908 832 882 q 586 935 676 935 q 403 901 488 935 q 257 806 319 867 q 160 663 194 744 q 126 486 126 582 q 160 309 126 390 q 257 167 194 228 q 403 72 319 106 q 586 38 488 38 q 755 65 675 38 q 897 154 835 92 l 925 119 q 772 26 861 57 q 585 -6 683 -6 m 881 122 l 881 479 l 925 479 l 925 119 l 881 122 z "},"ġ":{"ha":943,"x_min":72,"x_max":789,"o":"m 449 -274 q 265 -242 351 -274 q 125 -157 178 -211 l 151 -122 q 283 -203 207 -175 q 447 -232 360 -232 q 671 -160 599 -232 q 743 64 743 -89 l 743 282 l 757 376 l 744 471 l 744 721 l 789 721 l 789 69 q 704 -190 789 -107 q 449 -274 619 -274 m 429 25 q 247 70 328 25 q 119 194 167 115 q 72 376 72 274 q 119 558 72 479 q 247 682 167 638 q 429 726 328 726 q 607 683 529 726 q 731 560 685 639 q 776 376 776 482 q 731 192 776 271 q 607 69 685 113 q 429 25 529 25 m 431 67 q 592 106 522 67 q 703 215 663 144 q 743 376 743 286 q 703 537 743 468 q 592 644 663 606 q 431 683 522 683 q 271 644 342 683 q 159 537 200 606 q 118 376 118 468 q 159 215 118 286 q 271 106 200 144 q 431 67 342 67 m 440 886 q 409 899 422 886 q 396 931 396 913 q 409 962 396 949 q 440 975 422 975 q 472 962 458 975 q 485 931 485 949 q 472 899 485 913 q 440 886 458 886 z "},"Ģ":{"ha":1075,"x_min":79,"x_max":926,"o":"m 585 -6 q 384 31 476 -6 q 223 135 292 68 q 117 291 154 201 q 79 486 79 381 q 117 681 79 592 q 223 838 154 771 q 384 941 292 904 q 585 978 476 978 q 775 946 686 978 q 926 850 864 914 l 899 818 q 754 908 832 882 q 586 935 676 935 q 403 901 488 935 q 257 806 319 867 q 160 663 194 744 q 126 486 126 582 q 160 309 126 390 q 257 167 194 228 q 403 72 319 106 q 586 38 488 38 q 755 65 675 38 q 897 154 835 92 l 925 119 q 772 26 861 57 q 585 -6 683 -6 m 881 122 l 881 479 l 925 479 l 925 119 l 881 122 m 524 -361 l 556 -225 l 558 -247 q 529 -235 542 -247 q 517 -206 517 -222 q 528 -177 517 -189 q 558 -165 540 -165 q 589 -178 578 -165 q 600 -206 600 -192 q 597 -230 600 -218 q 590 -256 594 -242 l 557 -361 l 524 -361 z "},"ģ":{"ha":943,"x_min":72,"x_max":789,"o":"m 449 -274 q 265 -242 351 -274 q 125 -157 178 -211 l 151 -122 q 283 -203 207 -175 q 447 -232 360 -232 q 671 -160 599 -232 q 743 64 743 -89 l 743 282 l 757 376 l 744 471 l 744 721 l 789 721 l 789 69 q 704 -190 789 -107 q 449 -274 619 -274 m 429 25 q 247 70 328 25 q 119 194 167 115 q 72 376 72 274 q 119 558 72 479 q 247 682 167 638 q 429 726 328 726 q 607 683 529 726 q 731 560 685 639 q 776 376 776 482 q 731 192 776 271 q 607 69 685 113 q 429 25 529 25 m 431 67 q 592 106 522 67 q 703 215 663 144 q 743 376 743 286 q 703 537 743 468 q 592 644 663 606 q 431 683 522 683 q 271 644 342 683 q 159 537 200 606 q 118 376 118 468 q 159 215 118 286 q 271 106 200 144 q 431 67 342 67 m 440 839 q 408 851 419 839 q 397 879 397 864 q 400 901 397 890 q 407 925 403 911 l 447 1061 l 481 1061 l 444 899 l 440 919 q 472 908 460 919 q 483 879 483 897 q 472 851 483 863 q 440 839 460 839 z "},"Ĥ":{"ha":1132,"x_min":178,"x_max":954,"o":"m 907 972 l 954 972 l 954 0 l 907 0 l 907 972 m 225 0 l 178 0 l 178 972 l 225 972 l 225 0 m 915 472 l 217 472 l 217 515 l 915 515 l 915 472 z "},"ĥ":{"ha":931,"x_min":-25,"x_max":785,"o":"m 494 726 q 648 692 583 726 q 749 590 713 657 q 785 424 785 522 l 785 0 l 739 0 l 739 421 q 674 617 739 550 q 490 683 608 683 q 335 647 400 683 q 235 544 269 611 q 200 389 200 478 l 200 0 l 154 0 l 154 1031 l 200 1031 l 200 518 l 193 531 q 303 674 226 621 q 494 726 381 726 z "},"Ħ":{"ha":1136,"x_min":26,"x_max":1111,"o":"m 908 972 l 956 972 l 956 0 l 908 0 l 908 972 m 226 0 l 179 0 l 179 972 l 226 972 l 226 0 m 917 472 l 218 472 l 218 515 l 917 515 l 917 472 m 26 731 l 26 771 l 1111 771 l 1111 731 l 26 731 z "},"ħ":{"ha":931,"x_min":0,"x_max":785,"o":"m 494 726 q 648 692 583 726 q 749 590 713 657 q 785 424 785 522 l 785 0 l 739 0 l 739 421 q 674 617 739 550 q 490 683 608 683 q 335 647 400 683 q 235 544 269 611 q 200 389 200 478 l 200 0 l 154 0 l 154 1031 l 200 1031 l 200 518 l 193 531 q 303 674 226 621 q 494 726 381 726 m 0 857 l 0 896 l 531 896 l 531 857 l 0 857 z "},"Ĩ":{"ha":403,"x_min":6,"x_max":397,"o":"m 178 0 l 178 972 l 225 972 l 225 0 l 178 0 z "},"ĩ":{"ha":354,"x_min":15,"x_max":338,"o":"m 154 0 l 154 721 l 200 721 l 200 0 l 154 0 m 250 857 q 203 872 222 857 q 167 905 183 886 q 137 938 151 924 q 103 953 122 953 q 64 928 79 953 q 49 861 49 904 l 15 861 q 38 954 15 919 q 103 989 61 989 q 150 974 131 989 q 185 941 169 960 q 216 908 201 922 q 250 893 231 893 q 289 918 274 893 q 304 982 304 943 l 338 982 q 315 892 338 926 q 250 857 293 857 z "},"Ī":{"ha":403,"x_min":42,"x_max":361,"o":"m 178 0 l 178 972 l 225 972 l 225 0 l 178 0 z "},"ī":{"ha":354,"x_min":17,"x_max":336,"o":"m 154 0 l 154 721 l 200 721 l 200 0 l 154 0 m 17 903 l 17 940 l 336 940 l 336 903 l 17 903 z "},"Ĭ":{"ha":403,"x_min":11,"x_max":392,"o":"m 178 0 l 178 972 l 225 972 l 225 0 l 178 0 z "},"ĭ":{"ha":354,"x_min":21,"x_max":332,"o":"m 154 0 l 154 721 l 200 721 l 200 0 l 154 0 m 176 839 q 65 883 110 839 q 21 1000 21 926 l 57 1000 q 90 908 57 942 q 176 874 124 874 q 263 908 229 874 q 296 1000 296 942 l 332 1000 q 288 883 332 926 q 176 839 244 839 z "},"Į":{"ha":403,"x_min":108,"x_max":283,"o":"m 178 0 l 178 972 l 225 972 l 225 0 l 178 0 m 210 -299 q 136 -267 164 -299 q 108 -186 108 -235 q 127 -89 108 -144 q 207 26 146 -33 l 225 0 q 159 -103 171 -60 q 147 -182 147 -147 q 167 -243 147 -222 q 213 -264 186 -264 q 243 -257 229 -264 q 267 -239 257 -250 l 283 -267 q 210 -299 256 -299 z "},"į":{"ha":354,"x_min":83,"x_max":258,"o":"m 154 0 l 154 721 l 200 721 l 200 0 l 154 0 m 176 910 q 144 924 158 910 q 131 954 131 938 q 144 987 131 974 q 176 1000 158 1000 q 209 987 196 1000 q 222 956 222 974 q 209 924 222 938 q 176 910 196 910 m 185 -299 q 111 -267 139 -299 q 83 -186 83 -235 q 102 -89 83 -144 q 182 26 121 -33 l 200 0 q 134 -103 146 -60 q 122 -182 122 -147 q 142 -243 122 -222 q 188 -264 161 -264 q 218 -257 204 -264 q 242 -239 232 -250 l 258 -267 q 185 -299 231 -299 z "},"İ":{"ha":403,"x_min":157,"x_max":246,"o":"m 178 0 l 178 972 l 225 972 l 225 0 l 178 0 z "},"ı":{"ha":354,"x_min":154,"x_max":200,"o":"m 154 0 l 154 721 l 200 721 l 200 0 l 154 0 z "},"Ĳ":{"ha":993,"x_min":158,"x_max":824,"o":"m 454 -6 q 292 21 368 -6 q 158 86 217 47 l 182 124 q 308 60 239 83 q 456 38 378 38 q 691 130 606 38 q 776 410 776 222 l 776 972 l 824 972 l 824 410 q 777 180 824 272 q 649 41 731 88 q 454 -6 567 -6 m 169 407 l 169 972 l 217 972 l 217 407 l 169 407 z "},"ĳ":{"ha":715,"x_min":131,"x_max":583,"o":"m 154 0 l 154 721 l 200 721 l 200 0 l 154 0 m 176 910 q 144 924 158 910 q 131 954 131 938 q 144 987 131 974 q 176 1000 158 1000 q 209 987 196 1000 q 222 956 222 974 q 209 924 222 938 q 176 910 196 910 m 381 -274 q 298 -262 338 -274 q 233 -224 258 -250 l 257 -190 q 378 -233 303 -233 q 480 -194 444 -233 q 515 -81 515 -156 l 515 721 l 561 721 l 561 -86 q 515 -222 561 -171 q 381 -274 468 -274 m 538 910 q 506 924 519 910 q 492 954 492 938 q 506 987 492 974 q 538 1000 519 1000 q 570 987 557 1000 q 583 956 583 974 q 570 924 583 938 q 538 910 557 910 z "},"Ĵ":{"ha":671,"x_min":3,"x_max":501,"o":"m 251 -6 q 109 31 175 -6 q 3 132 43 68 l 32 163 q 129 70 72 103 q 253 38 186 38 q 454 278 454 38 l 454 929 l 93 929 l 93 972 l 501 972 l 501 276 q 439 65 501 136 q 251 -6 376 -6 z "},"ĵ":{"ha":361,"x_min":-121,"x_max":350,"o":"m 26 -274 q -56 -262 -17 -274 q -121 -224 -96 -250 l -97 -190 q 24 -233 -51 -233 q 126 -194 90 -233 q 161 -81 161 -156 l 161 721 l 207 721 l 207 -86 q 160 -222 207 -171 q 26 -274 114 -274 m 17 843 l 156 1000 l 211 1000 l 350 843 l 300 843 l 172 979 l 194 979 l 67 843 l 17 843 z "},"Ķ":{"ha":968,"x_min":178,"x_max":950,"o":"m 218 250 l 217 310 l 861 972 l 919 972 l 485 524 l 457 496 l 218 250 m 178 0 l 178 972 l 225 972 l 225 0 l 178 0 m 892 0 l 440 514 l 472 546 l 950 0 l 892 0 m 481 -361 l 513 -225 l 515 -247 q 486 -235 499 -247 q 474 -206 474 -222 q 485 -177 474 -189 q 515 -165 497 -165 q 546 -178 535 -165 q 557 -206 557 -192 q 554 -230 557 -218 q 547 -256 551 -242 l 514 -361 l 481 -361 z "},"ķ":{"ha":803,"x_min":154,"x_max":782,"o":"m 188 208 l 188 264 l 689 721 l 750 721 l 435 429 l 404 406 l 188 208 m 154 0 l 154 1031 l 200 1031 l 200 0 l 154 0 m 724 0 l 396 411 l 429 443 l 782 0 l 724 0 m 393 -361 l 425 -225 l 428 -247 q 399 -235 411 -247 q 386 -206 386 -222 q 398 -177 386 -189 q 428 -165 410 -165 q 458 -178 447 -165 q 469 -206 469 -192 q 467 -230 469 -218 q 460 -256 464 -242 l 426 -361 l 393 -361 z "},"ĸ":{"ha":785,"x_min":154,"x_max":782,"o":"m 188 208 l 188 264 l 689 721 l 750 721 l 435 429 l 404 406 l 188 208 m 154 0 l 154 721 l 200 721 l 200 0 l 154 0 m 724 0 l 396 411 l 429 443 l 782 0 l 724 0 z "},"Ĺ":{"ha":808,"x_min":132,"x_max":794,"o":"m 178 0 l 178 972 l 225 972 l 225 43 l 794 43 l 794 0 l 178 0 z "},"ĺ":{"ha":354,"x_min":107,"x_max":375,"o":"m 154 0 l 154 1031 l 200 1031 l 200 0 l 154 0 m 107 1153 l 300 1310 l 375 1310 l 163 1153 l 107 1153 z "},"Ļ":{"ha":808,"x_min":178,"x_max":794,"o":"m 178 0 l 178 972 l 225 972 l 225 43 l 794 43 l 794 0 l 178 0 m 467 -361 l 499 -225 l 501 -247 q 472 -235 485 -247 q 460 -206 460 -222 q 472 -177 460 -189 q 501 -165 483 -165 q 532 -178 521 -165 q 543 -206 543 -192 q 540 -230 543 -218 q 533 -256 538 -242 l 500 -361 l 467 -361 z "},"ļ":{"ha":354,"x_min":135,"x_max":218,"o":"m 154 0 l 154 1031 l 200 1031 l 200 0 l 154 0 m 142 -361 l 174 -225 l 176 -247 q 147 -235 160 -247 q 135 -206 135 -222 q 147 -177 135 -189 q 176 -165 158 -165 q 207 -178 196 -165 q 218 -206 218 -192 q 215 -230 218 -218 q 208 -256 213 -242 l 175 -361 l 142 -361 z "},"Ľ":{"ha":808,"x_min":178,"x_max":794,"o":"m 178 0 l 178 972 l 225 972 l 225 43 l 794 43 l 794 0 l 178 0 m 618 750 l 618 1003 l 660 1003 l 654 750 l 618 750 z "},"ľ":{"ha":354,"x_min":154,"x_max":378,"o":"m 154 0 l 154 1031 l 200 1031 l 200 0 l 154 0 m 336 808 l 336 1061 l 378 1061 l 372 808 l 336 808 z "},"Ŀ":{"ha":808,"x_min":178,"x_max":794,"o":"m 178 0 l 178 972 l 225 972 l 225 43 l 794 43 l 794 0 l 178 0 m 606 464 q 574 477 588 464 q 561 508 561 490 q 574 540 561 528 q 606 553 588 553 q 637 540 624 553 q 650 508 650 528 q 637 477 650 490 q 606 464 624 464 z "},"ŀ":{"ha":369,"x_min":154,"x_max":406,"o":"m 154 0 l 154 1031 l 200 1031 l 200 0 l 154 0 m 363 443 q 333 456 346 443 q 319 486 319 469 q 333 517 319 504 q 363 529 346 529 q 393 517 381 529 q 406 486 406 504 q 393 456 406 469 q 363 443 381 443 z "},"Ł":{"ha":811,"x_min":49,"x_max":796,"o":"m 179 0 l 179 972 l 226 972 l 226 43 l 796 43 l 796 0 l 179 0 m 72 383 l 49 413 l 404 675 l 426 646 l 72 383 z "},"ł":{"ha":358,"x_min":25,"x_max":333,"o":"m 156 0 l 156 1031 l 201 1031 l 201 0 l 156 0 m 49 368 l 25 397 l 311 608 l 333 579 l 49 368 z "},"Ń":{"ha":1132,"x_min":178,"x_max":954,"o":"m 178 0 l 178 972 l 217 972 l 931 56 l 907 56 l 907 972 l 954 972 l 954 0 l 915 0 l 201 917 l 225 917 l 225 0 l 178 0 z "},"ń":{"ha":931,"x_min":154,"x_max":785,"o":"m 494 726 q 648 692 583 726 q 749 590 713 657 q 785 424 785 522 l 785 0 l 739 0 l 739 421 q 674 617 739 550 q 490 683 608 683 q 335 647 400 683 q 235 544 269 611 q 200 389 200 478 l 200 0 l 154 0 l 154 721 l 199 721 l 199 518 l 193 531 q 303 674 226 621 q 494 726 381 726 m 397 843 l 590 1000 l 665 1000 l 453 843 l 397 843 z "},"Ņ":{"ha":1132,"x_min":178,"x_max":954,"o":"m 178 0 l 178 972 l 217 972 l 931 56 l 907 56 l 907 972 l 954 972 l 954 0 l 915 0 l 201 917 l 225 917 l 225 0 l 178 0 m 532 -361 l 564 -225 l 567 -247 q 538 -235 550 -247 q 525 -206 525 -222 q 537 -177 525 -189 q 567 -165 549 -165 q 597 -178 586 -165 q 608 -206 608 -192 q 606 -230 608 -218 q 599 -256 603 -242 l 565 -361 l 532 -361 z "},"ņ":{"ha":931,"x_min":154,"x_max":785,"o":"m 494 726 q 648 692 583 726 q 749 590 713 657 q 785 424 785 522 l 785 0 l 739 0 l 739 421 q 674 617 739 550 q 490 683 608 683 q 335 647 400 683 q 235 544 269 611 q 200 389 200 478 l 200 0 l 154 0 l 154 721 l 199 721 l 199 518 l 193 531 q 303 674 226 621 q 494 726 381 726 m 432 -361 l 464 -225 l 467 -247 q 438 -235 450 -247 q 425 -206 425 -222 q 437 -177 425 -189 q 467 -165 449 -165 q 497 -178 486 -165 q 508 -206 508 -192 q 506 -230 508 -218 q 499 -256 503 -242 l 465 -361 l 432 -361 z "},"Ň":{"ha":1132,"x_min":178,"x_max":954,"o":"m 178 0 l 178 972 l 217 972 l 931 56 l 907 56 l 907 972 l 954 972 l 954 0 l 915 0 l 201 917 l 225 917 l 225 0 l 178 0 z "},"ň":{"ha":931,"x_min":154,"x_max":785,"o":"m 494 726 q 648 692 583 726 q 749 590 713 657 q 785 424 785 522 l 785 0 l 739 0 l 739 421 q 674 617 739 550 q 490 683 608 683 q 335 647 400 683 q 235 544 269 611 q 200 389 200 478 l 200 0 l 154 0 l 154 721 l 199 721 l 199 518 l 193 531 q 303 674 226 621 q 494 726 381 726 m 438 843 l 265 1000 l 317 1000 l 479 864 l 454 864 l 617 1000 l 668 1000 l 496 843 l 438 843 z "},"ŉ":{"ha":988,"x_min":74,"x_max":840,"o":"m 550 726 q 703 692 639 726 q 804 590 768 657 q 840 424 840 522 l 840 0 l 794 0 l 794 421 q 729 617 794 550 q 546 683 664 683 q 390 647 456 683 q 290 544 325 611 q 256 389 256 478 l 256 0 l 210 0 l 210 721 l 254 721 l 254 518 l 249 531 q 359 674 282 621 q 550 726 436 726 z "},"Ŋ":{"ha":1132,"x_min":178,"x_max":954,"o":"m 178 0 l 178 972 l 217 972 l 931 56 l 915 0 l 201 917 l 225 917 l 225 0 l 178 0 m 704 -274 q 566 -239 631 -274 q 461 -142 501 -204 l 489 -111 q 585 -200 529 -168 q 706 -232 640 -232 q 907 10 907 -232 l 907 972 l 954 972 l 954 10 q 892 -203 954 -132 q 704 -274 829 -274 z "},"ŋ":{"ha":931,"x_min":154,"x_max":785,"o":"m 494 726 q 648 692 583 726 q 749 590 713 657 q 785 424 785 522 l 785 -86 q 738 -222 785 -171 q 604 -274 692 -274 q 522 -262 561 -274 q 457 -224 483 -250 l 481 -190 q 601 -233 526 -233 q 703 -194 668 -233 q 739 -81 739 -156 l 739 421 q 674 617 739 550 q 490 683 608 683 q 335 647 400 683 q 235 544 269 611 q 200 389 200 478 l 200 0 l 154 0 l 154 721 l 199 721 l 199 518 l 193 531 q 303 674 226 621 q 494 726 381 726 z "},"Ō":{"ha":1163,"x_min":79,"x_max":1083,"o":"m 581 -6 q 382 31 474 -6 q 222 135 290 68 q 117 291 154 201 q 79 486 79 381 q 117 681 79 592 q 222 838 154 771 q 382 941 290 904 q 581 978 474 978 q 781 941 689 978 q 940 838 872 904 q 1045 681 1007 771 q 1083 486 1083 592 q 1045 291 1083 381 q 940 135 1007 201 q 781 31 872 68 q 581 -6 689 -6 m 581 38 q 761 71 678 38 q 906 165 844 104 q 1002 308 968 226 q 1036 486 1036 389 q 1002 665 1036 583 q 906 807 968 746 q 761 901 844 868 q 581 935 678 935 q 401 901 485 935 q 256 807 318 868 q 160 665 194 746 q 126 486 126 583 q 160 308 126 389 q 256 165 194 226 q 401 71 318 104 q 581 38 485 38 z "},"ō":{"ha":853,"x_min":72,"x_max":781,"o":"m 426 -4 q 245 42 325 -4 q 119 172 165 89 q 72 361 72 256 q 119 550 72 468 q 245 679 165 632 q 426 726 325 726 q 608 679 528 726 q 735 550 689 632 q 781 361 781 468 q 735 172 781 256 q 608 42 689 89 q 426 -4 528 -4 m 426 38 q 585 78 515 38 q 695 193 656 119 q 735 361 735 267 q 695 530 735 457 q 585 643 656 603 q 426 683 515 683 q 269 643 339 683 q 159 530 200 603 q 118 361 118 457 q 159 193 118 267 q 269 78 200 119 q 426 38 339 38 m 231 903 l 231 940 l 622 940 l 622 903 l 231 903 z "},"Ŏ":{"ha":1163,"x_min":79,"x_max":1083,"o":"m 581 -6 q 382 31 474 -6 q 222 135 290 68 q 117 291 154 201 q 79 486 79 381 q 117 681 79 592 q 222 838 154 771 q 382 941 290 904 q 581 978 474 978 q 781 941 689 978 q 940 838 872 904 q 1045 681 1007 771 q 1083 486 1083 592 q 1045 291 1083 381 q 940 135 1007 201 q 781 31 872 68 q 581 -6 689 -6 m 581 38 q 761 71 678 38 q 906 165 844 104 q 1002 308 968 226 q 1036 486 1036 389 q 1002 665 1036 583 q 906 807 968 746 q 761 901 844 868 q 581 935 678 935 q 401 901 485 935 q 256 807 318 868 q 160 665 194 746 q 126 486 126 583 q 160 308 126 389 q 256 165 194 226 q 401 71 318 104 q 581 38 485 38 z "},"ŏ":{"ha":853,"x_min":72,"x_max":781,"o":"m 426 -4 q 245 42 325 -4 q 119 172 165 89 q 72 361 72 256 q 119 550 72 468 q 245 679 165 632 q 426 726 325 726 q 608 679 528 726 q 735 550 689 632 q 781 361 781 468 q 735 172 781 256 q 608 42 689 89 q 426 -4 528 -4 m 426 38 q 585 78 515 38 q 695 193 656 119 q 735 361 735 267 q 695 530 735 457 q 585 643 656 603 q 426 683 515 683 q 269 643 339 683 q 159 530 200 603 q 118 361 118 457 q 159 193 118 267 q 269 78 200 119 q 426 38 339 38 m 426 839 q 294 883 349 839 q 236 1000 239 926 l 274 1000 q 320 908 276 942 q 426 874 364 874 q 534 908 490 874 q 579 1000 578 942 l 617 1000 q 560 883 615 926 q 426 839 504 839 z "},"Ő":{"ha":1163,"x_min":79,"x_max":1083,"o":"m 581 -6 q 382 31 474 -6 q 222 135 290 68 q 117 291 154 201 q 79 486 79 381 q 117 681 79 592 q 222 838 154 771 q 382 941 290 904 q 581 978 474 978 q 781 941 689 978 q 940 838 872 904 q 1045 681 1007 771 q 1083 486 1083 592 q 1045 291 1083 381 q 940 135 1007 201 q 781 31 872 68 q 581 -6 689 -6 m 581 38 q 761 71 678 38 q 906 165 844 104 q 1002 308 968 226 q 1036 486 1036 389 q 1002 665 1036 583 q 906 807 968 746 q 761 901 844 868 q 581 935 678 935 q 401 901 485 935 q 256 807 318 868 q 160 665 194 746 q 126 486 126 583 q 160 308 126 389 q 256 165 194 226 q 401 71 318 104 q 581 38 485 38 z "},"ő":{"ha":853,"x_min":72,"x_max":781,"o":"m 426 -4 q 245 42 325 -4 q 119 172 165 89 q 72 361 72 256 q 119 550 72 468 q 245 679 165 632 q 426 726 325 726 q 608 679 528 726 q 735 550 689 632 q 781 361 781 468 q 735 172 781 256 q 608 42 689 89 q 426 -4 528 -4 m 426 38 q 585 78 515 38 q 695 193 656 119 q 735 361 735 267 q 695 530 735 457 q 585 643 656 603 q 426 683 515 683 q 269 643 339 683 q 159 530 200 603 q 118 361 118 457 q 159 193 118 267 q 269 78 200 119 q 426 38 339 38 m 501 843 l 651 1000 l 714 1000 l 553 843 l 501 843 m 300 843 l 450 1000 l 513 1000 l 351 843 l 300 843 z "},"Œ":{"ha":1547,"x_min":79,"x_max":1454,"o":"m 594 0 q 325 63 440 0 q 144 235 210 125 q 79 485 79 344 q 144 736 79 626 q 325 909 210 846 q 594 972 440 972 l 811 972 l 811 929 l 596 929 q 349 872 454 929 q 185 715 243 815 q 126 485 126 614 q 185 256 126 356 q 349 99 243 156 q 596 43 454 43 l 811 43 l 811 0 l 594 0 m 836 515 l 1372 515 l 1372 472 l 836 472 l 836 515 m 844 43 l 1454 43 l 1454 0 l 797 0 l 797 972 l 1435 972 l 1435 929 l 844 929 l 844 43 z "},"œ":{"ha":1485,"x_min":72,"x_max":1413,"o":"m 426 -4 q 245 42 325 -4 q 119 172 165 89 q 72 361 72 256 q 119 550 72 468 q 245 679 165 632 q 426 726 325 726 q 607 679 528 726 q 731 550 686 632 q 776 361 776 468 q 731 172 776 256 q 607 42 686 89 q 426 -4 528 -4 m 426 38 q 585 78 515 38 q 695 193 656 119 q 735 361 735 267 q 695 530 735 457 q 585 643 656 603 q 426 683 515 683 q 269 643 339 683 q 159 530 200 603 q 118 361 118 457 q 159 193 118 267 q 269 78 200 119 q 426 38 339 38 m 1101 -4 q 913 42 996 -4 q 785 172 831 89 q 739 361 739 256 q 783 550 739 468 q 902 679 826 632 q 1075 726 978 726 q 1248 681 1171 726 q 1369 553 1325 635 q 1413 367 1413 472 q 1413 360 1413 364 q 1413 354 1413 357 l 767 354 l 767 392 l 1388 392 l 1369 369 q 1331 531 1369 460 q 1226 644 1293 603 q 1075 685 1160 685 q 924 644 990 685 q 819 531 857 603 q 781 368 781 460 l 781 360 q 822 192 781 265 q 937 78 864 119 q 1101 38 1010 38 q 1235 64 1172 38 q 1340 144 1299 90 l 1369 114 q 1251 26 1322 56 q 1101 -4 1181 -4 z "},"Ŕ":{"ha":997,"x_min":178,"x_max":917,"o":"m 178 0 l 178 972 l 515 972 q 723 933 636 972 q 856 823 810 894 q 901 650 901 751 q 856 476 901 549 q 723 365 810 404 q 515 326 636 326 l 204 326 l 225 349 l 225 0 l 178 0 m 861 0 l 608 353 l 663 353 l 917 0 l 861 0 m 225 349 l 204 369 l 518 369 q 769 443 682 369 q 856 650 856 517 q 769 856 856 783 q 518 929 682 929 l 204 929 l 225 951 l 225 349 z "},"ŕ":{"ha":539,"x_min":154,"x_max":515,"o":"m 154 0 l 154 721 l 199 721 l 199 522 l 194 535 q 297 676 224 625 q 479 726 369 726 l 479 681 q 473 681 476 681 q 467 681 469 681 q 271 601 342 681 q 200 383 200 522 l 200 0 l 154 0 m 247 843 l 440 1000 l 515 1000 l 303 843 l 247 843 z "},"Ŗ":{"ha":997,"x_min":178,"x_max":917,"o":"m 178 0 l 178 972 l 515 972 q 723 933 636 972 q 856 823 810 894 q 901 650 901 751 q 856 476 901 549 q 723 365 810 404 q 515 326 636 326 l 204 326 l 225 349 l 225 0 l 178 0 m 861 0 l 608 353 l 663 353 l 917 0 l 861 0 m 225 349 l 204 369 l 518 369 q 769 443 682 369 q 856 650 856 517 q 769 856 856 783 q 518 929 682 929 l 204 929 l 225 951 l 225 349 m 475 -361 l 507 -225 l 510 -247 q 481 -235 493 -247 q 468 -206 468 -222 q 480 -177 468 -189 q 510 -165 492 -165 q 540 -178 529 -165 q 551 -206 551 -192 q 549 -230 551 -218 q 542 -256 546 -242 l 508 -361 l 475 -361 z "},"ŗ":{"ha":539,"x_min":135,"x_max":479,"o":"m 154 0 l 154 721 l 199 721 l 199 522 l 194 535 q 297 676 224 625 q 479 726 369 726 l 479 681 q 473 681 476 681 q 467 681 469 681 q 271 601 342 681 q 200 383 200 522 l 200 0 l 154 0 m 142 -361 l 174 -225 l 176 -247 q 147 -235 160 -247 q 135 -206 135 -222 q 147 -177 135 -189 q 176 -165 158 -165 q 207 -178 196 -165 q 218 -206 218 -192 q 215 -230 218 -218 q 208 -256 213 -242 l 175 -361 l 142 -361 z "},"Ř":{"ha":997,"x_min":178,"x_max":917,"o":"m 178 0 l 178 972 l 515 972 q 723 933 636 972 q 856 823 810 894 q 901 650 901 751 q 856 476 901 549 q 723 365 810 404 q 515 326 636 326 l 204 326 l 225 349 l 225 0 l 178 0 m 861 0 l 608 353 l 663 353 l 917 0 l 861 0 m 225 349 l 204 369 l 518 369 q 769 443 682 369 q 856 650 856 517 q 769 856 856 783 q 518 929 682 929 l 204 929 l 225 951 l 225 349 z "},"ř":{"ha":539,"x_min":115,"x_max":518,"o":"m 154 0 l 154 721 l 199 721 l 199 522 l 194 535 q 297 676 224 625 q 479 726 369 726 l 479 681 q 473 681 476 681 q 467 681 469 681 q 271 601 342 681 q 200 383 200 522 l 200 0 l 154 0 m 288 843 l 115 1000 l 167 1000 l 329 864 l 304 864 l 467 1000 l 518 1000 l 346 843 l 288 843 z "},"Ś":{"ha":839,"x_min":76,"x_max":763,"o":"m 424 -6 q 222 33 317 -6 q 76 129 126 71 l 101 163 q 235 73 149 110 q 422 36 322 36 q 589 64 524 36 q 685 138 654 92 q 717 242 717 185 q 683 349 717 308 q 595 413 650 389 q 476 451 540 436 q 345 484 411 467 q 224 528 279 501 q 137 603 169 556 q 104 728 104 651 q 139 850 104 793 q 247 942 174 907 q 436 978 321 978 q 592 953 515 978 q 724 889 669 929 l 703 851 q 574 915 644 894 q 438 936 503 936 q 276 908 340 936 q 181 832 211 879 q 150 728 150 785 q 183 619 150 660 q 272 556 217 579 q 392 517 326 532 q 522 484 457 501 q 642 439 588 467 q 730 365 697 411 q 763 243 763 318 q 727 121 763 178 q 616 29 692 64 q 424 -6 540 -6 z "},"ś":{"ha":653,"x_min":43,"x_max":603,"o":"m 328 -4 q 161 23 239 -4 q 43 92 83 50 l 65 128 q 175 64 106 92 q 329 36 244 36 q 503 78 450 36 q 557 186 557 119 q 531 263 557 235 q 461 306 504 290 q 366 330 418 321 q 261 351 314 339 q 165 383 208 363 q 96 439 122 403 q 69 535 69 475 q 98 629 69 586 q 185 699 126 672 q 333 726 243 726 q 467 706 400 726 q 575 653 535 686 l 551 617 q 451 668 508 651 q 332 685 393 685 q 168 642 219 685 q 117 536 117 599 q 143 456 117 486 q 213 411 169 426 q 308 386 256 396 q 412 365 360 376 q 507 335 464 354 q 576 281 550 315 q 603 186 603 246 q 572 87 603 131 q 480 19 540 43 q 328 -4 419 -4 m 257 843 l 450 1000 l 525 1000 l 313 843 l 257 843 z "},"Ŝ":{"ha":839,"x_min":76,"x_max":763,"o":"m 424 -6 q 222 33 317 -6 q 76 129 126 71 l 101 163 q 235 73 149 110 q 422 36 322 36 q 589 64 524 36 q 685 138 654 92 q 717 242 717 185 q 683 349 717 308 q 595 413 650 389 q 476 451 540 436 q 345 484 411 467 q 224 528 279 501 q 137 603 169 556 q 104 728 104 651 q 139 850 104 793 q 247 942 174 907 q 436 978 321 978 q 592 953 515 978 q 724 889 669 929 l 703 851 q 574 915 644 894 q 438 936 503 936 q 276 908 340 936 q 181 832 211 879 q 150 728 150 785 q 183 619 150 660 q 272 556 217 579 q 392 517 326 532 q 522 484 457 501 q 642 439 588 467 q 730 365 697 411 q 763 243 763 318 q 727 121 763 178 q 616 29 692 64 q 424 -6 540 -6 z "},"ŝ":{"ha":653,"x_min":43,"x_max":603,"o":"m 328 -4 q 161 23 239 -4 q 43 92 83 50 l 65 128 q 175 64 106 92 q 329 36 244 36 q 503 78 450 36 q 557 186 557 119 q 531 263 557 235 q 461 306 504 290 q 366 330 418 321 q 261 351 314 339 q 165 383 208 363 q 96 439 122 403 q 69 535 69 475 q 98 629 69 586 q 185 699 126 672 q 333 726 243 726 q 467 706 400 726 q 575 653 535 686 l 551 617 q 451 668 508 651 q 332 685 393 685 q 168 642 219 685 q 117 536 117 599 q 143 456 117 486 q 213 411 169 426 q 308 386 256 396 q 412 365 360 376 q 507 335 464 354 q 576 281 550 315 q 603 186 603 246 q 572 87 603 131 q 480 19 540 43 q 328 -4 419 -4 m 125 843 l 297 1000 l 356 1000 l 528 843 l 476 843 l 314 979 l 339 979 l 176 843 l 125 843 z "},"Ş":{"ha":839,"x_min":76,"x_max":763,"o":"m 424 -6 q 222 33 317 -6 q 76 129 126 71 l 101 163 q 235 73 149 110 q 422 36 322 36 q 589 64 524 36 q 685 138 654 92 q 717 242 717 185 q 683 349 717 308 q 595 413 650 389 q 476 451 540 436 q 345 484 411 467 q 224 528 279 501 q 137 603 169 556 q 104 728 104 651 q 139 850 104 793 q 247 942 174 907 q 436 978 321 978 q 592 953 515 978 q 724 889 669 929 l 703 851 q 574 915 644 894 q 438 936 503 936 q 276 908 340 936 q 181 832 211 879 q 150 728 150 785 q 183 619 150 660 q 272 556 217 579 q 392 517 326 532 q 522 484 457 501 q 642 439 588 467 q 730 365 697 411 q 763 243 763 318 q 727 121 763 178 q 616 29 692 64 q 424 -6 540 -6 m 418 -299 q 363 -290 389 -299 q 313 -262 336 -281 l 331 -233 q 370 -256 347 -249 q 418 -264 393 -264 q 487 -244 460 -264 q 514 -185 514 -224 q 490 -129 514 -151 q 418 -107 465 -107 l 393 -107 l 425 7 l 460 7 l 436 -76 q 522 -109 490 -79 q 553 -186 553 -139 q 515 -268 553 -237 q 418 -299 476 -299 z "},"ş":{"ha":653,"x_min":43,"x_max":603,"o":"m 328 -4 q 161 23 239 -4 q 43 92 83 50 l 65 128 q 175 64 106 92 q 329 36 244 36 q 503 78 450 36 q 557 186 557 119 q 531 263 557 235 q 461 306 504 290 q 366 330 418 321 q 261 351 314 339 q 165 383 208 363 q 96 439 122 403 q 69 535 69 475 q 98 629 69 586 q 185 699 126 672 q 333 726 243 726 q 467 706 400 726 q 575 653 535 686 l 551 617 q 451 668 508 651 q 332 685 393 685 q 168 642 219 685 q 117 536 117 599 q 143 456 117 486 q 213 411 169 426 q 308 386 256 396 q 412 365 360 376 q 507 335 464 354 q 576 281 550 315 q 603 186 603 246 q 572 87 603 131 q 480 19 540 43 q 328 -4 419 -4 m 301 -299 q 246 -290 272 -299 q 196 -262 219 -281 l 214 -233 q 253 -256 231 -249 q 301 -264 276 -264 q 370 -244 343 -264 q 397 -185 397 -224 q 373 -129 397 -151 q 301 -107 349 -107 l 276 -107 l 308 7 l 343 7 l 319 -76 q 405 -109 374 -79 q 436 -186 436 -139 q 398 -268 436 -237 q 301 -299 360 -299 z "},"Š":{"ha":839,"x_min":76,"x_max":763,"o":"m 424 -6 q 222 33 317 -6 q 76 129 126 71 l 101 163 q 235 73 149 110 q 422 36 322 36 q 589 64 524 36 q 685 138 654 92 q 717 242 717 185 q 683 349 717 308 q 595 413 650 389 q 476 451 540 436 q 345 484 411 467 q 224 528 279 501 q 137 603 169 556 q 104 728 104 651 q 139 850 104 793 q 247 942 174 907 q 436 978 321 978 q 592 953 515 978 q 724 889 669 929 l 703 851 q 574 915 644 894 q 438 936 503 936 q 276 908 340 936 q 181 832 211 879 q 150 728 150 785 q 183 619 150 660 q 272 556 217 579 q 392 517 326 532 q 522 484 457 501 q 642 439 588 467 q 730 365 697 411 q 763 243 763 318 q 727 121 763 178 q 616 29 692 64 q 424 -6 540 -6 z "},"š":{"ha":653,"x_min":43,"x_max":603,"o":"m 328 -4 q 161 23 239 -4 q 43 92 83 50 l 65 128 q 175 64 106 92 q 329 36 244 36 q 503 78 450 36 q 557 186 557 119 q 531 263 557 235 q 461 306 504 290 q 366 330 418 321 q 261 351 314 339 q 165 383 208 363 q 96 439 122 403 q 69 535 69 475 q 98 629 69 586 q 185 699 126 672 q 333 726 243 726 q 467 706 400 726 q 575 653 535 686 l 551 617 q 451 668 508 651 q 332 685 393 685 q 168 642 219 685 q 117 536 117 599 q 143 456 117 486 q 213 411 169 426 q 308 386 256 396 q 412 365 360 376 q 507 335 464 354 q 576 281 550 315 q 603 186 603 246 q 572 87 603 131 q 480 19 540 43 q 328 -4 419 -4 m 297 843 l 125 1000 l 176 1000 l 339 864 l 314 864 l 476 1000 l 528 1000 l 356 843 l 297 843 z "},"Ţ":{"ha":771,"x_min":6,"x_max":765,"o":"m 363 0 l 363 929 l 6 929 l 6 972 l 765 972 l 765 929 l 408 929 l 408 0 l 363 0 m 360 -299 q 304 -290 331 -299 q 254 -262 278 -281 l 272 -233 q 312 -256 289 -249 q 360 -264 335 -264 q 428 -244 401 -264 q 456 -185 456 -224 q 431 -129 456 -151 q 360 -107 407 -107 l 335 -107 l 367 7 l 401 7 l 378 -76 q 463 -109 432 -79 q 494 -186 494 -139 q 456 -268 494 -237 q 360 -299 418 -299 z "},"ţ":{"ha":544,"x_min":31,"x_max":494,"o":"m 350 -4 q 214 46 261 -4 q 167 181 167 96 l 167 879 l 213 879 l 213 188 q 249 75 213 114 q 354 36 285 36 q 471 79 425 36 l 494 46 q 429 8 468 21 q 350 -4 390 -4 m 31 681 l 31 721 l 450 721 l 450 681 l 31 681 m 313 -299 q 257 -290 283 -299 q 207 -262 231 -281 l 225 -233 q 265 -256 242 -249 q 313 -264 288 -264 q 381 -244 354 -264 q 408 -185 408 -224 q 384 -129 408 -151 q 313 -107 360 -107 l 288 -107 l 319 7 l 354 7 l 331 -76 q 416 -109 385 -79 q 447 -186 447 -139 q 409 -268 447 -237 q 313 -299 371 -299 z "},"Ť":{"ha":771,"x_min":6,"x_max":765,"o":"m 363 0 l 363 929 l 6 929 l 6 972 l 765 972 l 765 929 l 408 929 l 408 0 l 363 0 z "},"ť":{"ha":544,"x_min":31,"x_max":494,"o":"m 350 -4 q 214 46 261 -4 q 167 181 167 96 l 167 879 l 213 879 l 213 188 q 249 75 213 114 q 354 36 285 36 q 471 79 425 36 l 494 46 q 429 8 468 21 q 350 -4 390 -4 m 31 681 l 31 721 l 450 721 l 450 681 l 31 681 m 353 835 l 353 1060 l 394 1060 l 386 835 l 353 835 z "},"Ŧ":{"ha":771,"x_min":6,"x_max":765,"o":"m 363 0 l 363 929 l 6 929 l 6 972 l 765 972 l 765 929 l 408 929 l 408 0 l 363 0 m 131 469 l 131 510 l 639 510 l 639 469 l 131 469 z "},"ŧ":{"ha":558,"x_min":38,"x_max":501,"o":"m 357 -4 q 221 46 268 -4 q 174 181 174 96 l 174 879 l 219 879 l 219 188 q 256 75 219 114 q 361 36 292 36 q 478 79 432 36 l 501 46 q 436 8 475 21 q 357 -4 397 -4 m 38 681 l 38 721 l 457 721 l 457 681 l 38 681 m 51 404 l 51 442 l 442 442 l 442 404 l 51 404 z "},"Ũ":{"ha":1101,"x_min":169,"x_max":932,"o":"m 551 -6 q 272 99 374 -6 q 169 410 169 203 l 169 972 l 217 972 l 217 411 q 304 130 217 222 q 551 38 392 38 q 799 130 711 38 q 886 411 886 222 l 886 972 l 932 972 l 932 410 q 830 99 932 203 q 551 -6 728 -6 z "},"ũ":{"ha":925,"x_min":146,"x_max":771,"o":"m 444 -4 q 285 30 351 -4 q 182 131 218 64 q 146 297 146 199 l 146 721 l 192 721 l 192 300 q 258 104 192 171 q 446 38 325 38 q 595 74 532 38 q 692 178 658 111 q 725 332 725 244 l 725 721 l 771 721 l 771 0 l 726 0 l 726 201 l 732 189 q 626 48 701 100 q 444 -4 551 -4 m 547 857 q 494 872 518 857 q 451 905 471 886 q 413 938 432 924 q 371 953 394 953 q 319 928 338 953 q 297 861 300 904 l 263 861 q 294 954 265 919 q 369 989 322 989 q 422 974 399 989 q 465 941 446 960 q 504 908 485 922 q 546 893 524 893 q 599 918 579 893 q 619 982 618 943 l 654 982 q 624 892 653 928 q 547 857 594 857 z "},"Ū":{"ha":1101,"x_min":169,"x_max":932,"o":"m 551 -6 q 272 99 374 -6 q 169 410 169 203 l 169 972 l 217 972 l 217 411 q 304 130 217 222 q 551 38 392 38 q 799 130 711 38 q 886 411 886 222 l 886 972 l 932 972 l 932 410 q 830 99 932 203 q 551 -6 728 -6 z "},"ū":{"ha":925,"x_min":146,"x_max":771,"o":"m 444 -4 q 285 30 351 -4 q 182 131 218 64 q 146 297 146 199 l 146 721 l 192 721 l 192 300 q 258 104 192 171 q 446 38 325 38 q 595 74 532 38 q 692 178 658 111 q 725 332 725 244 l 725 721 l 771 721 l 771 0 l 726 0 l 726 201 l 732 189 q 626 48 701 100 q 444 -4 551 -4 m 263 903 l 263 940 l 654 940 l 654 903 l 263 903 z "},"Ŭ":{"ha":1101,"x_min":169,"x_max":932,"o":"m 551 -6 q 272 99 374 -6 q 169 410 169 203 l 169 972 l 217 972 l 217 411 q 304 130 217 222 q 551 38 392 38 q 799 130 711 38 q 886 411 886 222 l 886 972 l 932 972 l 932 410 q 830 99 932 203 q 551 -6 728 -6 z "},"ŭ":{"ha":925,"x_min":146,"x_max":771,"o":"m 444 -4 q 285 30 351 -4 q 182 131 218 64 q 146 297 146 199 l 146 721 l 192 721 l 192 300 q 258 104 192 171 q 446 38 325 38 q 595 74 532 38 q 692 178 658 111 q 725 332 725 244 l 725 721 l 771 721 l 771 0 l 726 0 l 726 201 l 732 189 q 626 48 701 100 q 444 -4 551 -4 m 458 839 q 326 883 381 839 q 268 1000 271 926 l 306 1000 q 352 908 308 942 q 458 874 396 874 q 566 908 522 874 q 611 1000 610 942 l 649 1000 q 592 883 647 926 q 458 839 536 839 z "},"Ů":{"ha":1101,"x_min":169,"x_max":932,"o":"m 551 -6 q 272 99 374 -6 q 169 410 169 203 l 169 972 l 217 972 l 217 411 q 304 130 217 222 q 551 38 392 38 q 799 130 711 38 q 886 411 886 222 l 886 972 l 932 972 l 932 410 q 830 99 932 203 q 551 -6 728 -6 m 550 1081 q 482 1098 511 1081 q 435 1145 453 1115 q 418 1210 418 1175 q 435 1275 418 1244 q 483 1324 453 1306 q 550 1342 513 1342 q 619 1324 589 1342 q 666 1275 649 1306 q 683 1210 683 1244 q 666 1145 683 1175 q 619 1098 649 1115 q 550 1081 589 1081 m 550 1111 q 622 1140 594 1111 q 650 1210 650 1169 q 622 1280 650 1250 q 550 1310 593 1310 q 480 1281 508 1310 q 451 1210 451 1251 q 479 1140 451 1168 q 550 1111 507 1111 z "},"ů":{"ha":925,"x_min":146,"x_max":771,"o":"m 444 -4 q 285 30 351 -4 q 182 131 218 64 q 146 297 146 199 l 146 721 l 192 721 l 192 300 q 258 104 192 171 q 446 38 325 38 q 595 74 532 38 q 692 178 658 111 q 725 332 725 244 l 725 721 l 771 721 l 771 0 l 726 0 l 726 201 l 732 189 q 626 48 701 100 q 444 -4 551 -4 m 457 829 q 389 847 418 829 q 342 894 360 864 q 325 958 325 924 q 342 1024 325 993 q 390 1072 360 1054 q 457 1090 419 1090 q 526 1072 496 1090 q 573 1024 556 1054 q 590 958 590 993 q 573 894 590 924 q 526 847 556 864 q 457 829 496 829 m 457 860 q 529 889 501 860 q 557 958 557 918 q 528 1028 557 999 q 457 1058 500 1058 q 387 1029 415 1058 q 358 958 358 1000 q 386 888 358 917 q 457 860 414 860 z "},"Ű":{"ha":1101,"x_min":169,"x_max":932,"o":"m 551 -6 q 272 99 374 -6 q 169 410 169 203 l 169 972 l 217 972 l 217 411 q 304 130 217 222 q 551 38 392 38 q 799 130 711 38 q 886 411 886 222 l 886 972 l 932 972 l 932 410 q 830 99 932 203 q 551 -6 728 -6 z "},"ű":{"ha":925,"x_min":146,"x_max":771,"o":"m 444 -4 q 285 30 351 -4 q 182 131 218 64 q 146 297 146 199 l 146 721 l 192 721 l 192 300 q 258 104 192 171 q 446 38 325 38 q 595 74 532 38 q 692 178 658 111 q 725 332 725 244 l 725 721 l 771 721 l 771 0 l 726 0 l 726 201 l 732 189 q 626 48 701 100 q 444 -4 551 -4 m 533 843 l 683 1000 l 746 1000 l 585 843 l 533 843 m 332 843 l 482 1000 l 544 1000 l 383 843 l 332 843 z "},"Ų":{"ha":1101,"x_min":169,"x_max":932,"o":"m 886 972 l 932 972 l 932 410 q 867 144 932 240 q 685 11 801 49 q 549 -53 594 -19 q 487 -119 503 -87 q 471 -178 471 -151 q 499 -242 471 -219 q 569 -264 526 -264 q 616 -256 593 -264 q 656 -233 639 -247 l 672 -261 q 622 -290 649 -281 q 565 -299 596 -299 q 469 -267 507 -299 q 432 -179 432 -235 q 447 -114 432 -149 q 504 -43 463 -79 q 624 24 546 -7 l 604 -3 q 578 -5 592 -4 q 551 -6 564 -6 q 272 99 374 -6 q 169 410 169 203 l 169 972 l 217 972 l 217 411 q 304 130 217 222 q 551 38 392 38 q 799 130 711 38 q 886 411 886 222 l 886 972 z "},"ų":{"ha":925,"x_min":146,"x_max":797,"o":"m 444 -4 q 285 30 351 -4 q 182 131 218 64 q 146 297 146 199 l 146 721 l 192 721 l 192 300 q 258 104 192 171 q 446 38 325 38 q 595 74 532 38 q 692 178 658 111 q 725 332 725 244 l 725 721 l 771 721 l 771 0 l 726 0 l 726 201 l 732 189 q 626 48 701 100 q 444 -4 551 -4 m 690 -299 q 594 -267 632 -299 q 557 -179 557 -235 q 572 -115 557 -149 q 629 -44 588 -81 q 749 26 671 -8 l 771 0 q 660 -62 697 -31 q 609 -123 622 -94 q 596 -178 596 -151 q 624 -242 596 -219 q 694 -264 651 -264 q 740 -256 717 -264 q 779 -233 763 -247 l 797 -261 q 747 -290 774 -281 q 690 -299 721 -299 z "},"Ŵ":{"ha":1511,"x_min":60,"x_max":1451,"o":"m 392 0 l 60 972 l 110 972 l 429 32 l 404 32 l 733 972 l 779 972 l 1107 32 l 1083 32 l 1404 972 l 1451 972 l 1119 0 l 1072 0 l 750 922 l 761 922 l 440 0 l 392 0 z "},"ŵ":{"ha":1178,"x_min":15,"x_max":1163,"o":"m 292 0 l 15 721 l 60 721 l 321 28 l 301 28 l 568 721 l 610 721 l 875 28 l 856 28 l 1118 721 l 1163 721 l 888 0 l 844 0 l 582 678 l 596 678 l 332 0 l 292 0 m 388 843 l 560 1000 l 618 1000 l 790 843 l 739 843 l 576 979 l 601 979 l 439 843 l 388 843 z "},"Ŷ":{"ha":856,"x_min":11,"x_max":846,"o":"m 404 0 l 404 346 l 415 314 l 11 972 l 63 972 l 440 358 l 417 358 l 796 972 l 846 972 l 440 314 l 451 346 l 451 0 l 404 0 z "},"ŷ":{"ha":718,"x_min":-40,"x_max":711,"o":"m 121 -274 q 31 -258 72 -274 q -40 -210 -11 -242 l -14 -174 q 47 -219 15 -204 q 121 -233 79 -233 q 214 -204 174 -233 q 289 -97 254 -175 l 342 17 l 349 28 l 663 721 l 711 721 l 333 -108 q 273 -206 306 -169 q 203 -258 240 -243 q 121 -274 165 -274 m 343 -17 l 7 721 l 57 721 l 369 31 l 343 -17 m 138 843 l 310 1000 l 368 1000 l 540 843 l 489 843 l 326 979 l 351 979 l 189 843 l 138 843 z "},"Ÿ":{"ha":856,"x_min":11,"x_max":846,"o":"m 404 0 l 404 346 l 415 314 l 11 972 l 63 972 l 440 358 l 417 358 l 796 972 l 846 972 l 440 314 l 451 346 l 451 0 l 404 0 z "},"Ź":{"ha":892,"x_min":68,"x_max":840,"o":"m 68 0 l 68 33 l 775 947 l 779 929 l 75 929 l 75 972 l 825 972 l 825 939 l 118 25 l 115 43 l 840 43 l 840 0 l 68 0 z "},"ź":{"ha":689,"x_min":63,"x_max":625,"o":"m 63 0 l 63 32 l 568 696 l 582 681 l 69 681 l 69 721 l 618 721 l 618 689 l 111 26 l 93 40 l 625 40 l 625 0 l 63 0 m 275 843 l 468 1000 l 543 1000 l 331 843 l 275 843 z "},"Ż":{"ha":892,"x_min":68,"x_max":840,"o":"m 68 0 l 68 33 l 775 947 l 779 929 l 75 929 l 75 972 l 825 972 l 825 939 l 118 25 l 115 43 l 840 43 l 840 0 l 68 0 z "},"ż":{"ha":689,"x_min":63,"x_max":625,"o":"m 63 0 l 63 32 l 568 696 l 582 681 l 69 681 l 69 721 l 618 721 l 618 689 l 111 26 l 93 40 l 625 40 l 625 0 l 63 0 m 344 886 q 313 899 326 886 q 300 931 300 913 q 313 962 300 949 q 344 975 326 975 q 376 962 363 975 q 389 931 389 949 q 376 899 389 913 q 344 886 363 886 z "},"Ž":{"ha":892,"x_min":68,"x_max":840,"o":"m 68 0 l 68 33 l 775 947 l 779 929 l 75 929 l 75 972 l 825 972 l 825 939 l 118 25 l 115 43 l 840 43 l 840 0 l 68 0 z "},"ž":{"ha":689,"x_min":63,"x_max":625,"o":"m 63 0 l 63 32 l 568 696 l 582 681 l 69 681 l 69 721 l 618 721 l 618 689 l 111 26 l 93 40 l 625 40 l 625 0 l 63 0 m 315 843 l 143 1000 l 194 1000 l 357 864 l 332 864 l 494 1000 l 546 1000 l 374 843 l 315 843 z "},"ſ":{"ha":388,"x_min":44,"x_max":510,"o":"m 182 0 l 182 849 q 230 984 182 933 q 367 1035 278 1035 q 445 1023 407 1035 q 510 986 483 1011 l 486 951 q 433 984 464 974 q 369 994 403 994 q 264 956 300 994 q 228 843 228 917 l 228 0 l 182 0 m 44 681 l 44 721 l 211 721 l 211 681 l 44 681 z "},"Ə":{"ha":1133,"x_min":79,"x_max":1054,"o":"m 567 -6 q 373 31 463 -6 q 217 135 283 68 q 115 292 151 203 q 79 488 79 381 l 79 506 l 1015 506 l 1015 463 l 110 463 l 126 486 q 159 308 126 390 q 251 166 192 226 q 391 72 311 106 q 567 38 471 38 q 738 72 658 38 q 878 166 818 106 q 973 308 939 226 q 1007 483 1007 389 l 1007 489 q 973 665 1007 583 q 876 806 939 746 q 732 901 814 867 q 554 935 650 935 q 438 924 494 935 q 332 888 382 913 q 236 822 282 863 l 208 856 q 307 924 253 897 q 424 964 361 950 q 554 978 486 978 q 753 941 661 978 q 912 838 844 904 q 1017 682 979 772 q 1054 488 1054 592 q 1017 296 1054 385 q 913 139 979 207 q 758 33 846 71 q 567 -6 669 -6 z "},"ƒ":{"ha":583,"x_min":-121,"x_max":635,"o":"m 19 -274 q -60 -262 -22 -274 q -121 -224 -97 -250 l -94 -190 q 19 -233 -54 -233 q 128 -194 88 -233 q 176 -81 168 -156 l 292 849 q 356 984 301 933 q 499 1035 411 1035 q 576 1023 539 1035 q 635 985 613 1011 l 608 951 q 560 983 589 972 q 497 994 531 994 q 388 956 428 994 q 336 842 347 917 l 319 711 l 318 689 l 222 -87 q 160 -223 213 -172 q 19 -274 107 -274 m 133 678 l 139 718 l 560 718 l 554 678 l 133 678 z "},"Ơ":{"ha":1163,"x_min":79,"x_max":1083,"o":"m 581 -6 q 382 31 474 -6 q 222 135 290 68 q 117 291 154 201 q 79 486 79 381 q 117 681 79 592 q 222 838 154 771 q 382 941 290 904 q 582 978 474 978 q 736 967 671 978 q 868 957 801 957 q 981 985 943 957 q 1018 1068 1018 1013 q 1010 1119 1018 1096 q 990 1161 1001 1142 l 1025 1175 q 1048 1126 1039 1154 q 1057 1069 1057 1099 q 1009 958 1057 996 q 867 919 961 919 q 803 923 842 919 q 732 932 764 926 l 776 939 q 938 838 869 906 q 1045 681 1007 771 q 1083 486 1083 590 q 1045 291 1083 381 q 940 135 1007 201 q 781 31 872 68 q 581 -6 689 -6 m 581 38 q 761 72 678 38 q 906 167 844 106 q 1002 309 968 228 q 1036 486 1036 390 q 1002 663 1036 582 q 906 806 968 744 q 761 901 844 867 q 581 935 678 935 q 401 901 485 935 q 256 806 318 867 q 160 663 194 744 q 126 486 126 582 q 160 309 126 390 q 256 167 194 228 q 401 72 318 106 q 581 38 485 38 z "},"ơ":{"ha":853,"x_min":72,"x_max":781,"o":"m 426 -4 q 245 42 325 -4 q 119 172 165 89 q 72 361 72 256 q 119 550 72 468 q 245 679 165 632 q 426 726 325 726 q 491 724 465 726 q 543 720 517 722 q 606 718 569 718 q 699 749 669 718 q 728 818 728 779 q 719 869 728 846 q 700 911 711 892 l 735 925 q 759 876 750 904 q 768 819 768 849 q 749 751 768 782 q 695 701 731 719 q 604 682 660 682 q 580 683 593 682 q 547 685 567 683 l 549 706 q 717 578 653 669 q 781 361 781 488 q 735 172 781 256 q 608 42 689 89 q 426 -4 528 -4 m 426 38 q 585 78 515 38 q 694 193 654 119 q 735 361 735 267 q 695 530 735 457 q 585 643 656 603 q 426 683 515 683 q 269 643 339 683 q 159 530 200 603 q 118 361 118 457 q 159 193 118 267 q 269 78 200 119 q 426 38 339 38 z "},"Ư":{"ha":1104,"x_min":169,"x_max":1065,"o":"m 551 -6 q 272 99 374 -6 q 169 410 169 203 l 169 972 l 217 972 l 217 411 q 304 130 217 222 q 551 38 392 38 q 799 130 711 38 q 886 411 886 222 l 886 972 l 932 972 l 932 410 q 830 99 932 203 q 551 -6 728 -6 m 915 933 l 915 972 l 931 972 q 1005 1001 983 972 q 1026 1068 1026 1029 q 1018 1119 1026 1096 q 999 1161 1010 1142 l 1033 1175 q 1057 1126 1049 1154 q 1065 1069 1065 1099 q 1033 973 1065 1013 q 931 933 1001 933 l 915 933 z "},"ư":{"ha":928,"x_min":146,"x_max":885,"o":"m 444 -4 q 285 30 351 -4 q 182 131 218 64 q 146 297 146 199 l 146 721 l 192 721 l 192 300 q 258 104 192 171 q 446 38 325 38 q 595 74 532 38 q 692 178 658 111 q 725 332 725 244 l 725 721 l 771 721 l 771 0 l 726 0 l 726 201 l 732 189 q 626 48 701 100 q 444 -4 551 -4 m 735 682 l 735 721 l 750 721 q 824 749 803 721 q 846 817 846 778 q 838 867 846 844 q 818 910 829 890 l 853 924 q 876 875 868 903 q 885 818 885 847 q 853 722 885 761 q 750 682 821 682 l 735 682 z "},"Ʒ":{"ha":838,"x_min":47,"x_max":750,"o":"m 403 -6 q 190 32 286 -6 q 47 129 94 69 l 71 163 q 203 74 115 110 q 404 38 290 38 q 626 101 550 38 q 703 269 703 164 q 625 438 703 375 q 383 501 547 501 l 328 501 l 328 535 l 664 947 l 669 931 l 79 931 l 79 972 l 710 972 l 710 939 l 374 526 l 361 542 l 388 542 q 590 508 510 542 q 710 413 671 474 q 750 269 750 351 q 710 127 750 189 q 594 30 671 65 q 403 -6 517 -6 z "},"Ǆ":{"ha":2028,"x_min":178,"x_max":1963,"o":"m 178 0 l 178 972 l 553 972 q 824 909 708 972 q 1003 737 939 846 q 1068 486 1068 628 q 1003 235 1068 344 q 824 63 939 126 q 553 0 708 0 l 178 0 m 225 43 l 550 43 q 799 100 693 43 q 963 257 906 157 q 1021 486 1021 357 q 963 715 1021 615 q 799 872 906 815 q 550 929 693 929 l 225 929 l 225 43 m 1190 0 l 1190 33 l 1897 947 l 1901 929 l 1197 929 l 1197 972 l 1947 972 l 1947 939 l 1240 25 l 1238 43 l 1963 43 l 1963 0 l 1190 0 z "},"ǅ":{"ha":1836,"x_min":178,"x_max":1772,"o":"m 178 0 l 178 972 l 553 972 q 824 909 708 972 q 1003 737 939 846 q 1068 486 1068 628 q 1003 235 1068 344 q 824 63 939 126 q 553 0 708 0 l 178 0 m 225 43 l 550 43 q 799 100 693 43 q 963 257 906 157 q 1021 486 1021 357 q 963 715 1021 615 q 799 872 906 815 q 550 929 693 929 l 225 929 l 225 43 m 1210 0 l 1210 32 l 1715 696 l 1729 681 l 1217 681 l 1217 721 l 1765 721 l 1765 689 l 1258 26 l 1240 40 l 1772 40 l 1772 0 l 1210 0 m 1463 843 l 1290 1000 l 1342 1000 l 1504 864 l 1479 864 l 1642 1000 l 1693 1000 l 1521 843 l 1463 843 z "},"ǆ":{"ha":1650,"x_min":72,"x_max":1561,"o":"m 425 -4 q 245 42 325 -4 q 119 172 165 89 q 72 361 72 254 q 119 551 72 469 q 245 679 165 632 q 425 726 325 726 q 600 681 522 726 q 723 553 678 635 q 768 361 768 471 q 723 169 768 253 q 600 41 678 86 q 425 -4 522 -4 m 426 38 q 585 78 515 38 q 694 193 654 119 q 735 361 735 267 q 694 530 735 457 q 585 643 654 603 q 426 683 515 683 q 269 643 339 683 q 159 530 200 603 q 118 361 118 457 q 159 193 118 267 q 269 78 200 119 q 426 38 339 38 m 736 0 l 736 253 l 749 363 l 735 472 l 735 1031 l 781 1031 l 781 0 l 736 0 m 999 0 l 999 32 l 1504 696 l 1518 681 l 1006 681 l 1006 721 l 1554 721 l 1554 689 l 1047 26 l 1029 40 l 1561 40 l 1561 0 l 999 0 m 1251 843 l 1079 1000 l 1131 1000 l 1293 864 l 1268 864 l 1431 1000 l 1482 1000 l 1310 843 l 1251 843 z "},"Ǉ":{"ha":1481,"x_min":178,"x_max":1310,"o":"m 178 0 l 178 972 l 225 972 l 225 43 l 794 43 l 794 0 l 178 0 m 1060 -6 q 917 31 983 -6 q 811 132 851 68 l 840 163 q 938 70 881 103 q 1061 38 994 38 q 1263 278 1263 38 l 1263 929 l 901 929 l 901 972 l 1310 972 l 1310 276 q 1247 65 1310 136 q 1060 -6 1185 -6 z "},"ǈ":{"ha":1169,"x_min":178,"x_max":1038,"o":"m 178 0 l 178 972 l 225 972 l 225 43 l 794 43 l 794 0 l 178 0 m 835 -274 q 752 -262 792 -274 q 688 -224 713 -250 l 711 -190 q 832 -233 757 -233 q 934 -194 899 -233 q 969 -81 969 -156 l 969 721 l 1015 721 l 1015 -86 q 969 -222 1015 -171 q 835 -274 922 -274 m 992 910 q 960 924 974 910 q 946 954 946 938 q 960 987 946 974 q 992 1000 974 1000 q 1024 987 1011 1000 q 1038 956 1038 974 q 1024 924 1038 938 q 992 910 1011 910 z "},"ǉ":{"ha":715,"x_min":154,"x_max":583,"o":"m 154 0 l 154 1031 l 200 1031 l 200 0 l 154 0 m 381 -274 q 298 -262 338 -274 q 233 -224 258 -250 l 257 -190 q 378 -233 303 -233 q 480 -194 444 -233 q 515 -81 515 -156 l 515 721 l 561 721 l 561 -86 q 515 -222 561 -171 q 381 -274 468 -274 m 538 910 q 506 924 519 910 q 492 954 492 938 q 506 987 492 974 q 538 1000 519 1000 q 570 987 557 1000 q 583 956 583 974 q 570 924 583 938 q 538 910 557 910 z "},"Ǌ":{"ha":1803,"x_min":178,"x_max":1633,"o":"m 178 0 l 178 972 l 217 972 l 931 56 l 907 56 l 907 972 l 954 972 l 954 0 l 915 0 l 201 917 l 225 917 l 225 0 l 178 0 m 1383 -6 q 1241 31 1307 -6 q 1135 132 1175 68 l 1164 163 q 1261 70 1204 103 q 1385 38 1318 38 q 1586 278 1586 38 l 1586 929 l 1225 929 l 1225 972 l 1633 972 l 1633 276 q 1571 65 1633 136 q 1383 -6 1508 -6 z "},"ǋ":{"ha":1493,"x_min":178,"x_max":1361,"o":"m 178 0 l 178 972 l 217 972 l 931 56 l 907 56 l 907 972 l 954 972 l 954 0 l 915 0 l 201 917 l 225 917 l 225 0 l 178 0 m 1158 -274 q 1076 -262 1115 -274 q 1011 -224 1036 -250 l 1035 -190 q 1156 -233 1081 -233 q 1258 -194 1222 -233 q 1293 -81 1293 -156 l 1293 721 l 1339 721 l 1339 -86 q 1292 -222 1339 -171 q 1158 -274 1246 -274 m 1315 910 q 1283 924 1297 910 q 1269 954 1269 938 q 1283 987 1269 974 q 1315 1000 1297 1000 q 1348 987 1335 1000 q 1361 956 1361 974 q 1348 924 1361 938 q 1315 910 1335 910 z "},"ǌ":{"ha":1292,"x_min":154,"x_max":1160,"o":"m 494 726 q 648 692 583 726 q 749 590 713 657 q 785 424 785 522 l 785 0 l 739 0 l 739 421 q 674 617 739 550 q 490 683 608 683 q 335 647 400 683 q 235 544 269 611 q 200 389 200 478 l 200 0 l 154 0 l 154 721 l 199 721 l 199 518 l 193 531 q 303 674 226 621 q 494 726 381 726 m 957 -274 q 874 -262 914 -274 q 810 -224 835 -250 l 833 -190 q 954 -233 879 -233 q 1056 -194 1021 -233 q 1092 -81 1092 -156 l 1092 721 l 1138 721 l 1138 -86 q 1091 -222 1138 -171 q 957 -274 1044 -274 m 1114 910 q 1082 924 1096 910 q 1068 954 1068 938 q 1082 987 1068 974 q 1114 1000 1096 1000 q 1147 987 1133 1000 q 1160 956 1160 974 q 1147 924 1160 938 q 1114 910 1133 910 z "},"Ǎ":{"ha":967,"x_min":10,"x_max":956,"o":"m 10 0 l 460 972 l 506 972 l 956 0 l 904 0 l 472 940 l 493 940 l 61 0 l 10 0 m 165 285 l 183 325 l 778 325 l 796 285 l 165 285 z "},"ǎ":{"ha":803,"x_min":86,"x_max":657,"o":"m 613 0 l 613 168 l 611 193 l 611 467 q 554 629 611 574 q 389 685 497 685 q 244 658 310 685 q 132 588 179 631 l 107 621 q 233 698 158 669 q 390 726 308 726 q 588 660 519 726 q 657 467 657 594 l 657 0 l 613 0 m 344 -4 q 205 21 263 -4 q 117 92 147 46 q 86 199 86 139 q 111 297 86 251 q 194 369 136 342 q 349 396 251 396 l 628 396 l 628 358 l 349 358 q 181 314 231 358 q 132 201 132 269 q 189 80 132 125 q 347 35 246 35 q 513 80 447 35 q 611 208 578 125 l 626 178 q 526 46 599 96 q 344 -4 454 -4 m 354 843 l 182 1000 l 233 1000 l 396 864 l 371 864 l 533 1000 l 585 1000 l 413 843 l 354 843 z "},"Ǔ":{"ha":1101,"x_min":169,"x_max":932,"o":"m 551 -6 q 272 99 374 -6 q 169 410 169 203 l 169 972 l 217 972 l 217 411 q 304 130 217 222 q 551 38 392 38 q 799 130 711 38 q 886 411 886 222 l 886 972 l 932 972 l 932 410 q 830 99 932 203 q 551 -6 728 -6 z "},"ǔ":{"ha":925,"x_min":146,"x_max":771,"o":"m 444 -4 q 285 30 351 -4 q 182 131 218 64 q 146 297 146 199 l 146 721 l 192 721 l 192 300 q 258 104 192 171 q 446 38 325 38 q 595 74 532 38 q 692 178 658 111 q 725 332 725 244 l 725 721 l 771 721 l 771 0 l 726 0 l 726 201 l 732 189 q 626 48 701 100 q 444 -4 551 -4 m 429 843 l 257 1000 l 308 1000 l 471 864 l 446 864 l 608 1000 l 660 1000 l 488 843 l 429 843 z "},"Ǥ":{"ha":1118,"x_min":79,"x_max":1085,"o":"m 579 306 l 579 346 l 1085 346 l 1085 306 l 579 306 m 585 -6 q 384 31 476 -6 q 223 135 292 68 q 117 291 154 201 q 79 486 79 381 q 117 681 79 592 q 223 838 154 771 q 384 941 292 904 q 585 978 476 978 q 775 946 686 978 q 926 850 864 914 l 899 818 q 754 908 832 882 q 586 935 676 935 q 403 901 488 935 q 257 806 319 867 q 160 663 194 744 q 126 486 126 582 q 160 309 126 390 q 257 167 194 228 q 403 72 319 106 q 586 38 488 38 q 755 65 675 38 q 897 154 835 92 l 925 119 q 772 26 861 57 q 585 -6 683 -6 m 881 122 l 881 479 l 925 479 l 925 119 l 881 122 z "},"ǥ":{"ha":947,"x_min":72,"x_max":878,"o":"m 449 -274 q 265 -242 351 -274 q 125 -157 178 -211 l 151 -122 q 283 -203 207 -175 q 447 -232 360 -232 q 671 -160 599 -232 q 743 64 743 -89 l 743 282 l 757 376 l 744 471 l 744 721 l 789 721 l 789 69 q 704 -190 789 -107 q 449 -274 619 -274 m 411 -93 l 411 -56 l 878 -56 l 878 -93 l 411 -93 m 429 29 q 247 74 328 29 q 119 199 167 119 q 72 379 72 278 q 119 559 72 481 q 247 682 167 638 q 429 726 328 726 q 607 683 529 726 q 731 561 685 639 q 776 379 776 483 q 731 197 776 275 q 607 74 685 118 q 429 29 529 29 m 431 71 q 592 110 522 71 q 703 219 663 149 q 743 379 743 289 q 703 538 743 469 q 592 646 663 607 q 431 685 522 685 q 271 646 342 685 q 159 538 200 607 q 118 379 118 469 q 159 219 118 289 q 271 110 200 149 q 431 71 342 71 z "},"Ǧ":{"ha":1075,"x_min":79,"x_max":926,"o":"m 585 -6 q 384 31 476 -6 q 223 135 292 68 q 117 291 154 201 q 79 486 79 381 q 117 681 79 592 q 223 838 154 771 q 384 941 292 904 q 585 978 476 978 q 775 946 686 978 q 926 850 864 914 l 899 818 q 754 908 832 882 q 586 935 676 935 q 403 901 488 935 q 257 806 319 867 q 160 663 194 744 q 126 486 126 582 q 160 309 126 390 q 257 167 194 228 q 403 72 319 106 q 586 38 488 38 q 755 65 675 38 q 897 154 835 92 l 925 119 q 772 26 861 57 q 585 -6 683 -6 m 881 122 l 881 479 l 925 479 l 925 119 l 881 122 z "},"ǧ":{"ha":943,"x_min":72,"x_max":789,"o":"m 449 -274 q 265 -242 351 -274 q 125 -157 178 -211 l 151 -122 q 283 -203 207 -175 q 447 -232 360 -232 q 671 -160 599 -232 q 743 64 743 -89 l 743 282 l 757 376 l 744 471 l 744 721 l 789 721 l 789 69 q 704 -190 789 -107 q 449 -274 619 -274 m 429 25 q 247 70 328 25 q 119 194 167 115 q 72 376 72 274 q 119 558 72 479 q 247 682 167 638 q 429 726 328 726 q 607 683 529 726 q 731 560 685 639 q 776 376 776 482 q 731 192 776 271 q 607 69 685 113 q 429 25 529 25 m 431 67 q 592 106 522 67 q 703 215 663 144 q 743 376 743 286 q 703 537 743 468 q 592 644 663 606 q 431 683 522 683 q 271 644 342 683 q 159 537 200 606 q 118 376 118 468 q 159 215 118 286 q 271 106 200 144 q 431 67 342 67 m 411 843 l 239 1000 l 290 1000 l 453 864 l 428 864 l 590 1000 l 642 1000 l 469 843 l 411 843 z "},"Ǩ":{"ha":968,"x_min":178,"x_max":950,"o":"m 218 250 l 217 310 l 861 972 l 919 972 l 485 524 l 457 496 l 218 250 m 178 0 l 178 972 l 225 972 l 225 0 l 178 0 m 892 0 l 440 514 l 472 546 l 950 0 l 892 0 z "},"ǩ":{"ha":803,"x_min":-25,"x_max":782,"o":"m 188 208 l 188 264 l 689 721 l 750 721 l 435 429 l 404 406 l 188 208 m 154 0 l 154 1031 l 200 1031 l 200 0 l 154 0 m 724 0 l 396 411 l 429 443 l 782 0 l 724 0 m 147 1153 l -25 1310 l 26 1310 l 189 1174 l 164 1174 l 326 1310 l 378 1310 l 206 1153 l 147 1153 z "},"Ǫ":{"ha":1163,"x_min":79,"x_max":1083,"o":"m 578 -299 q 482 -267 519 -299 q 444 -179 444 -235 q 460 -114 444 -149 q 518 -43 476 -79 q 636 26 560 -7 l 615 -3 q 599 -5 607 -4 q 581 -6 590 -6 q 382 31 474 -6 q 222 135 290 68 q 117 291 154 201 q 79 486 79 381 q 117 681 79 592 q 222 838 154 771 q 382 941 290 904 q 581 978 474 978 q 781 941 689 978 q 940 838 872 904 q 1045 681 1007 771 q 1083 486 1083 592 q 1031 258 1083 358 q 892 94 978 158 q 700 8 806 31 q 592 -31 642 -4 q 513 -96 543 -58 q 483 -178 483 -133 q 511 -242 483 -219 q 581 -264 539 -264 q 627 -256 604 -264 q 667 -233 650 -247 l 683 -261 q 634 -290 661 -281 q 578 -299 607 -299 m 581 38 q 761 71 678 38 q 906 165 844 104 q 1002 308 968 226 q 1036 486 1036 389 q 1002 665 1036 583 q 906 807 968 746 q 761 901 844 868 q 581 935 678 935 q 401 901 485 935 q 256 807 318 868 q 160 665 194 746 q 126 486 126 583 q 160 308 126 389 q 256 165 194 226 q 401 71 318 104 q 581 38 485 38 z "},"ǫ":{"ha":853,"x_min":72,"x_max":781,"o":"m 467 -299 q 371 -267 408 -299 q 333 -179 333 -235 q 348 -115 333 -149 q 402 -44 363 -81 q 518 26 442 -8 l 506 1 q 463 -3 481 -1 q 426 -4 444 -4 q 245 42 325 -4 q 119 172 165 89 q 72 361 72 256 q 119 550 72 468 q 245 679 165 632 q 426 726 325 726 q 608 679 528 726 q 735 550 689 632 q 781 361 781 468 q 726 156 781 243 q 576 25 672 69 q 444 -51 488 -15 q 386 -119 400 -87 q 372 -176 372 -150 q 400 -242 372 -219 q 471 -264 428 -264 q 517 -256 494 -264 q 557 -233 540 -247 l 574 -261 q 524 -290 550 -281 q 467 -299 497 -299 m 426 38 q 585 78 515 38 q 695 193 656 119 q 735 361 735 267 q 695 530 735 457 q 585 643 656 603 q 426 683 515 683 q 269 643 339 683 q 159 530 200 603 q 118 361 118 457 q 159 193 118 267 q 269 78 200 119 q 426 38 339 38 z "},"Ǯ":{"ha":838,"x_min":47,"x_max":750,"o":"m 403 -6 q 190 32 286 -6 q 47 129 94 69 l 71 163 q 203 74 115 110 q 404 38 290 38 q 626 101 550 38 q 703 269 703 164 q 625 438 703 375 q 383 501 547 501 l 328 501 l 328 535 l 664 947 l 669 931 l 79 931 l 79 972 l 710 972 l 710 939 l 374 526 l 361 542 l 388 542 q 590 508 510 542 q 710 413 671 474 q 750 269 750 351 q 710 127 750 189 q 594 30 671 65 q 403 -6 517 -6 z "},"ǯ":{"ha":686,"x_min":-35,"x_max":629,"o":"m 269 843 l 97 1000 l 149 1000 l 311 864 l 286 864 l 449 1000 l 500 1000 l 328 843 l 269 843 z "},"Ǻ":{"ha":967,"x_min":10,"x_max":956,"o":"m 10 0 l 460 972 l 506 972 l 956 0 l 904 0 l 472 940 l 493 940 l 61 0 l 10 0 m 165 285 l 183 325 l 778 325 l 796 285 l 165 285 m 482 1081 q 414 1098 443 1081 q 367 1145 385 1115 q 350 1210 350 1175 q 367 1275 350 1244 q 415 1324 385 1306 q 482 1342 444 1342 q 551 1324 521 1342 q 598 1275 581 1306 q 615 1210 615 1244 q 598 1145 615 1175 q 551 1098 581 1115 q 482 1081 521 1081 m 482 1111 q 554 1140 526 1111 q 582 1210 582 1169 q 553 1280 582 1250 q 482 1310 525 1310 q 412 1281 440 1310 q 383 1210 383 1251 q 411 1140 383 1168 q 482 1111 439 1111 m 579 1289 l 543 1304 l 671 1426 l 703 1401 l 579 1289 z "},"ǻ":{"ha":803,"x_min":86,"x_max":657,"o":"m 613 0 l 613 168 l 611 193 l 611 467 q 554 629 611 574 q 389 685 497 685 q 244 658 310 685 q 132 588 179 631 l 107 621 q 233 698 158 669 q 390 726 308 726 q 588 660 519 726 q 657 467 657 594 l 657 0 l 613 0 m 344 -4 q 205 21 263 -4 q 117 92 147 46 q 86 199 86 139 q 111 297 86 251 q 194 369 136 342 q 349 396 251 396 l 628 396 l 628 358 l 349 358 q 181 314 231 358 q 132 201 132 269 q 189 80 132 125 q 347 35 246 35 q 513 80 447 35 q 611 208 578 125 l 626 178 q 526 46 599 96 q 344 -4 454 -4 m 382 829 q 314 847 343 829 q 267 894 285 864 q 250 958 250 924 q 267 1024 250 993 q 315 1072 285 1054 q 382 1090 344 1090 q 451 1072 421 1090 q 498 1024 481 1054 q 515 958 515 993 q 498 894 515 924 q 451 847 481 864 q 382 829 421 829 m 382 860 q 454 889 426 860 q 482 958 482 918 q 453 1028 482 999 q 382 1058 425 1058 q 312 1029 340 1058 q 283 958 283 1000 q 311 888 283 917 q 382 860 339 860 m 479 1038 l 443 1053 l 571 1175 l 603 1150 l 479 1038 z "},"Ǽ":{"ha":1406,"x_min":10,"x_max":1313,"o":"m 10 0 l 621 972 l 669 972 l 669 929 l 624 929 l 654 944 l 61 0 l 10 0 m 218 285 l 231 325 l 669 325 l 669 285 l 218 285 m 694 515 l 1231 515 l 1231 472 l 694 472 l 694 515 m 703 43 l 1313 43 l 1313 0 l 656 0 l 656 972 l 1293 972 l 1293 929 l 703 929 l 703 43 z "},"ǽ":{"ha":1363,"x_min":86,"x_max":1290,"o":"m 346 -4 q 155 52 224 -4 q 86 200 86 108 q 111 297 86 253 q 194 367 136 340 q 349 394 251 394 l 621 394 l 621 357 l 349 357 q 181 313 231 357 q 132 201 132 268 q 189 80 132 125 q 349 35 246 35 q 538 99 465 35 q 611 281 611 163 l 611 467 q 554 629 611 574 q 389 685 497 685 q 245 658 311 685 q 132 588 179 631 l 107 621 q 233 698 158 669 q 390 726 308 726 q 578 669 511 726 q 654 496 644 611 l 639 508 q 759 667 676 607 q 951 726 842 726 q 1085 700 1024 726 q 1192 626 1146 674 q 1265 513 1239 578 q 1290 369 1290 449 q 1290 363 1290 367 q 1289 357 1290 360 l 647 357 l 647 394 l 1265 394 l 1246 369 q 1207 533 1246 461 q 1101 644 1168 604 q 951 685 1035 685 q 801 644 867 685 q 696 532 735 604 q 657 368 657 460 l 657 360 q 698 192 657 265 q 812 78 739 119 q 978 38 885 38 q 1111 64 1049 38 q 1217 144 1174 90 l 1246 114 q 1127 26 1197 56 q 976 -4 1057 -4 q 827 25 899 -4 q 703 113 756 54 q 624 260 650 171 l 653 257 q 600 106 644 164 q 490 22 556 49 q 346 -4 424 -4 m 564 843 l 757 1000 l 832 1000 l 619 843 l 564 843 z "},"Ǿ":{"ha":1163,"x_min":79,"x_max":1083,"o":"m 581 -6 q 382 31 474 -6 q 222 135 290 68 q 117 291 154 201 q 79 486 79 381 q 117 681 79 592 q 222 838 154 771 q 382 941 290 904 q 581 978 474 978 q 781 941 689 978 q 940 838 872 904 q 1045 681 1007 771 q 1083 486 1083 592 q 1045 291 1083 381 q 940 135 1007 201 q 781 31 872 68 q 581 -6 689 -6 m 581 38 q 761 71 678 38 q 906 165 844 104 q 1002 308 968 226 q 1036 486 1036 389 q 1002 665 1036 583 q 906 807 968 746 q 761 901 844 868 q 581 935 678 935 q 401 901 485 935 q 256 807 318 868 q 160 665 194 746 q 126 486 126 583 q 160 308 126 389 q 256 165 194 226 q 401 71 318 104 q 581 38 485 38 m 133 -97 l 983 1069 l 1029 1069 l 178 -97 l 133 -97 z "},"ǿ":{"ha":853,"x_min":72,"x_max":781,"o":"m 426 -4 q 245 42 325 -4 q 119 172 165 89 q 72 361 72 256 q 119 550 72 468 q 245 679 165 632 q 426 726 325 726 q 608 679 528 726 q 735 550 689 632 q 781 361 781 468 q 735 172 781 256 q 608 42 689 89 q 426 -4 528 -4 m 426 38 q 585 78 515 38 q 695 193 656 119 q 735 361 735 267 q 695 530 735 457 q 585 643 656 603 q 426 683 515 683 q 269 643 339 683 q 159 530 200 603 q 118 361 118 457 q 159 193 118 267 q 269 78 200 119 q 426 38 339 38 m 97 -97 l 715 818 l 756 818 l 138 -97 l 97 -97 m 357 843 l 550 1000 l 625 1000 l 413 843 l 357 843 z "},"Ȁ":{"ha":967,"x_min":10,"x_max":956,"o":"m 10 0 l 460 972 l 506 972 l 956 0 l 904 0 l 472 940 l 493 940 l 61 0 l 10 0 m 165 285 l 183 325 l 778 325 l 796 285 l 165 285 z "},"ȁ":{"ha":803,"x_min":86,"x_max":657,"o":"m 613 0 l 613 168 l 611 193 l 611 467 q 554 629 611 574 q 389 685 497 685 q 244 658 310 685 q 132 588 179 631 l 107 621 q 233 698 158 669 q 390 726 308 726 q 588 660 519 726 q 657 467 657 594 l 657 0 l 613 0 m 344 -4 q 205 21 263 -4 q 117 92 147 46 q 86 199 86 139 q 111 297 86 251 q 194 369 136 342 q 349 396 251 396 l 628 396 l 628 358 l 349 358 q 181 314 231 358 q 132 201 132 269 q 189 80 132 125 q 347 35 246 35 q 513 80 447 35 q 611 208 578 125 l 626 178 q 526 46 599 96 q 344 -4 454 -4 m 458 843 l 297 1000 l 360 1000 l 510 843 l 458 843 m 257 843 l 96 1000 l 158 1000 l 308 843 l 257 843 z "},"Ȃ":{"ha":967,"x_min":10,"x_max":956,"o":"m 10 0 l 460 972 l 506 972 l 956 0 l 904 0 l 472 940 l 493 940 l 61 0 l 10 0 m 165 285 l 183 325 l 778 325 l 796 285 l 165 285 z "},"ȃ":{"ha":803,"x_min":86,"x_max":657,"o":"m 613 0 l 613 168 l 611 193 l 611 467 q 554 629 611 574 q 389 685 497 685 q 244 658 310 685 q 132 588 179 631 l 107 621 q 233 698 158 669 q 390 726 308 726 q 588 660 519 726 q 657 467 657 594 l 657 0 l 613 0 m 344 -4 q 205 21 263 -4 q 117 92 147 46 q 86 199 86 139 q 111 297 86 251 q 194 369 136 342 q 349 396 251 396 l 628 396 l 628 358 l 349 358 q 181 314 231 358 q 132 201 132 269 q 189 80 132 125 q 347 35 246 35 q 513 80 447 35 q 611 208 578 125 l 626 178 q 526 46 599 96 q 344 -4 454 -4 m 193 843 q 251 963 196 919 q 383 1006 306 1006 q 517 963 461 1006 q 574 843 572 919 l 536 843 q 491 937 535 903 q 383 971 447 971 q 277 937 321 971 q 231 843 233 903 l 193 843 z "},"Ȅ":{"ha":928,"x_min":178,"x_max":835,"o":"m 217 515 l 753 515 l 753 472 l 217 472 l 217 515 m 225 43 l 835 43 l 835 0 l 178 0 l 178 972 l 815 972 l 815 929 l 225 929 l 225 43 z "},"ȅ":{"ha":821,"x_min":72,"x_max":749,"o":"m 438 -4 q 249 42 331 -4 q 119 172 167 89 q 72 361 72 256 q 116 550 72 468 q 237 679 160 632 q 411 726 314 726 q 584 681 507 726 q 705 553 661 635 q 749 367 749 472 q 749 360 749 364 q 749 354 749 357 l 103 354 l 103 392 l 724 392 l 706 369 q 667 531 706 460 q 563 644 629 603 q 411 685 496 685 q 260 644 326 685 q 155 531 193 603 q 117 368 117 460 l 117 360 q 158 192 117 265 q 272 78 200 119 q 438 38 344 38 q 572 64 508 38 q 676 144 635 90 l 706 114 q 587 26 657 56 q 438 -4 517 -4 m 486 843 l 325 1000 l 388 1000 l 538 843 l 486 843 m 285 843 l 124 1000 l 186 1000 l 336 843 l 285 843 z "},"Ȇ":{"ha":928,"x_min":178,"x_max":835,"o":"m 217 515 l 753 515 l 753 472 l 217 472 l 217 515 m 225 43 l 835 43 l 835 0 l 178 0 l 178 972 l 815 972 l 815 929 l 225 929 l 225 43 z "},"ȇ":{"ha":821,"x_min":72,"x_max":749,"o":"m 438 -4 q 249 42 331 -4 q 119 172 167 89 q 72 361 72 256 q 116 550 72 468 q 237 679 160 632 q 411 726 314 726 q 584 681 507 726 q 705 553 661 635 q 749 367 749 472 q 749 360 749 364 q 749 354 749 357 l 103 354 l 103 392 l 724 392 l 706 369 q 667 531 706 460 q 563 644 629 603 q 411 685 496 685 q 260 644 326 685 q 155 531 193 603 q 117 368 117 460 l 117 360 q 158 192 117 265 q 272 78 200 119 q 438 38 344 38 q 572 64 508 38 q 676 144 635 90 l 706 114 q 587 26 657 56 q 438 -4 517 -4 m 221 843 q 278 963 224 919 q 411 1006 333 1006 q 544 963 489 1006 q 601 843 600 919 l 564 843 q 519 937 563 903 q 411 971 475 971 q 305 937 349 971 q 258 843 261 903 l 221 843 z "},"Ȉ":{"ha":403,"x_min":-86,"x_max":328,"o":"m 178 0 l 178 972 l 225 972 l 225 0 l 178 0 z "},"ȉ":{"ha":354,"x_min":-111,"x_max":303,"o":"m 154 0 l 154 721 l 200 721 l 200 0 l 154 0 m 251 843 l 90 1000 l 153 1000 l 303 843 l 251 843 m 50 843 l -111 1000 l -49 1000 l 101 843 l 50 843 z "},"Ȋ":{"ha":403,"x_min":11,"x_max":392,"o":"m 178 0 l 178 972 l 225 972 l 225 0 l 178 0 z "},"ȋ":{"ha":354,"x_min":21,"x_max":332,"o":"m 154 0 l 154 721 l 200 721 l 200 0 l 154 0 m 21 843 q 65 963 21 919 q 176 1006 110 1006 q 288 963 244 1006 q 332 843 332 919 l 296 843 q 263 937 296 903 q 176 971 229 971 q 90 937 124 971 q 57 843 57 903 l 21 843 z "},"Ȍ":{"ha":1163,"x_min":79,"x_max":1083,"o":"m 581 -6 q 382 31 474 -6 q 222 135 290 68 q 117 291 154 201 q 79 486 79 381 q 117 681 79 592 q 222 838 154 771 q 382 941 290 904 q 581 978 474 978 q 781 941 689 978 q 940 838 872 904 q 1045 681 1007 771 q 1083 486 1083 592 q 1045 291 1083 381 q 940 135 1007 201 q 781 31 872 68 q 581 -6 689 -6 m 581 38 q 761 71 678 38 q 906 165 844 104 q 1002 308 968 226 q 1036 486 1036 389 q 1002 665 1036 583 q 906 807 968 746 q 761 901 844 868 q 581 935 678 935 q 401 901 485 935 q 256 807 318 868 q 160 665 194 746 q 126 486 126 583 q 160 308 126 389 q 256 165 194 226 q 401 71 318 104 q 581 38 485 38 z "},"ȍ":{"ha":853,"x_min":72,"x_max":781,"o":"m 426 -4 q 245 42 325 -4 q 119 172 165 89 q 72 361 72 256 q 119 550 72 468 q 245 679 165 632 q 426 726 325 726 q 608 679 528 726 q 735 550 689 632 q 781 361 781 468 q 735 172 781 256 q 608 42 689 89 q 426 -4 528 -4 m 426 38 q 585 78 515 38 q 695 193 656 119 q 735 361 735 267 q 695 530 735 457 q 585 643 656 603 q 426 683 515 683 q 269 643 339 683 q 159 530 200 603 q 118 361 118 457 q 159 193 118 267 q 269 78 200 119 q 426 38 339 38 m 501 843 l 340 1000 l 403 1000 l 553 843 l 501 843 m 300 843 l 139 1000 l 201 1000 l 351 843 l 300 843 z "},"Ȏ":{"ha":1163,"x_min":79,"x_max":1083,"o":"m 581 -6 q 382 31 474 -6 q 222 135 290 68 q 117 291 154 201 q 79 486 79 381 q 117 681 79 592 q 222 838 154 771 q 382 941 290 904 q 581 978 474 978 q 781 941 689 978 q 940 838 872 904 q 1045 681 1007 771 q 1083 486 1083 592 q 1045 291 1083 381 q 940 135 1007 201 q 781 31 872 68 q 581 -6 689 -6 m 581 38 q 761 71 678 38 q 906 165 844 104 q 1002 308 968 226 q 1036 486 1036 389 q 1002 665 1036 583 q 906 807 968 746 q 761 901 844 868 q 581 935 678 935 q 401 901 485 935 q 256 807 318 868 q 160 665 194 746 q 126 486 126 583 q 160 308 126 389 q 256 165 194 226 q 401 71 318 104 q 581 38 485 38 z "},"ȏ":{"ha":853,"x_min":72,"x_max":781,"o":"m 426 -4 q 245 42 325 -4 q 119 172 165 89 q 72 361 72 256 q 119 550 72 468 q 245 679 165 632 q 426 726 325 726 q 608 679 528 726 q 735 550 689 632 q 781 361 781 468 q 735 172 781 256 q 608 42 689 89 q 426 -4 528 -4 m 426 38 q 585 78 515 38 q 695 193 656 119 q 735 361 735 267 q 695 530 735 457 q 585 643 656 603 q 426 683 515 683 q 269 643 339 683 q 159 530 200 603 q 118 361 118 457 q 159 193 118 267 q 269 78 200 119 q 426 38 339 38 m 236 843 q 294 963 239 919 q 426 1006 349 1006 q 560 963 504 1006 q 617 843 615 919 l 579 843 q 534 937 578 903 q 426 971 490 971 q 320 937 364 971 q 274 843 276 903 l 236 843 z "},"Ȑ":{"ha":997,"x_min":178,"x_max":917,"o":"m 178 0 l 178 972 l 515 972 q 723 933 636 972 q 856 823 810 894 q 901 650 901 751 q 856 476 901 549 q 723 365 810 404 q 515 326 636 326 l 204 326 l 225 349 l 225 0 l 178 0 m 861 0 l 608 353 l 663 353 l 917 0 l 861 0 m 225 349 l 204 369 l 518 369 q 769 443 682 369 q 856 650 856 517 q 769 856 856 783 q 518 929 682 929 l 204 929 l 225 951 l 225 349 z "},"ȑ":{"ha":539,"x_min":29,"x_max":479,"o":"m 154 0 l 154 721 l 199 721 l 199 522 l 194 535 q 297 676 224 625 q 479 726 369 726 l 479 681 q 473 681 476 681 q 467 681 469 681 q 271 601 342 681 q 200 383 200 522 l 200 0 l 154 0 m 392 843 l 231 1000 l 293 1000 l 443 843 l 392 843 m 190 843 l 29 1000 l 92 1000 l 242 843 l 190 843 z "},"Ȓ":{"ha":997,"x_min":178,"x_max":917,"o":"m 178 0 l 178 972 l 515 972 q 723 933 636 972 q 856 823 810 894 q 901 650 901 751 q 856 476 901 549 q 723 365 810 404 q 515 326 636 326 l 204 326 l 225 349 l 225 0 l 178 0 m 861 0 l 608 353 l 663 353 l 917 0 l 861 0 m 225 349 l 204 369 l 518 369 q 769 443 682 369 q 856 650 856 517 q 769 856 856 783 q 518 929 682 929 l 204 929 l 225 951 l 225 349 z "},"ȓ":{"ha":539,"x_min":126,"x_max":507,"o":"m 154 0 l 154 721 l 199 721 l 199 522 l 194 535 q 297 676 224 625 q 479 726 369 726 l 479 681 q 473 681 476 681 q 467 681 469 681 q 271 601 342 681 q 200 383 200 522 l 200 0 l 154 0 m 126 843 q 184 963 129 919 q 317 1006 239 1006 q 450 963 394 1006 q 507 843 506 919 l 469 843 q 424 937 468 903 q 317 971 381 971 q 210 937 254 971 q 164 843 167 903 l 126 843 z "},"Ȕ":{"ha":1101,"x_min":169,"x_max":932,"o":"m 551 -6 q 272 99 374 -6 q 169 410 169 203 l 169 972 l 217 972 l 217 411 q 304 130 217 222 q 551 38 392 38 q 799 130 711 38 q 886 411 886 222 l 886 972 l 932 972 l 932 410 q 830 99 932 203 q 551 -6 728 -6 z "},"ȕ":{"ha":925,"x_min":146,"x_max":771,"o":"m 444 -4 q 285 30 351 -4 q 182 131 218 64 q 146 297 146 199 l 146 721 l 192 721 l 192 300 q 258 104 192 171 q 446 38 325 38 q 595 74 532 38 q 692 178 658 111 q 725 332 725 244 l 725 721 l 771 721 l 771 0 l 726 0 l 726 201 l 732 189 q 626 48 701 100 q 444 -4 551 -4 m 533 843 l 372 1000 l 435 1000 l 585 843 l 533 843 m 332 843 l 171 1000 l 233 1000 l 383 843 l 332 843 z "},"Ȗ":{"ha":1101,"x_min":169,"x_max":932,"o":"m 551 -6 q 272 99 374 -6 q 169 410 169 203 l 169 972 l 217 972 l 217 411 q 304 130 217 222 q 551 38 392 38 q 799 130 711 38 q 886 411 886 222 l 886 972 l 932 972 l 932 410 q 830 99 932 203 q 551 -6 728 -6 z "},"ȗ":{"ha":925,"x_min":146,"x_max":771,"o":"m 444 -4 q 285 30 351 -4 q 182 131 218 64 q 146 297 146 199 l 146 721 l 192 721 l 192 300 q 258 104 192 171 q 446 38 325 38 q 595 74 532 38 q 692 178 658 111 q 725 332 725 244 l 725 721 l 771 721 l 771 0 l 726 0 l 726 201 l 732 189 q 626 48 701 100 q 444 -4 551 -4 m 268 843 q 326 963 271 919 q 458 1006 381 1006 q 592 963 536 1006 q 649 843 647 919 l 611 843 q 566 937 610 903 q 458 971 522 971 q 352 937 396 971 q 306 843 308 903 l 268 843 z "},"Ș":{"ha":839,"x_min":76,"x_max":763,"o":"m 424 -6 q 222 33 317 -6 q 76 129 126 71 l 101 163 q 235 73 149 110 q 422 36 322 36 q 589 64 524 36 q 685 138 654 92 q 717 242 717 185 q 683 349 717 308 q 595 413 650 389 q 476 451 540 436 q 345 484 411 467 q 224 528 279 501 q 137 603 169 556 q 104 728 104 651 q 139 850 104 793 q 247 942 174 907 q 436 978 321 978 q 592 953 515 978 q 724 889 669 929 l 703 851 q 574 915 644 894 q 438 936 503 936 q 276 908 340 936 q 181 832 211 879 q 150 728 150 785 q 183 619 150 660 q 272 556 217 579 q 392 517 326 532 q 522 484 457 501 q 642 439 588 467 q 730 365 697 411 q 763 243 763 318 q 727 121 763 178 q 616 29 692 64 q 424 -6 540 -6 m 408 -361 l 440 -225 l 443 -247 q 414 -235 426 -247 q 401 -206 401 -222 q 413 -177 401 -189 q 443 -165 425 -165 q 474 -178 463 -165 q 485 -206 485 -192 q 482 -230 485 -218 q 475 -256 479 -242 l 442 -361 l 408 -361 z "},"ș":{"ha":653,"x_min":43,"x_max":603,"o":"m 328 -4 q 161 23 239 -4 q 43 92 83 50 l 65 128 q 175 64 106 92 q 329 36 244 36 q 503 78 450 36 q 557 186 557 119 q 531 263 557 235 q 461 306 504 290 q 366 330 418 321 q 261 351 314 339 q 165 383 208 363 q 96 439 122 403 q 69 535 69 475 q 98 629 69 586 q 185 699 126 672 q 333 726 243 726 q 467 706 400 726 q 575 653 535 686 l 551 617 q 451 668 508 651 q 332 685 393 685 q 168 642 219 685 q 117 536 117 599 q 143 456 117 486 q 213 411 169 426 q 308 386 256 396 q 412 365 360 376 q 507 335 464 354 q 576 281 550 315 q 603 186 603 246 q 572 87 603 131 q 480 19 540 43 q 328 -4 419 -4 m 292 -361 l 324 -225 l 326 -247 q 297 -235 310 -247 q 285 -206 285 -222 q 297 -177 285 -189 q 326 -165 308 -165 q 357 -178 346 -165 q 368 -206 368 -192 q 365 -230 368 -218 q 358 -256 363 -242 l 325 -361 l 292 -361 z "},"Ț":{"ha":771,"x_min":6,"x_max":765,"o":"m 363 0 l 363 929 l 6 929 l 6 972 l 765 972 l 765 929 l 408 929 l 408 0 l 363 0 m 350 -361 l 382 -225 l 385 -247 q 356 -235 368 -247 q 343 -206 343 -222 q 355 -177 343 -189 q 385 -165 367 -165 q 415 -178 404 -165 q 426 -206 426 -192 q 424 -230 426 -218 q 417 -256 421 -242 l 383 -361 l 350 -361 z "},"ț":{"ha":544,"x_min":31,"x_max":494,"o":"m 350 -4 q 214 46 261 -4 q 167 181 167 96 l 167 879 l 213 879 l 213 188 q 249 75 213 114 q 354 36 285 36 q 471 79 425 36 l 494 46 q 429 8 468 21 q 350 -4 390 -4 m 31 681 l 31 721 l 450 721 l 450 681 l 31 681 m 303 -361 l 335 -225 l 338 -247 q 308 -235 321 -247 q 296 -206 296 -222 q 308 -177 296 -189 q 338 -165 319 -165 q 368 -178 357 -165 q 379 -206 379 -192 q 376 -230 379 -218 q 369 -256 374 -242 l 336 -361 l 303 -361 z "},"Ȟ":{"ha":1132,"x_min":178,"x_max":954,"o":"m 907 972 l 954 972 l 954 0 l 907 0 l 907 972 m 225 0 l 178 0 l 178 972 l 225 972 l 225 0 m 915 472 l 217 472 l 217 515 l 915 515 l 915 472 z "},"ȟ":{"ha":931,"x_min":-25,"x_max":785,"o":"m 494 726 q 648 692 583 726 q 749 590 713 657 q 785 424 785 522 l 785 0 l 739 0 l 739 421 q 674 617 739 550 q 490 683 608 683 q 335 647 400 683 q 235 544 269 611 q 200 389 200 478 l 200 0 l 154 0 l 154 1031 l 200 1031 l 200 518 l 193 531 q 303 674 226 621 q 494 726 381 726 m 147 1153 l -25 1310 l 26 1310 l 189 1174 l 164 1174 l 326 1310 l 378 1310 l 206 1153 l 147 1153 z "},"Ȫ":{"ha":1163,"x_min":79,"x_max":1083,"o":"m 581 -6 q 382 31 474 -6 q 222 135 290 68 q 117 291 154 201 q 79 486 79 381 q 117 681 79 592 q 222 838 154 771 q 382 941 290 904 q 581 978 474 978 q 781 941 689 978 q 940 838 872 904 q 1045 681 1007 771 q 1083 486 1083 592 q 1045 291 1083 381 q 940 135 1007 201 q 781 31 872 68 q 581 -6 689 -6 m 581 38 q 761 71 678 38 q 906 165 844 104 q 1002 308 968 226 q 1036 486 1036 389 q 1002 665 1036 583 q 906 807 968 746 q 761 901 844 868 q 581 935 678 935 q 401 901 485 935 q 256 807 318 868 q 160 665 194 746 q 126 486 126 583 q 160 308 126 389 q 256 165 194 226 q 401 71 318 104 q 581 38 485 38 z "},"ȫ":{"ha":853,"x_min":72,"x_max":781,"o":"m 426 -4 q 245 42 325 -4 q 119 172 165 89 q 72 361 72 256 q 119 550 72 468 q 245 679 165 632 q 426 726 325 726 q 608 679 528 726 q 735 550 689 632 q 781 361 781 468 q 735 172 781 256 q 608 42 689 89 q 426 -4 528 -4 m 426 38 q 585 78 515 38 q 695 193 656 119 q 735 361 735 267 q 695 530 735 457 q 585 643 656 603 q 426 683 515 683 q 269 643 339 683 q 159 530 200 603 q 118 361 118 457 q 159 193 118 267 q 269 78 200 119 q 426 38 339 38 z "},"Ȭ":{"ha":1163,"x_min":79,"x_max":1083,"o":"m 581 -6 q 382 31 474 -6 q 222 135 290 68 q 117 291 154 201 q 79 486 79 381 q 117 681 79 592 q 222 838 154 771 q 382 941 290 904 q 581 978 474 978 q 781 941 689 978 q 940 838 872 904 q 1045 681 1007 771 q 1083 486 1083 592 q 1045 291 1083 381 q 940 135 1007 201 q 781 31 872 68 q 581 -6 689 -6 m 581 38 q 761 71 678 38 q 906 165 844 104 q 1002 308 968 226 q 1036 486 1036 389 q 1002 665 1036 583 q 906 807 968 746 q 761 901 844 868 q 581 935 678 935 q 401 901 485 935 q 256 807 318 868 q 160 665 194 746 q 126 486 126 583 q 160 308 126 389 q 256 165 194 226 q 401 71 318 104 q 581 38 485 38 z "},"ȭ":{"ha":853,"x_min":72,"x_max":781,"o":"m 426 -4 q 245 42 325 -4 q 119 172 165 89 q 72 361 72 256 q 119 550 72 468 q 245 679 165 632 q 426 726 325 726 q 608 679 528 726 q 735 550 689 632 q 781 361 781 468 q 735 172 781 256 q 608 42 689 89 q 426 -4 528 -4 m 426 38 q 585 78 515 38 q 695 193 656 119 q 735 361 735 267 q 695 530 735 457 q 585 643 656 603 q 426 683 515 683 q 269 643 339 683 q 159 530 200 603 q 118 361 118 457 q 159 193 118 267 q 269 78 200 119 q 426 38 339 38 z "},"Ȱ":{"ha":1163,"x_min":79,"x_max":1083,"o":"m 581 -6 q 382 31 474 -6 q 222 135 290 68 q 117 291 154 201 q 79 486 79 381 q 117 681 79 592 q 222 838 154 771 q 382 941 290 904 q 581 978 474 978 q 781 941 689 978 q 940 838 872 904 q 1045 681 1007 771 q 1083 486 1083 592 q 1045 291 1083 381 q 940 135 1007 201 q 781 31 872 68 q 581 -6 689 -6 m 581 38 q 761 71 678 38 q 906 165 844 104 q 1002 308 968 226 q 1036 486 1036 389 q 1002 665 1036 583 q 906 807 968 746 q 761 901 844 868 q 581 935 678 935 q 401 901 485 935 q 256 807 318 868 q 160 665 194 746 q 126 486 126 583 q 160 308 126 389 q 256 165 194 226 q 401 71 318 104 q 581 38 485 38 z "},"ȱ":{"ha":853,"x_min":72,"x_max":781,"o":"m 426 -4 q 245 42 325 -4 q 119 172 165 89 q 72 361 72 256 q 119 550 72 468 q 245 679 165 632 q 426 726 325 726 q 608 679 528 726 q 735 550 689 632 q 781 361 781 468 q 735 172 781 256 q 608 42 689 89 q 426 -4 528 -4 m 426 38 q 585 78 515 38 q 695 193 656 119 q 735 361 735 267 q 695 530 735 457 q 585 643 656 603 q 426 683 515 683 q 269 643 339 683 q 159 530 200 603 q 118 361 118 457 q 159 193 118 267 q 269 78 200 119 q 426 38 339 38 z "},"Ȳ":{"ha":856,"x_min":11,"x_max":846,"o":"m 404 0 l 404 346 l 415 314 l 11 972 l 63 972 l 440 358 l 417 358 l 796 972 l 846 972 l 440 314 l 451 346 l 451 0 l 404 0 z "},"ȳ":{"ha":718,"x_min":-40,"x_max":711,"o":"m 121 -274 q 31 -258 72 -274 q -40 -210 -11 -242 l -14 -174 q 47 -219 15 -204 q 121 -233 79 -233 q 214 -204 174 -233 q 289 -97 254 -175 l 342 17 l 349 28 l 663 721 l 711 721 l 333 -108 q 273 -206 306 -169 q 203 -258 240 -243 q 121 -274 165 -274 m 343 -17 l 7 721 l 57 721 l 369 31 l 343 -17 m 143 903 l 143 940 l 535 940 l 535 903 l 143 903 z "},"ȷ":{"ha":361,"x_min":-121,"x_max":207,"o":"m 26 -274 q -56 -262 -17 -274 q -121 -224 -96 -250 l -97 -190 q 24 -233 -51 -233 q 126 -194 90 -233 q 161 -81 161 -156 l 161 721 l 207 721 l 207 -86 q 160 -222 207 -171 q 26 -274 114 -274 z "},"ə":{"ha":821,"x_min":72,"x_max":749,"o":"m 385 726 q 574 679 492 726 q 702 550 656 632 q 749 360 749 468 q 705 172 749 254 q 585 42 661 89 q 411 -4 508 -4 q 238 42 314 -4 q 117 168 161 88 q 72 354 72 249 q 72 362 72 358 q 72 368 72 365 l 718 368 l 718 329 l 97 329 l 115 353 q 154 190 115 261 q 260 77 193 118 q 411 36 326 36 q 563 77 496 36 q 667 190 629 118 q 704 353 704 263 l 704 361 q 663 529 704 457 q 549 642 622 601 q 383 683 476 683 q 250 658 313 683 q 144 576 188 632 l 117 607 q 235 696 165 665 q 385 726 306 726 z "},"ʒ":{"ha":686,"x_min":-35,"x_max":629,"o":"m 301 -275 q 101 -237 192 -275 q -35 -139 11 -199 l -11 -104 q 114 -196 31 -158 q 300 -233 197 -233 q 512 -169 440 -233 q 583 4 583 -104 q 510 177 583 113 q 285 242 438 242 l 229 242 l 229 275 l 547 696 l 551 679 l -3 679 l -3 721 l 593 721 l 593 688 l 275 267 l 263 282 l 288 282 q 545 206 461 282 q 629 4 629 129 q 592 -141 629 -78 q 482 -240 556 -204 q 301 -275 408 -275 z "},"ʹ":{"ha":261,"x_min":108,"x_max":154,"o":"m 113 621 l 108 972 l 154 972 l 150 621 l 113 621 z "},"ʺ":{"ha":478,"x_min":108,"x_max":369,"o":"m 113 621 l 108 972 l 154 972 l 150 621 l 113 621 m 328 621 l 324 972 l 369 972 l 365 621 l 328 621 z "},"ʻ":{"ha":357,"x_min":126,"x_max":219,"o":"m 219 1122 l 172 904 l 169 931 q 204 917 190 931 q 218 885 218 904 q 205 852 218 865 q 172 839 192 839 q 139 853 151 839 q 126 885 126 867 q 127 900 126 893 q 130 916 128 907 q 135 935 132 925 l 185 1122 l 219 1122 z "},"ʼ":{"ha":274,"x_min":90,"x_max":185,"o":"m 90 751 l 139 971 l 142 943 q 107 957 121 943 q 93 989 93 971 q 106 1022 93 1010 q 139 1035 119 1035 q 172 1021 160 1035 q 185 989 185 1007 q 184 974 185 982 q 181 958 183 965 q 176 939 179 950 l 126 751 l 90 751 z "},"ʾ":{"ha":833,"x_min":415,"x_max":547,"o":"m 415 829 l 415 861 q 487 889 460 861 q 514 958 514 917 q 486 1029 514 1000 q 415 1058 458 1058 l 415 1090 q 484 1072 454 1090 q 531 1024 514 1054 q 547 958 547 993 q 531 894 547 924 q 484 847 514 864 q 415 829 454 829 z "},"ʿ":{"ha":833,"x_min":283,"x_max":415,"o":"m 415 829 q 347 847 376 829 q 300 894 317 864 q 283 958 283 924 q 300 1024 283 993 q 347 1072 317 1054 q 415 1090 378 1090 l 415 1058 q 345 1029 374 1058 q 317 958 317 1000 q 344 889 317 917 q 415 861 372 861 l 415 829 z "},"ˆ":{"ha":833,"x_min":215,"x_max":618,"o":"m 215 843 l 388 1000 l 446 1000 l 618 843 l 567 843 l 404 979 l 429 979 l 267 843 l 215 843 z "},"ˇ":{"ha":833,"x_min":215,"x_max":618,"o":"m 388 843 l 215 1000 l 267 1000 l 429 864 l 404 864 l 567 1000 l 618 1000 l 446 843 l 388 843 z "},"ˈ":{"ha":218,"x_min":90,"x_max":128,"o":"m 90 718 l 90 971 l 128 971 l 128 718 l 90 718 z "},"ˉ":{"ha":833,"x_min":221,"x_max":613,"o":"m 221 903 l 221 940 l 613 940 l 613 903 l 221 903 z "},"ˊ":{"ha":833,"x_min":347,"x_max":615,"o":"m 347 843 l 540 1000 l 615 1000 l 403 843 l 347 843 z "},"ˋ":{"ha":833,"x_min":218,"x_max":486,"o":"m 431 843 l 218 1000 l 293 1000 l 486 843 l 431 843 z "},"ˌ":{"ha":218,"x_min":90,"x_max":129,"o":"m 90 -294 l 90 -42 l 129 -42 l 129 -294 l 90 -294 z "},"˘":{"ha":833,"x_min":226,"x_max":607,"o":"m 417 839 q 284 883 339 839 q 226 1000 229 926 l 264 1000 q 310 908 267 942 q 417 874 354 874 q 524 908 481 874 q 569 1000 568 942 l 607 1000 q 550 883 606 926 q 417 839 494 839 z "},"˙":{"ha":833,"x_min":372,"x_max":461,"o":"m 417 886 q 385 899 399 886 q 372 931 372 913 q 385 962 372 949 q 417 975 399 975 q 448 962 435 975 q 461 931 461 949 q 448 899 461 913 q 417 886 435 886 z "},"˚":{"ha":833,"x_min":283,"x_max":549,"o":"m 415 829 q 347 847 376 829 q 301 894 318 864 q 283 958 283 924 q 301 1024 283 993 q 348 1072 318 1054 q 415 1090 378 1090 q 484 1072 454 1090 q 531 1024 514 1054 q 549 958 549 993 q 531 894 549 924 q 484 847 514 864 q 415 829 454 829 m 415 860 q 488 889 460 860 q 515 958 515 918 q 487 1028 515 999 q 415 1058 458 1058 q 345 1029 374 1058 q 317 958 317 1000 q 344 888 317 917 q 415 860 372 860 z "},"˛":{"ha":833,"x_min":204,"x_max":444,"o":"m 338 -299 q 242 -267 279 -299 q 204 -179 204 -235 q 219 -115 204 -149 q 276 -44 235 -81 q 396 26 318 -8 l 418 0 q 307 -62 344 -31 q 256 -123 269 -94 q 243 -178 243 -151 q 271 -242 243 -219 q 342 -264 299 -264 q 387 -256 364 -264 q 426 -233 410 -247 l 444 -261 q 394 -290 421 -281 q 338 -299 368 -299 z "},"˜":{"ha":833,"x_min":221,"x_max":613,"o":"m 506 857 q 453 872 476 857 q 410 905 429 886 q 372 938 390 924 q 329 953 353 953 q 277 928 296 953 q 256 861 258 904 l 221 861 q 252 954 224 919 q 328 989 281 989 q 381 974 357 989 q 424 941 404 960 q 463 908 443 922 q 504 893 482 893 q 557 918 538 893 q 578 982 576 943 l 613 982 q 582 892 611 928 q 506 857 553 857 z "},"˝":{"ha":833,"x_min":290,"x_max":704,"o":"m 492 843 l 642 1000 l 704 1000 l 543 843 l 492 843 m 290 843 l 440 1000 l 503 1000 l 342 843 l 290 843 z "},"̀":{"ha":0,"x_min":218,"x_max":486,"o":"m 431 843 l 218 1000 l 293 1000 l 486 843 l 431 843 z "},"́":{"ha":0,"x_min":347,"x_max":615,"o":"m 347 843 l 540 1000 l 615 1000 l 403 843 l 347 843 z "},"̂":{"ha":0,"x_min":215,"x_max":618,"o":"m 215 843 l 388 1000 l 446 1000 l 618 843 l 567 843 l 404 979 l 429 979 l 267 843 l 215 843 z "},"̃":{"ha":0,"x_min":221,"x_max":613,"o":"m 506 857 q 453 872 476 857 q 410 905 429 886 q 372 938 390 924 q 329 953 353 953 q 277 928 296 953 q 256 861 258 904 l 221 861 q 252 954 224 919 q 328 989 281 989 q 381 974 357 989 q 424 941 404 960 q 463 908 443 922 q 504 893 482 893 q 557 918 538 893 q 578 982 576 943 l 613 982 q 582 892 611 928 q 506 857 553 857 z "},"̄":{"ha":0,"x_min":221,"x_max":613,"o":"m 221 903 l 221 940 l 613 940 l 613 903 l 221 903 z "},"̆":{"ha":0,"x_min":226,"x_max":607,"o":"m 417 839 q 284 883 339 839 q 226 1000 229 926 l 264 1000 q 310 908 267 942 q 417 874 354 874 q 524 908 481 874 q 569 1000 568 942 l 607 1000 q 550 883 606 926 q 417 839 494 839 z "},"̇":{"ha":0,"x_min":372,"x_max":461,"o":"m 417 886 q 385 899 399 886 q 372 931 372 913 q 385 962 372 949 q 417 975 399 975 q 448 962 435 975 q 461 931 461 949 q 448 899 461 913 q 417 886 435 886 z "},"̈":{"ha":0,"x_min":258,"x_max":575,"o":"m 533 886 q 504 899 517 886 q 492 928 492 911 q 504 958 492 946 q 533 971 517 971 q 563 958 551 971 q 575 928 575 946 q 563 899 575 911 q 533 886 551 886 m 300 886 q 271 899 283 886 q 258 928 258 911 q 271 958 258 946 q 300 971 283 971 q 330 958 318 971 q 342 928 342 946 q 330 899 342 911 q 300 886 318 886 z "},"̉":{"ha":0,"x_min":311,"x_max":526,"o":"m 424 836 l 404 864 q 469 909 447 883 q 490 968 490 935 q 468 1021 490 1000 q 411 1042 446 1042 q 325 1015 365 1042 l 311 1046 q 359 1069 332 1061 q 413 1076 386 1076 q 495 1048 464 1076 q 526 972 526 1019 q 502 894 526 928 q 424 836 478 861 z "},"̊":{"ha":0,"x_min":283,"x_max":549,"o":"m 415 829 q 347 847 376 829 q 301 894 318 864 q 283 958 283 924 q 301 1024 283 993 q 348 1072 318 1054 q 415 1090 378 1090 q 484 1072 454 1090 q 531 1024 514 1054 q 549 958 549 993 q 531 894 549 924 q 484 847 514 864 q 415 829 454 829 m 415 860 q 488 889 460 860 q 515 958 515 918 q 487 1028 515 999 q 415 1058 458 1058 q 345 1029 374 1058 q 317 958 317 1000 q 344 888 317 917 q 415 860 372 860 z "},"̋":{"ha":0,"x_min":290,"x_max":704,"o":"m 492 843 l 642 1000 l 704 1000 l 543 843 l 492 843 m 290 843 l 440 1000 l 503 1000 l 342 843 l 290 843 z "},"̌":{"ha":0,"x_min":215,"x_max":618,"o":"m 388 843 l 215 1000 l 267 1000 l 429 864 l 404 864 l 567 1000 l 618 1000 l 446 843 l 388 843 z "},"̏":{"ha":0,"x_min":129,"x_max":543,"o":"m 492 843 l 331 1000 l 393 1000 l 543 843 l 492 843 m 290 843 l 129 1000 l 192 1000 l 342 843 l 290 843 z "},"̑":{"ha":0,"x_min":226,"x_max":607,"o":"m 226 843 q 284 963 229 919 q 417 1006 339 1006 q 550 963 494 1006 q 607 843 606 919 l 569 843 q 524 937 568 903 q 417 971 481 971 q 310 937 354 971 q 264 843 267 903 l 226 843 z "},"̒":{"ha":0,"x_min":374,"x_max":460,"o":"m 417 839 q 385 851 396 839 q 374 879 374 864 q 376 901 374 890 q 383 925 379 911 l 424 1061 l 457 1061 l 421 899 l 417 919 q 448 908 436 919 q 460 879 460 897 q 448 851 460 863 q 417 839 436 839 z "},"̛":{"ha":0,"x_min":401,"x_max":551,"o":"m 401 682 l 401 721 l 417 721 q 491 749 469 721 q 513 817 513 778 q 504 867 513 844 q 485 910 496 890 l 519 924 q 543 875 535 903 q 551 818 551 847 q 519 722 551 761 q 417 682 488 682 l 401 682 z "},"̣":{"ha":0,"x_min":375,"x_max":458,"o":"m 417 -249 q 388 -236 400 -249 q 375 -207 375 -224 q 388 -177 375 -189 q 417 -165 400 -165 q 447 -177 435 -165 q 458 -207 458 -189 q 447 -236 458 -224 q 417 -249 435 -249 z "},"̤":{"ha":0,"x_min":268,"x_max":565,"o":"m 524 -249 q 494 -236 507 -249 q 482 -207 482 -224 q 494 -177 482 -189 q 524 -165 507 -165 q 553 -177 542 -165 q 565 -207 565 -189 q 553 -236 565 -224 q 524 -249 542 -249 m 310 -249 q 281 -236 293 -249 q 268 -207 268 -224 q 281 -177 268 -189 q 310 -165 293 -165 q 340 -177 328 -165 q 351 -207 351 -189 q 340 -236 351 -224 q 310 -249 328 -249 z "},"̦":{"ha":0,"x_min":375,"x_max":458,"o":"m 382 -361 l 414 -225 l 417 -247 q 388 -235 400 -247 q 375 -206 375 -222 q 387 -177 375 -189 q 417 -165 399 -165 q 447 -178 436 -165 q 458 -206 458 -192 q 456 -230 458 -218 q 449 -256 453 -242 l 415 -361 l 382 -361 z "},"̧":{"ha":0,"x_min":286,"x_max":526,"o":"m 392 -299 q 336 -290 363 -299 q 286 -262 310 -281 l 304 -233 q 344 -256 321 -249 q 392 -264 367 -264 q 460 -244 433 -264 q 488 -185 488 -224 q 463 -129 488 -151 q 392 -107 439 -107 l 367 -107 l 399 7 l 433 7 l 410 -76 q 495 -109 464 -79 q 526 -186 526 -139 q 488 -268 526 -237 q 392 -299 450 -299 z "},"̨":{"ha":0,"x_min":204,"x_max":444,"o":"m 338 -299 q 242 -267 279 -299 q 204 -179 204 -235 q 219 -115 204 -149 q 276 -44 235 -81 q 396 26 318 -8 l 418 0 q 307 -62 344 -31 q 256 -123 269 -94 q 243 -178 243 -151 q 271 -242 243 -219 q 342 -264 299 -264 q 387 -256 364 -264 q 426 -233 410 -247 l 444 -261 q 394 -290 421 -281 q 338 -299 368 -299 z "},"̮":{"ha":0,"x_min":226,"x_max":607,"o":"m 417 -278 q 284 -236 339 -278 q 226 -122 229 -194 l 263 -122 q 310 -210 265 -178 q 417 -243 354 -243 q 525 -210 481 -243 q 571 -122 569 -178 l 607 -122 q 550 -236 606 -194 q 417 -278 494 -278 z "},"̱":{"ha":0,"x_min":221,"x_max":613,"o":"m 221 -225 l 221 -187 l 613 -187 l 613 -225 l 221 -225 z "},"̵":{"ha":0,"x_min":151,"x_max":682,"o":"m 151 593 l 151 632 l 682 632 l 682 593 l 151 593 z "},"̶":{"ha":0,"x_min":22,"x_max":1107,"o":"m 22 592 l 22 632 l 1107 632 l 1107 592 l 22 592 z "},"̷":{"ha":0,"x_min":71,"x_max":379,"o":"m 94 406 l 71 435 l 357 646 l 379 617 l 94 406 z "},"̸":{"ha":0,"x_min":93,"x_max":751,"o":"m 93 -97 l 711 818 l 751 818 l 133 -97 l 93 -97 z "},"Δ":{"ha":967,"x_min":10,"x_max":956,"o":"m 506 972 l 956 0 l 10 0 l 460 972 l 506 972 m 69 22 l 57 43 l 908 43 l 894 22 l 472 940 l 493 940 l 69 22 z "},"Ω":{"ha":1261,"x_min":14,"x_max":1247,"o":"m 14 0 l 14 43 l 382 43 q 192 238 256 119 q 129 489 129 357 q 167 683 129 594 q 272 838 204 772 q 432 941 340 904 q 631 978 524 978 q 829 941 738 978 q 989 838 921 904 q 1094 683 1057 772 q 1132 489 1132 594 q 1069 238 1132 357 q 879 43 1006 119 l 1247 43 l 1247 0 l 797 0 l 797 42 q 1012 233 939 115 q 1085 488 1085 350 q 1051 665 1085 583 q 956 807 1017 746 q 811 901 894 868 q 631 935 728 935 q 450 901 533 935 q 306 807 367 868 q 210 665 244 746 q 176 488 176 583 q 249 233 176 350 q 464 42 322 115 l 464 0 l 14 0 z "},"μ":{"ha":933,"x_min":154,"x_max":779,"o":"m 154 -269 l 154 721 l 200 721 l 200 300 q 267 104 200 171 q 454 38 333 38 q 603 74 540 38 q 700 178 667 111 q 733 332 733 244 l 733 721 l 779 721 l 779 0 l 735 0 l 735 210 l 744 203 q 683 90 724 136 q 584 19 642 43 q 456 -4 526 -4 q 292 35 360 -4 q 193 151 225 74 l 200 185 l 200 -269 l 154 -269 z "},"π":{"ha":999,"x_min":-1,"x_max":989,"o":"m 50 372 q 13 440 28 401 q -1 517 -1 479 q 23 621 -1 575 q 99 694 47 667 q 228 721 150 721 l 989 721 l 989 679 l 229 679 q 86 632 131 679 q 42 514 42 585 q 54 449 42 481 q 86 390 67 417 l 50 372 m 258 0 l 340 707 l 386 707 l 304 0 l 258 0 m 697 0 l 697 707 l 744 707 l 744 0 l 697 0 z "},"Ѐ":{"ha":900,"x_min":183,"x_max":840,"o":"z "},"Ё":{"ha":900,"x_min":183,"x_max":840,"o":"z "},"Ђ":{"ha":1131,"x_min":14,"x_max":1063,"o":"m 369 0 l 369 946 l 386 929 l 14 929 l 14 972 l 796 972 l 796 929 l 400 929 l 417 946 l 417 0 l 369 0 m 638 10 l 647 51 q 781 39 715 35 q 900 72 847 43 q 985 153 953 100 q 1017 286 1017 206 q 965 449 1017 390 q 824 526 913 508 q 624 525 735 544 q 397 450 514 506 l 400 496 q 645 571 526 554 q 858 563 764 588 q 1008 471 953 539 q 1063 288 1063 403 q 1026 133 1063 194 q 928 38 989 71 q 791 -2 867 4 q 638 10 715 -8 z "},"Ѓ":{"ha":783,"x_min":183,"x_max":772,"o":"m 183 0 l 183 972 l 772 972 l 771 929 l 214 929 l 231 946 l 231 0 l 183 0 z "},"Є":{"ha":979,"x_min":94,"x_max":918,"o":"m 689 496 l 689 454 l 125 454 l 125 496 l 689 496 m 568 -6 q 382 31 468 -6 q 231 135 296 68 q 130 291 165 201 q 94 486 94 381 q 130 681 94 592 q 231 838 165 771 q 382 941 296 904 q 568 978 468 978 q 765 946 674 978 q 918 849 856 914 l 890 818 q 744 908 825 881 q 569 935 663 935 q 401 901 479 935 q 265 806 322 867 q 174 663 207 744 q 142 486 142 582 q 174 309 142 390 q 265 167 207 228 q 401 72 322 106 q 569 38 479 38 q 744 65 663 38 q 890 156 825 92 l 918 125 q 765 27 856 60 q 568 -6 674 -6 z "},"Ѕ":{"ha":853,"x_min":83,"x_max":769,"o":"m 431 -6 q 228 33 324 -6 q 83 129 133 71 l 108 163 q 242 73 156 110 q 429 36 329 36 q 596 64 531 36 q 692 138 661 92 q 724 242 724 185 q 690 349 724 308 q 602 413 657 389 q 483 451 547 436 q 352 484 418 467 q 231 528 286 501 q 144 603 176 556 q 111 728 111 651 q 146 850 111 793 q 254 942 181 907 q 443 978 328 978 q 599 953 522 978 q 731 889 676 929 l 710 851 q 581 915 651 894 q 444 936 510 936 q 283 908 347 936 q 188 832 218 879 q 157 728 157 785 q 190 619 157 660 q 278 556 224 579 q 399 517 333 532 q 529 484 464 501 q 649 439 594 467 q 737 365 704 411 q 769 243 769 318 q 734 121 769 178 q 623 29 699 64 q 431 -6 547 -6 z "},"І":{"ha":414,"x_min":183,"x_max":231,"o":"m 183 0 l 183 972 l 231 972 l 231 0 l 183 0 z "},"Ї":{"ha":403,"x_min":43,"x_max":360,"o":"m 178 0 l 178 972 l 225 972 l 225 0 l 178 0 m 318 1094 q 289 1107 301 1094 q 276 1136 276 1119 q 289 1167 276 1154 q 318 1179 301 1179 q 348 1167 336 1179 q 360 1136 360 1154 q 348 1107 360 1119 q 318 1094 336 1094 m 85 1094 q 56 1107 68 1094 q 43 1136 43 1119 q 56 1167 43 1154 q 85 1179 68 1179 q 115 1167 103 1179 q 126 1136 126 1154 q 115 1107 126 1119 q 85 1094 103 1094 z "},"Ј":{"ha":704,"x_min":36,"x_max":535,"o":"m 285 -6 q 142 31 208 -6 q 36 132 76 68 l 65 163 q 163 70 106 103 q 286 38 219 38 q 488 278 488 38 l 488 929 l 126 929 l 126 972 l 535 972 l 535 276 q 472 65 535 136 q 285 -6 410 -6 z "},"Љ":{"ha":1646,"x_min":11,"x_max":1576,"o":"m 74 -6 q 44 -3 58 -6 q 11 3 29 -1 l 18 46 q 65 40 43 40 q 170 90 129 40 q 233 251 211 140 q 263 546 256 363 l 278 972 l 896 972 l 896 0 l 850 0 l 850 946 l 867 929 l 306 929 l 321 946 l 306 544 q 286 294 301 399 q 242 124 271 189 q 172 26 214 58 q 74 -6 131 -6 m 1228 610 q 1488 534 1399 610 q 1576 310 1576 458 q 1483 78 1576 157 q 1211 0 1390 0 l 850 0 l 850 972 l 897 972 l 897 610 l 1228 610 m 1215 40 q 1450 108 1371 40 q 1529 308 1529 175 q 1451 505 1529 440 q 1215 569 1374 569 l 897 569 l 897 40 l 1215 40 z "},"Њ":{"ha":1653,"x_min":183,"x_max":1590,"o":"m 183 0 l 183 972 l 231 972 l 231 556 l 889 556 l 889 972 l 935 972 l 935 0 l 889 0 l 889 514 l 231 514 l 231 0 l 183 0 m 935 24 l 921 40 l 1250 40 q 1466 105 1389 40 q 1543 282 1543 169 q 1467 455 1543 394 q 1250 515 1392 515 l 921 515 l 935 532 l 935 24 m 889 0 l 889 972 l 935 972 l 935 540 l 921 557 l 1264 557 q 1504 486 1418 557 q 1590 286 1590 415 q 1500 76 1590 151 q 1249 0 1410 0 l 889 0 z "},"Ћ":{"ha":1147,"x_min":13,"x_max":1061,"o":"m 368 0 l 368 946 l 385 929 l 13 929 l 13 972 l 793 972 l 793 929 l 399 929 l 415 946 l 415 0 l 368 0 m 399 494 q 574 558 492 538 q 736 579 657 579 q 972 506 882 579 q 1061 286 1061 432 l 1061 0 l 1015 0 l 1015 282 q 940 471 1015 406 q 731 536 864 536 q 396 449 585 536 l 399 494 z "},"Ќ":{"ha":957,"x_min":183,"x_max":921,"o":"m 865 0 l 458 493 l 499 514 l 921 0 l 865 0 m 183 0 l 183 972 l 231 972 l 231 0 l 183 0 m 214 472 l 214 515 l 503 515 l 503 472 l 214 472 m 500 482 l 458 494 l 840 972 l 894 972 l 500 482 z "},"Ѝ":{"ha":1147,"x_min":183,"x_max":963,"o":"m 183 0 l 183 972 l 231 972 l 231 82 l 924 972 l 963 972 l 963 0 l 917 0 l 917 890 l 222 0 l 183 0 z "},"Ў":{"ha":922,"x_min":38,"x_max":897,"o":"m 144 54 q 276 42 211 26 q 401 150 342 57 l 449 224 l 454 232 l 847 972 l 897 972 l 444 139 q 350 29 403 64 q 240 -6 297 -6 q 129 15 183 -7 l 144 54 m 451 185 l 38 972 l 89 972 l 476 229 l 451 185 m 447 1047 q 301 1091 360 1047 q 240 1210 243 1135 l 281 1210 q 330 1116 283 1151 q 447 1081 376 1081 q 565 1116 518 1081 q 614 1210 613 1151 l 654 1210 q 594 1091 653 1135 q 447 1047 535 1047 z "},"Џ":{"ha":1117,"x_min":183,"x_max":933,"o":"m 933 972 l 933 0 l 581 0 l 581 -239 l 536 -239 l 536 0 l 183 0 l 183 972 l 231 972 l 231 43 l 888 43 l 888 972 l 933 972 z "},"А":{"ha":1004,"x_min":29,"x_max":975,"o":"m 29 0 l 479 972 l 525 972 l 975 0 l 924 0 l 492 940 l 513 940 l 81 0 l 29 0 m 185 285 l 203 325 l 797 325 l 815 285 l 185 285 z "},"Б":{"ha":1000,"x_min":183,"x_max":915,"o":"m 183 0 l 183 972 l 863 972 l 863 931 l 231 931 l 231 554 l 568 554 q 827 485 739 554 q 915 282 915 415 q 823 72 915 143 q 551 0 731 0 l 183 0 m 231 40 l 556 40 q 790 101 711 40 q 869 281 869 161 q 556 514 869 514 l 231 514 l 231 40 z "},"В":{"ha":1043,"x_min":183,"x_max":935,"o":"m 183 0 l 183 972 l 565 972 q 798 910 711 972 q 885 726 885 849 q 801 544 885 604 q 585 485 718 485 l 608 507 q 852 443 769 507 q 935 256 935 379 q 850 67 935 133 q 592 0 765 0 l 183 0 m 231 40 l 596 40 q 813 93 739 40 q 888 258 888 146 q 813 422 888 371 q 596 474 739 474 l 231 474 l 231 40 m 231 514 l 567 514 q 767 567 696 514 q 838 722 838 619 q 767 878 838 825 q 567 932 696 932 l 231 932 l 231 514 z "},"Г":{"ha":783,"x_min":183,"x_max":772,"o":"m 183 0 l 183 972 l 772 972 l 771 929 l 214 929 l 231 946 l 231 0 l 183 0 z "},"Д":{"ha":1082,"x_min":13,"x_max":1026,"o":"m 828 22 l 828 929 l 304 929 l 294 647 q 281 417 290 528 q 251 220 271 307 q 195 81 231 133 q 106 26 160 29 l 49 43 q 146 85 108 39 q 206 215 183 131 q 238 412 228 300 q 251 650 247 524 l 261 972 l 875 972 l 875 22 l 828 22 m 13 -226 l 14 43 l 1026 43 l 1026 -226 l 981 -226 l 981 0 l 58 0 l 57 -226 l 13 -226 z "},"Е":{"ha":900,"x_min":183,"x_max":840,"o":"m 222 515 l 758 515 l 758 472 l 222 472 l 222 515 m 231 43 l 840 43 l 840 0 l 183 0 l 183 972 l 821 972 l 821 929 l 231 929 l 231 43 z "},"Ж":{"ha":1365,"x_min":42,"x_max":1325,"o":"m 1268 0 l 915 493 l 956 514 l 1325 0 l 1268 0 m 690 472 l 690 515 l 956 515 l 956 472 l 690 472 m 957 482 l 915 494 l 1242 972 l 1296 972 l 957 482 m 97 0 l 42 0 l 410 514 l 450 493 l 97 0 m 706 0 l 660 0 l 660 972 l 706 972 l 706 0 m 676 472 l 410 472 l 410 515 l 676 515 l 676 472 m 408 482 l 69 972 l 124 972 l 451 494 l 408 482 z "},"З":{"ha":869,"x_min":54,"x_max":761,"o":"m 54 132 l 76 163 q 225 68 142 99 q 394 37 308 38 q 553 64 481 36 q 669 146 625 92 q 714 276 714 200 q 638 432 714 378 q 422 486 561 486 l 228 486 l 228 528 l 422 528 q 607 579 540 528 q 674 722 674 631 q 638 833 674 786 q 544 906 603 879 q 410 935 485 932 q 257 917 336 939 q 104 849 178 896 l 85 888 q 256 961 167 939 q 427 976 344 983 q 576 938 510 969 q 681 853 642 907 q 721 726 721 799 q 685 604 721 656 q 587 524 650 553 q 436 496 524 496 l 442 518 q 612 488 540 518 q 722 402 683 457 q 761 272 761 347 q 726 145 761 200 q 632 55 692 90 q 497 4 572 19 q 343 -3 422 -11 q 189 39 264 6 q 54 132 114 72 z "},"И":{"ha":1147,"x_min":183,"x_max":963,"o":"m 183 0 l 183 972 l 231 972 l 231 82 l 924 972 l 963 972 l 963 0 l 917 0 l 917 890 l 222 0 l 183 0 z "},"Й":{"ha":1147,"x_min":183,"x_max":963,"o":"m 183 0 l 183 972 l 231 972 l 231 82 l 924 972 l 963 972 l 963 0 l 917 0 l 917 890 l 222 0 l 183 0 m 569 1047 q 424 1091 482 1047 q 363 1210 365 1135 l 403 1210 q 452 1116 406 1151 q 569 1081 499 1081 q 688 1116 640 1081 q 736 1210 735 1151 l 776 1210 q 716 1091 775 1135 q 569 1047 657 1047 z "},"К":{"ha":957,"x_min":183,"x_max":921,"o":"m 865 0 l 458 493 l 499 514 l 921 0 l 865 0 m 183 0 l 183 972 l 231 972 l 231 0 l 183 0 m 214 472 l 214 515 l 503 515 l 503 472 l 214 472 m 500 482 l 458 494 l 840 972 l 894 972 l 500 482 z "},"Л":{"ha":1081,"x_min":11,"x_max":896,"o":"m 74 -6 q 44 -3 58 -6 q 11 3 29 -1 l 18 46 q 65 40 43 40 q 170 90 129 40 q 233 251 211 140 q 263 546 256 363 l 278 972 l 896 972 l 896 0 l 850 0 l 850 946 l 867 929 l 306 929 l 321 946 l 306 544 q 286 294 301 399 q 242 124 271 189 q 172 26 214 58 q 74 -6 131 -6 z "},"М":{"ha":1339,"x_min":183,"x_max":1156,"o":"m 183 0 l 183 972 l 222 972 l 681 176 l 660 176 l 1115 972 l 1154 972 l 1156 0 l 1110 0 l 1108 903 l 1124 903 l 682 135 l 657 135 l 213 903 l 229 903 l 229 0 l 183 0 z "},"Н":{"ha":1143,"x_min":183,"x_max":960,"o":"m 913 972 l 960 972 l 960 0 l 913 0 l 913 972 m 231 0 l 183 0 l 183 972 l 231 972 l 231 0 m 921 472 l 222 472 l 222 515 l 921 515 l 921 472 z "},"О":{"ha":1188,"x_min":92,"x_max":1096,"o":"m 593 -6 q 394 31 486 -6 q 235 135 303 68 q 129 291 167 201 q 92 486 92 381 q 129 681 92 592 q 235 838 167 771 q 394 941 303 904 q 593 978 486 978 q 793 941 701 978 q 952 838 885 904 q 1058 681 1019 771 q 1096 486 1096 592 q 1058 291 1096 381 q 952 135 1019 201 q 793 31 885 68 q 593 -6 701 -6 m 593 38 q 774 71 690 38 q 919 165 857 104 q 1015 308 981 226 q 1049 486 1049 389 q 1015 665 1049 583 q 919 807 981 746 q 774 901 857 868 q 593 935 690 935 q 414 901 497 935 q 269 807 331 868 q 173 665 207 746 q 139 486 139 583 q 173 308 139 389 q 269 165 207 226 q 414 71 331 104 q 593 38 497 38 z "},"П":{"ha":1154,"x_min":183,"x_max":971,"o":"m 183 0 l 183 972 l 971 972 l 971 0 l 924 0 l 924 946 l 940 929 l 214 929 l 231 946 l 231 0 l 183 0 z "},"Р":{"ha":976,"x_min":183,"x_max":907,"o":"m 183 0 l 183 972 l 521 972 q 728 933 642 972 q 861 823 815 894 q 907 650 907 751 q 861 476 907 549 q 728 365 815 404 q 521 326 642 326 l 210 326 l 231 349 l 231 0 l 183 0 m 231 349 l 210 369 l 524 369 q 774 443 688 369 q 861 650 861 517 q 774 856 861 783 q 524 929 688 929 l 210 929 l 231 951 l 231 349 z "},"С":{"ha":990,"x_min":92,"x_max":931,"o":"m 593 -6 q 394 31 486 -6 q 235 135 303 68 q 129 291 167 201 q 92 486 92 381 q 129 681 92 592 q 235 838 167 771 q 394 941 303 904 q 593 978 486 978 q 779 946 692 978 q 931 849 867 914 l 901 818 q 759 908 836 881 q 594 935 682 935 q 414 901 497 935 q 269 806 331 867 q 173 663 207 744 q 139 486 139 582 q 173 309 139 390 q 269 167 207 228 q 414 72 331 106 q 594 38 497 38 q 759 65 682 38 q 901 156 836 92 l 931 125 q 779 27 867 60 q 593 -6 692 -6 z "},"Т":{"ha":783,"x_min":13,"x_max":771,"o":"m 368 0 l 368 946 l 385 929 l 13 929 l 13 972 l 771 972 l 771 929 l 399 929 l 415 946 l 415 0 l 368 0 z "},"У":{"ha":922,"x_min":38,"x_max":897,"o":"m 144 54 q 276 42 211 26 q 401 150 342 57 l 449 224 l 454 232 l 847 972 l 897 972 l 444 139 q 350 29 403 64 q 240 -6 297 -6 q 129 15 183 -7 l 144 54 m 451 185 l 38 972 l 89 972 l 476 229 l 451 185 z "},"Ф":{"ha":1254,"x_min":79,"x_max":1174,"o":"m 618 68 q 331 118 451 68 q 145 262 211 168 q 79 486 79 356 q 145 713 79 619 q 331 855 211 806 q 618 904 451 904 q 622 904 619 904 q 626 904 624 904 q 631 904 629 904 q 920 855 799 904 q 1108 712 1042 806 q 1174 486 1174 618 q 1108 261 1174 354 q 921 118 1042 168 q 631 68 800 68 q 626 68 629 68 q 622 68 624 68 q 618 68 619 68 m 626 110 q 629 110 628 110 q 631 110 631 110 q 897 155 785 111 q 1068 283 1008 199 q 1128 486 1128 368 q 1068 690 1128 607 q 897 819 1008 774 q 632 864 786 864 q 629 864 631 864 q 626 864 628 864 q 360 819 472 864 q 187 692 247 775 q 126 486 126 608 q 187 282 126 367 q 360 153 247 197 q 626 110 472 110 m 604 -29 l 604 1001 l 650 1001 l 650 -29 l 604 -29 z "},"Х":{"ha":864,"x_min":42,"x_max":822,"o":"m 68 972 l 124 972 l 431 543 l 740 972 l 796 972 l 460 504 l 822 0 l 767 0 l 431 465 l 97 0 l 42 0 l 403 503 l 68 972 z "},"Ц":{"ha":1142,"x_min":183,"x_max":1094,"o":"m 183 0 l 183 972 l 231 972 l 231 43 l 888 43 l 888 972 l 933 972 l 933 0 l 183 0 m 1049 -239 l 1049 17 l 1065 0 l 888 0 l 888 43 l 1094 43 l 1094 -239 l 1049 -239 z "},"Ч":{"ha":1004,"x_min":93,"x_max":821,"o":"m 788 435 q 607 371 697 393 q 436 349 517 349 q 184 427 275 349 q 93 644 93 506 l 93 972 l 140 972 l 140 647 q 219 459 140 526 q 438 392 299 392 q 607 415 518 392 q 789 481 696 438 l 788 435 m 774 0 l 774 972 l 821 972 l 821 0 l 774 0 z "},"Ш":{"ha":1518,"x_min":183,"x_max":1333,"o":"m 749 43 l 736 26 l 736 972 l 782 972 l 782 26 l 765 43 l 1304 43 l 1288 26 l 1288 972 l 1333 972 l 1333 0 l 183 0 l 183 972 l 231 972 l 231 26 l 214 43 l 749 43 z "},"Щ":{"ha":1543,"x_min":183,"x_max":1493,"o":"m 749 43 l 736 26 l 736 972 l 782 972 l 782 26 l 765 43 l 1304 43 l 1288 26 l 1288 972 l 1333 972 l 1333 0 l 183 0 l 183 972 l 231 972 l 231 26 l 214 43 l 749 43 m 1449 -226 l 1449 17 l 1464 0 l 1286 0 l 1286 43 l 1493 43 l 1493 -226 l 1449 -226 z "},"Ъ":{"ha":1124,"x_min":13,"x_max":1053,"o":"m 706 610 q 964 534 875 610 q 1053 310 1053 458 q 960 78 1053 157 q 688 0 867 0 l 328 0 l 328 929 l 13 929 l 13 972 l 374 972 l 374 610 l 706 610 m 692 40 q 926 108 847 40 q 1006 308 1006 175 q 928 505 1006 440 q 692 569 850 569 l 374 569 l 374 40 l 692 40 z "},"Ы":{"ha":1328,"x_min":183,"x_max":1144,"o":"m 561 610 q 821 534 732 610 q 910 310 910 458 q 817 78 910 157 q 544 0 724 0 l 183 0 l 183 972 l 231 972 l 231 610 l 561 610 m 549 40 q 783 108 704 40 q 863 308 863 175 q 785 505 863 440 q 549 569 707 569 l 231 569 l 231 40 l 549 40 m 1097 0 l 1097 972 l 1144 972 l 1144 0 l 1097 0 z "},"Ь":{"ha":981,"x_min":183,"x_max":910,"o":"m 561 610 q 821 534 732 610 q 910 310 910 458 q 817 78 910 157 q 544 0 724 0 l 183 0 l 183 972 l 231 972 l 231 610 l 561 610 m 549 40 q 783 108 704 40 q 863 308 863 175 q 785 505 863 440 q 549 569 707 569 l 231 569 l 231 40 l 549 40 z "},"Э":{"ha":979,"x_min":60,"x_max":885,"o":"m 290 476 l 290 518 l 853 518 l 853 476 l 290 476 m 410 978 q 597 941 511 978 q 748 838 683 904 q 849 681 813 771 q 885 486 885 592 q 849 291 885 381 q 748 135 813 201 q 597 31 683 68 q 410 -6 511 -6 q 215 26 306 -6 q 60 124 124 58 l 89 154 q 235 65 154 92 q 408 38 317 38 q 578 72 500 38 q 715 167 657 106 q 805 309 772 228 q 838 486 838 390 q 805 663 838 582 q 715 806 772 744 q 578 901 657 867 q 408 935 500 935 q 235 908 317 935 q 89 817 154 881 l 60 847 q 215 945 124 913 q 410 978 306 978 z "},"Ю":{"ha":1504,"x_min":183,"x_max":1408,"o":"m 183 0 l 183 972 l 231 972 l 231 515 l 481 515 l 481 472 l 231 472 l 231 0 l 183 0 m 935 -6 q 748 31 835 -6 q 598 135 661 68 q 499 291 535 201 q 463 486 463 381 q 499 681 463 592 q 598 838 535 771 q 748 941 661 904 q 935 978 835 978 q 1123 941 1036 978 q 1274 838 1210 904 q 1373 681 1338 771 q 1408 486 1408 592 q 1373 291 1408 381 q 1274 135 1338 201 q 1123 31 1210 68 q 935 -6 1036 -6 m 935 38 q 1104 71 1026 38 q 1240 165 1182 104 q 1330 308 1297 226 q 1363 486 1363 389 q 1330 665 1363 583 q 1240 807 1297 746 q 1104 901 1182 868 q 935 935 1026 935 q 768 901 846 935 q 632 807 690 868 q 542 665 574 746 q 510 486 510 583 q 542 308 510 389 q 632 165 574 226 q 768 71 690 104 q 935 38 846 38 z "},"Я":{"ha":1018,"x_min":108,"x_max":833,"o":"m 788 0 l 788 329 l 804 314 l 463 314 q 272 352 351 314 q 151 463 193 390 q 110 639 110 536 q 156 822 110 747 q 283 934 201 896 q 476 972 365 972 l 833 972 l 833 0 l 788 0 m 108 0 l 346 339 l 397 339 l 160 0 l 108 0 m 788 339 l 788 946 l 804 929 l 481 929 q 242 855 326 929 q 157 639 157 781 q 235 430 157 504 q 467 356 314 356 l 804 356 l 788 339 z "},"а":{"ha":794,"x_min":86,"x_max":657,"o":"m 613 0 l 613 168 l 611 193 l 611 467 q 554 629 611 574 q 389 685 497 685 q 244 658 310 685 q 132 588 179 631 l 107 621 q 233 698 158 669 q 390 726 308 726 q 588 660 519 726 q 657 467 657 594 l 657 0 l 613 0 m 344 -4 q 205 21 263 -4 q 117 92 147 46 q 86 199 86 139 q 111 297 86 251 q 194 369 136 342 q 349 396 251 396 l 628 396 l 628 358 l 349 358 q 181 314 231 358 q 132 201 132 269 q 189 80 132 125 q 347 35 246 35 q 513 80 447 35 q 611 208 578 125 l 626 178 q 526 46 599 96 q 344 -4 454 -4 z "},"б":{"ha":908,"x_min":108,"x_max":824,"o":"m 465 -6 q 314 26 381 -6 q 201 117 247 57 q 132 266 156 178 q 108 468 108 354 q 132 671 108 588 q 194 810 156 754 q 280 899 232 865 q 376 951 328 932 q 465 979 424 969 l 781 1057 l 789 1014 l 486 940 q 408 917 451 932 q 319 874 364 903 q 236 796 274 846 q 176 666 199 746 q 153 469 153 586 q 153 439 153 451 q 156 412 154 426 q 163 369 158 397 l 139 372 q 188 542 143 468 q 308 659 232 617 q 481 701 383 701 q 658 657 581 701 q 780 534 736 613 q 824 351 824 456 q 779 168 824 249 q 654 41 735 88 q 465 -6 574 -6 m 476 36 q 632 77 564 36 q 739 189 700 118 q 778 351 778 260 q 739 511 778 442 q 632 619 700 581 q 476 658 564 658 q 319 619 388 658 q 213 512 251 581 q 174 351 174 443 q 213 190 174 261 q 319 77 251 118 q 476 36 388 36 z "},"в":{"ha":829,"x_min":157,"x_max":726,"o":"m 157 0 l 157 721 l 449 721 q 633 674 565 721 q 700 538 700 628 q 635 404 700 449 q 464 360 569 360 l 483 376 q 668 329 610 376 q 726 192 726 282 q 660 49 726 99 q 456 0 593 0 l 157 0 m 203 39 l 457 39 q 624 76 567 39 q 681 193 681 113 q 631 310 681 272 q 471 347 581 347 l 203 347 l 203 39 m 203 385 l 449 385 q 600 422 546 385 q 654 533 654 460 q 600 644 654 607 q 449 682 546 682 l 203 682 l 203 385 z "},"г":{"ha":633,"x_min":157,"x_max":636,"o":"m 157 0 l 157 721 l 636 721 l 636 679 l 188 679 l 203 693 l 203 0 l 157 0 z "},"д":{"ha":875,"x_min":15,"x_max":815,"o":"m 651 22 l 651 679 l 253 679 l 243 483 q 232 324 239 404 q 209 178 225 244 q 165 72 193 113 q 94 28 138 31 l 47 40 q 122 74 93 38 q 165 176 150 111 q 188 321 181 240 q 200 485 196 401 l 211 721 l 697 721 l 697 22 l 651 22 m 15 -183 l 15 40 l 815 40 l 815 -183 l 771 -183 l 771 0 l 60 0 l 60 -183 l 15 -183 z "},"е":{"ha":836,"x_min":83,"x_max":760,"o":"m 449 -4 q 260 42 342 -4 q 131 172 178 89 q 83 361 83 256 q 127 550 83 468 q 248 679 171 632 q 422 726 325 726 q 595 681 518 726 q 716 553 672 635 q 760 367 760 472 q 760 360 760 364 q 760 354 760 357 l 114 354 l 114 392 l 735 392 l 717 369 q 678 531 717 460 q 574 644 640 603 q 422 685 507 685 q 271 644 338 685 q 166 531 204 603 q 128 368 128 460 l 128 360 q 169 192 128 265 q 283 78 211 119 q 449 38 356 38 q 583 64 519 38 q 688 144 646 90 l 717 114 q 598 26 668 56 q 449 -4 528 -4 z "},"ж":{"ha":1099,"x_min":35,"x_max":1064,"o":"m 1008 0 l 738 364 l 776 385 l 1064 0 l 1008 0 m 556 346 l 556 386 l 775 386 l 775 346 l 556 346 m 779 356 l 736 365 l 990 721 l 1043 721 l 779 356 m 90 0 l 35 0 l 322 385 l 361 364 l 90 0 m 571 0 l 526 0 l 526 721 l 571 721 l 571 0 m 540 346 l 324 346 l 324 386 l 540 386 l 540 346 m 319 356 l 56 721 l 108 721 l 363 365 l 319 356 z "},"з":{"ha":721,"x_min":44,"x_max":622,"o":"m 324 -6 q 472 20 404 -6 q 581 93 539 46 q 622 206 622 140 q 553 336 622 288 q 360 385 485 385 l 354 367 q 479 388 424 367 q 568 448 535 408 q 601 542 601 488 q 563 642 601 600 q 462 705 525 683 q 324 726 399 726 q 199 710 260 726 q 78 658 138 693 l 94 621 q 206 668 149 653 q 318 685 263 683 q 435 669 382 686 q 522 618 489 651 q 554 536 554 585 q 526 459 554 492 q 450 410 499 426 q 340 394 401 394 l 231 394 l 231 356 l 340 356 q 512 317 449 356 q 575 208 575 278 q 544 121 575 160 q 457 59 513 82 q 328 35 401 36 q 188 56 258 33 q 67 126 118 78 l 44 94 q 176 19 101 43 q 324 -6 251 -6 z "},"и":{"ha":940,"x_min":157,"x_max":785,"o":"m 157 0 l 157 721 l 203 721 l 203 74 l 744 721 l 785 721 l 785 0 l 739 0 l 739 647 l 196 0 l 157 0 z "},"й":{"ha":940,"x_min":157,"x_max":785,"o":"m 157 0 l 157 721 l 203 721 l 203 74 l 744 721 l 785 721 l 785 0 l 739 0 l 739 647 l 196 0 l 157 0 m 469 838 q 336 881 390 838 q 281 1000 282 925 l 317 1000 q 363 907 319 942 q 469 872 407 872 q 576 907 533 872 q 621 1000 619 942 l 658 1000 q 603 881 657 925 q 469 838 549 838 z "},"к":{"ha":774,"x_min":157,"x_max":749,"o":"m 693 0 l 372 364 l 411 385 l 749 0 l 693 0 m 157 0 l 157 721 l 203 721 l 203 0 l 157 0 m 188 346 l 188 386 l 410 386 l 410 346 l 188 346 m 414 356 l 371 365 l 674 721 l 726 721 l 414 356 z "},"л":{"ha":858,"x_min":7,"x_max":701,"o":"m 7 3 l 13 43 q 31 40 21 42 q 47 38 40 38 q 123 74 94 38 q 167 174 151 111 q 190 317 182 238 q 200 481 197 396 l 213 721 l 701 721 l 701 0 l 656 0 l 656 696 l 669 679 l 242 679 l 256 696 l 244 474 q 229 294 239 381 q 201 140 219 207 q 148 33 182 72 q 58 -6 114 -6 q 34 -3 47 -6 q 7 3 21 0 z "},"м":{"ha":1082,"x_min":157,"x_max":925,"o":"m 157 0 l 157 721 l 200 721 l 553 136 l 532 136 l 883 721 l 925 721 l 925 0 l 882 0 l 882 663 l 893 660 l 551 97 l 529 97 l 188 661 l 201 663 l 201 0 l 157 0 z "},"н":{"ha":925,"x_min":157,"x_max":768,"o":"m 157 0 l 157 721 l 203 721 l 203 383 l 722 383 l 722 721 l 768 721 l 768 0 l 722 0 l 722 343 l 203 343 l 203 0 l 157 0 z "},"о":{"ha":874,"x_min":82,"x_max":790,"o":"m 436 -4 q 255 42 335 -4 q 128 172 175 89 q 82 361 82 256 q 128 550 82 468 q 255 679 175 632 q 436 726 335 726 q 618 679 538 726 q 744 550 699 632 q 790 361 790 468 q 744 172 790 256 q 618 42 699 89 q 436 -4 538 -4 m 436 38 q 595 78 525 38 q 705 193 665 119 q 744 361 744 267 q 705 530 744 457 q 595 643 665 603 q 436 683 525 683 q 279 643 349 683 q 169 530 210 603 q 128 361 128 457 q 169 193 128 267 q 279 78 210 119 q 436 38 349 38 z "},"п":{"ha":931,"x_min":157,"x_max":774,"o":"m 157 0 l 157 721 l 774 721 l 774 0 l 728 0 l 728 694 l 742 679 l 188 679 l 203 694 l 203 0 l 157 0 z "},"р":{"ha":949,"x_min":158,"x_max":867,"o":"m 514 -4 q 339 41 417 -4 q 216 169 261 86 q 171 360 171 251 q 216 552 171 469 q 339 681 261 635 q 514 726 417 726 q 694 679 614 726 q 820 550 774 632 q 867 360 867 468 q 820 171 867 253 q 694 42 774 89 q 514 -4 614 -4 m 158 -269 l 158 721 l 203 721 l 203 468 l 190 358 l 204 249 l 204 -269 l 158 -269 m 513 38 q 670 78 600 38 q 781 192 740 118 q 821 360 821 265 q 781 529 821 457 q 670 642 740 601 q 513 683 600 683 q 354 642 424 683 q 244 529 285 601 q 204 360 204 457 q 244 192 204 265 q 354 78 285 118 q 513 38 424 38 z "},"с":{"ha":767,"x_min":82,"x_max":707,"o":"m 440 -4 q 256 42 338 -4 q 128 172 175 89 q 82 361 82 254 q 128 551 82 468 q 256 680 175 633 q 440 726 338 726 q 592 695 522 726 q 707 603 661 664 l 672 574 q 572 657 632 631 q 440 683 511 683 q 281 643 351 683 q 169 530 210 603 q 128 361 128 457 q 169 192 128 265 q 281 78 210 119 q 440 38 351 38 q 572 65 511 38 q 672 147 632 92 l 707 119 q 592 26 661 57 q 440 -4 522 -4 z "},"т":{"ha":614,"x_min":-4,"x_max":618,"o":"m 285 0 l 285 694 l 299 679 l -4 679 l -4 721 l 618 721 l 618 679 l 315 679 l 331 694 l 331 0 l 285 0 z "},"у":{"ha":746,"x_min":-28,"x_max":724,"o":"m 133 -274 q 43 -258 85 -274 q -28 -210 1 -242 l -1 -174 q 60 -219 28 -204 q 133 -233 92 -233 q 226 -204 186 -233 q 301 -97 267 -175 l 354 17 l 361 28 l 675 721 l 724 721 l 346 -108 q 285 -206 318 -169 q 215 -258 253 -243 q 133 -274 178 -274 m 356 -17 l 19 721 l 69 721 l 382 31 l 356 -17 z "},"ф":{"ha":1047,"x_min":79,"x_max":967,"o":"m 525 -6 q 522 -6 524 -6 q 517 -6 519 -6 q 514 -6 515 -6 q 194 92 308 -4 q 79 361 79 189 q 195 630 79 533 q 519 726 311 726 q 522 726 521 726 q 525 726 524 726 q 526 726 526 726 q 851 629 736 725 q 967 361 967 533 q 851 91 967 188 q 525 -6 735 -6 m 525 36 q 740 75 651 36 q 876 187 829 114 q 922 361 922 260 q 876 535 922 464 q 740 645 829 607 q 525 683 651 683 q 521 683 524 683 q 517 683 518 683 q 304 645 392 683 q 171 535 217 607 q 125 361 125 463 q 172 188 125 260 q 306 76 218 115 q 518 36 393 38 q 522 36 519 36 q 525 36 524 36 m 500 -269 l 500 1031 l 546 1031 l 546 -269 l 500 -269 z "},"х":{"ha":699,"x_min":33,"x_max":667,"o":"m 33 0 l 331 383 l 329 364 l 49 721 l 103 721 l 358 393 l 339 393 l 593 721 l 646 721 l 364 358 l 365 385 l 667 0 l 610 0 l 340 350 l 356 349 l 88 0 l 33 0 z "},"ц":{"ha":938,"x_min":157,"x_max":881,"o":"m 157 0 l 157 721 l 203 721 l 203 40 l 713 40 l 713 721 l 758 721 l 758 0 l 157 0 m 836 -183 l 836 10 l 851 0 l 713 0 l 713 40 l 881 40 l 881 -183 l 836 -183 z "},"ч":{"ha":811,"x_min":74,"x_max":654,"o":"m 614 319 q 473 273 543 289 q 342 257 403 257 q 148 313 222 257 q 74 479 74 368 l 74 721 l 119 721 l 119 481 q 181 343 119 390 q 346 296 243 296 q 474 313 406 296 q 615 361 542 329 l 614 319 m 608 0 l 608 721 l 654 721 l 654 0 l 608 0 z "}}}
